<svg width="171" height="150" xmlns="http://www.w3.org/2000/svg" xmlns:xlink="http://www.w3.org/1999/xlink" overflow="hidden"><defs><clipPath id="clip0"><path d="M1203 356 1374 356 1374 506 1203 506Z" fill-rule="evenodd" clip-rule="evenodd"/></clipPath></defs><g clip-path="url(#clip0)" transform="translate(-1203 -356)"><path d="M1209 379C1209 369.611 1216.61 362 1226 362L1235.5 362 1235.5 362 1275.25 362 1351 362C1360.39 362 1368 369.611 1368 379L1368 421.5 1368 421.5 1368 447 1368 447C1368 456.389 1360.39 464 1351 464L1275.25 464 1234.44 495.013 1235.5 464 1226 464C1216.61 464 1209 456.389 1209 447L1209 447 1209 421.5 1209 421.5Z" stroke="#548235" stroke-width="10" stroke-miterlimit="8" fill="#FFFFFF" fill-rule="evenodd"/><path d="M1245.5 395.5 1335.69 395.5" stroke="#548235" stroke-width="11" stroke-miterlimit="8" fill="none" fill-rule="evenodd"/><path d="M1245.5 430.5 1335.69 430.5" stroke="#548235" stroke-width="11" stroke-miterlimit="8" fill="none" fill-rule="evenodd"/></g></svg>