<svg width="137" height="111" xmlns="http://www.w3.org/2000/svg" xmlns:xlink="http://www.w3.org/1999/xlink" overflow="hidden"><defs><clipPath id="clip0"><path d="M752 541 889 541 889 652 752 652Z" fill-rule="evenodd" clip-rule="evenodd"/></clipPath></defs><g clip-path="url(#clip0)" transform="translate(-752 -541)"><rect x="848" y="549" width="10" height="96"/><path d="M836 545 869.6 545" stroke="#000000" stroke-width="8" stroke-miterlimit="8" fill="none" fill-rule="evenodd"/><path d="M836 647 869.6 647" stroke="#000000" stroke-width="8" stroke-miterlimit="8" fill="none" fill-rule="evenodd"/><path d="M0 0 84.1715 0.000104987" stroke="#000000" stroke-width="7" stroke-miterlimit="8" fill="none" fill-rule="evenodd" transform="matrix(-1 -8.74228e-08 -8.74228e-08 1 840.672 568.5)"/><path d="M0 0 84.1715 0.000104987" stroke="#000000" stroke-width="7" stroke-miterlimit="8" fill="none" fill-rule="evenodd" transform="matrix(-1 -8.74228e-08 -8.74228e-08 1 840.672 626.5)"/><path d="M0 0 24.96 0.000104987" stroke="#000000" stroke-width="7" stroke-miterlimit="8" fill="none" fill-rule="evenodd" transform="matrix(-1 -8.74228e-08 -8.74228e-08 1 889.46 568.5)"/><path d="M0 0 24.96 0.000104987" stroke="#000000" stroke-width="7" stroke-miterlimit="8" fill="none" fill-rule="evenodd" transform="matrix(-1 -8.74228e-08 -8.74228e-08 1 889.46 626.5)"/><path d="M760.5 568.5 760.5 623.266" stroke="#000000" stroke-width="7" stroke-miterlimit="8" fill="none" fill-rule="evenodd"/><path d="M885.5 568.5 885.5 625.486" stroke="#000000" stroke-width="7" stroke-miterlimit="8" fill="none" fill-rule="evenodd"/><path d="M830.5 590.5 830.5 609.7" stroke="#000000" stroke-width="5" stroke-miterlimit="8" fill="none" fill-rule="evenodd"/><path d="M820.5 600.5 839.7 600.5" stroke="#000000" stroke-width="5" stroke-miterlimit="8" fill="none" fill-rule="evenodd"/><path d="M806.5 590.5 806.5 609.7" stroke="#000000" stroke-width="5" stroke-miterlimit="8" fill="none" fill-rule="evenodd"/><path d="M797.5 600.5 816.7 600.5" stroke="#000000" stroke-width="5" stroke-miterlimit="8" fill="none" fill-rule="evenodd"/><path d="M16.5 0C25.6127-2.10067e-15 33 6.71573 33 15 33 23.2843 25.6127 30 16.5 30 15.9798 30 15.4599 29.9776 14.9421 29.933" stroke="#000000" stroke-width="7" stroke-miterlimit="8" fill="none" fill-rule="evenodd" transform="matrix(-1 -8.74228e-08 -8.74228e-08 1 808.5 582.5)"/></g></svg>