<svg width="75" height="75" xmlns="http://www.w3.org/2000/svg" xmlns:xlink="http://www.w3.org/1999/xlink" overflow="hidden"><defs><clipPath id="clip0"><path d="M339 495 414 495 414 570 339 570Z" fill-rule="evenodd" clip-rule="evenodd"/></clipPath></defs><g clip-path="url(#clip0)" transform="translate(-339 -495)"><path d="M0 37.5C-9.5485e-15 16.7893 16.7893 0 37.5 0 58.2107-9.5485e-15 75 16.7893 75 37.5 75 58.2107 58.2107 75 37.5 75 16.7893 75-1.43228e-14 58.2107 0 37.5ZM60.3087 53.6509C69.2286 41.054 66.2479 23.6112 53.651 14.6913 43.9739 7.83888 31.0261 7.83888 21.3491 14.6913ZM14.6913 21.3491C5.77135 33.946 8.75214 51.3888 21.349 60.3087 31.0261 67.1611 43.9739 67.1611 53.6509 60.3087Z" fill="#DF6B6B" fill-rule="evenodd" transform="matrix(-1 -8.74228e-08 -8.74228e-08 1 414 495)"/></g></svg>