<svg width="100" height="54" xmlns="http://www.w3.org/2000/svg" xmlns:xlink="http://www.w3.org/1999/xlink" overflow="hidden"><defs><clipPath id="clip0"><path d="M635 429 735 429 735 483 635 483Z" fill-rule="evenodd" clip-rule="evenodd"/></clipPath></defs><g clip-path="url(#clip0)" transform="translate(-635 -429)"><rect x="636.5" y="457.5" width="20" height="19" stroke="#C55A11" stroke-miterlimit="8" fill="#C55A11"/><path d="M641 459C641.135 450.63 640.865 445.87 642.698 441.703 644.532 437.536 649.349 435.088 652 434" stroke="#C55A11" stroke-width="10" stroke-miterlimit="8" fill="none" fill-rule="evenodd"/><rect x="660.5" y="457.5" width="20" height="19" stroke="#C55A11" stroke-miterlimit="8" fill="#C55A11"/><path d="M665 459C665.135 450.63 664.865 445.87 666.698 441.703 668.532 437.536 673.349 435.088 676 434" stroke="#C55A11" stroke-width="10" stroke-miterlimit="8" fill="none" fill-rule="evenodd"/><rect x="689.5" y="436.5" width="20" height="20" stroke="#C55A11" stroke-miterlimit="8" fill="#C55A11"/><path d="M705 453C704.853 461.37 705.147 466.13 703.147 470.297 701.147 474.464 695.893 476.912 693 478" stroke="#C55A11" stroke-width="10" stroke-miterlimit="8" fill="none" fill-rule="evenodd"/><rect x="714.5" y="436.5" width="19" height="20" stroke="#C55A11" stroke-miterlimit="8" fill="#C55A11"/><path d="M729 453C728.865 461.37 729.135 466.13 727.302 470.297 725.468 474.464 720.651 476.912 718 478" stroke="#C55A11" stroke-width="10" stroke-miterlimit="8" fill="none" fill-rule="evenodd"/></g></svg>