<svg width="105" height="59" xmlns="http://www.w3.org/2000/svg" xmlns:xlink="http://www.w3.org/1999/xlink" overflow="hidden"><defs><clipPath id="clip0"><path d="M721 382 826 382 826 441 721 441Z" fill-rule="evenodd" clip-rule="evenodd"/></clipPath></defs><g clip-path="url(#clip0)" transform="translate(-721 -382)"><rect x="722.5" y="410.5" width="20" height="19" stroke="#EC7728" stroke-miterlimit="8" fill="#EC7728"/><path d="M727 412C727.135 403.63 726.865 398.87 728.698 394.703 730.532 390.536 735.349 388.088 738 387" stroke="#EC7728" stroke-width="10" stroke-miterlimit="8" fill="none" fill-rule="evenodd"/><rect x="748.5" y="410.5" width="20" height="19" stroke="#EC7728" stroke-miterlimit="8" fill="#EC7728"/><path d="M753 412C753.147 403.63 752.853 398.87 754.853 394.703 756.853 390.536 762.107 388.088 765 387" stroke="#EC7728" stroke-width="10" stroke-miterlimit="8" fill="none" fill-rule="evenodd"/><rect x="779.5" y="394.5" width="20" height="20" stroke="#EC7728" stroke-miterlimit="8" fill="#EC7728"/><path d="M795 411C794.853 419.37 795.147 424.13 793.147 428.297 791.147 432.464 785.893 434.912 783 436" stroke="#EC7728" stroke-width="10" stroke-miterlimit="8" fill="none" fill-rule="evenodd"/><rect x="805.5" y="394.5" width="19" height="20" stroke="#EC7728" stroke-miterlimit="8" fill="#EC7728"/><path d="M820 411C819.865 419.37 820.135 424.13 818.302 428.297 816.468 432.464 811.651 434.912 809 436" stroke="#EC7728" stroke-width="10" stroke-miterlimit="8" fill="none" fill-rule="evenodd"/></g></svg>