<svg width="75" height="75" xmlns="http://www.w3.org/2000/svg" xmlns:xlink="http://www.w3.org/1999/xlink" overflow="hidden"><defs><clipPath id="clip0"><path d="M415 423 490 423 490 498 415 498Z" fill-rule="evenodd" clip-rule="evenodd"/></clipPath></defs><g clip-path="url(#clip0)" transform="translate(-415 -423)"><path d="M0 37.5C-4.77425e-15 16.7893 16.5655 0 37 0 57.4345-9.5485e-15 74 16.7893 74 37.5 74 58.2107 57.4345 75 37 75 16.5655 75-9.5485e-15 58.2107 0 37.5ZM59.5093 53.7178C68.3066 41.0608 65.3605 23.5394 52.9289 14.5825 43.3545 7.68417 30.5417 7.70729 20.9913 14.6401ZM14.4907 21.2822C5.6934 33.9392 8.63952 51.4606 21.0711 60.4175 30.6455 67.3158 43.4583 67.2927 53.0087 60.3599Z" fill="#B81414" fill-rule="evenodd" transform="matrix(-1 -8.74228e-08 -8.74228e-08 1 489 423)"/></g></svg>