<svg width="98" height="96" xmlns="http://www.w3.org/2000/svg" xmlns:xlink="http://www.w3.org/1999/xlink" overflow="hidden"><defs><clipPath id="clip0"><path d="M513 417 611 417 611 513 513 513Z" fill-rule="evenodd" clip-rule="evenodd"/></clipPath></defs><g clip-path="url(#clip0)" transform="translate(-513 -417)"><path d="M518 432.334C518 426.626 522.626 422 528.334 422L532.667 422 532.667 422 554.667 422 595.666 422C601.374 422 606 426.626 606 432.334L606 458.167 606 458.167 606 473.667 606 473.666C606 479.374 601.374 484 595.666 484L554.667 484 533.809 500.141 532.667 484 528.334 484C522.626 484 518 479.374 518 473.666L518 473.667 518 458.167 518 458.167Z" stroke="#548235" stroke-width="10" stroke-miterlimit="8" fill="none" fill-rule="evenodd"/><path d="M533 444 591.5 444" stroke="#548235" stroke-width="8" stroke-miterlimit="8" fill="none" fill-rule="evenodd"/><path d="M533 463 591.5 463" stroke="#548235" stroke-width="8" stroke-miterlimit="8" fill="none" fill-rule="evenodd"/></g></svg>