<svg width="24" height="24" viewBox="0 0 24 24" fill="none" xmlns="http://www.w3.org/2000/svg">
<path fill-rule="evenodd" clip-rule="evenodd" d="M11.1052 4.5613L7.67505 7.98827L6.54072 6.86834L8.61099 4.78848H3.81131C3.17483 4.78848 2.56442 5.04132 2.11436 5.49138C1.6643 5.94144 1.41147 6.55184 1.41147 7.18832C1.41147 7.8248 1.6643 8.43521 2.11436 8.88526C2.56442 9.33532 3.17483 9.58816 3.81131 9.58816H4.70085V11.1881H3.8209C2.7921 11.142 1.8207 10.7009 1.10896 9.95661C0.397222 9.21231 0 8.22216 0 7.19232C0 6.16249 0.397222 5.17234 1.10896 4.42803C1.8207 3.68373 2.7921 3.24263 3.8209 3.19659H8.62058L6.54072 1.13112L7.67505 0L11.1052 3.43177V4.5613Z" fill="white"/>
<path d="M16.6201 24H7.02069L6.22074 23.2001V10.4121L7.02069 9.61216H16.6201L17.42 10.4121V23.2001L16.6201 24ZM7.82064 22.4001H15.8201V11.2121H7.82064V22.4001Z" fill="white"/>
<path d="M23.0196 1.60149H13.4203L12.6203 2.40144V7.98827H14.2202V3.20139H22.2197V14.3878H19.0199V15.9877H23.0196L23.8196 15.1878V2.40144L23.0196 1.60149Z" fill="white"/>
<path d="M14.2202 12.7879H9.42053V14.3878H14.2202V12.7879Z" fill="white"/>
<path d="M14.2202 15.9877H9.42053V17.5876H14.2202V15.9877Z" fill="white"/>
<path d="M14.2202 19.1875H9.42053V20.7874H14.2202V19.1875Z" fill="white"/>
<path d="M20.6198 4.78848H15.8201V6.38837H20.6198V4.78848Z" fill="white"/>
<path d="M20.6198 11.1881H19.0199V12.7879H20.6198V11.1881Z" fill="white"/>
<path d="M17.2824 7.98827V8.01227L18.8583 9.58816H20.6198V7.98827H17.2824Z" fill="white"/>
</svg>