<svg width="76" height="75" xmlns="http://www.w3.org/2000/svg" xmlns:xlink="http://www.w3.org/1999/xlink" overflow="hidden"><defs><clipPath id="clip0"><path d="M413 417 489 417 489 492 413 492Z" fill-rule="evenodd" clip-rule="evenodd"/></clipPath></defs><g clip-path="url(#clip0)" transform="translate(-413 -417)"><path d="M0 37C-9.42119e-15 16.5655 16.5655 0 37 0 57.4345-9.42119e-15 74 16.5655 74 37 74 57.4345 57.4345 74 37 74 16.5655 74-1.41318e-14 57.4345 0 37ZM57.3609 47.9636C63.4159 36.7185 59.2086 22.6941 47.9636 16.6391 41.1191 12.9536 32.8809 12.9536 26.0365 16.6391ZM16.6391 26.0364C10.5841 37.2815 14.7914 51.3059 26.0364 57.3609 32.8809 61.0464 41.1191 61.0464 47.9635 57.3609Z" fill="#FF6D6D" fill-rule="evenodd" transform="matrix(-1 -8.74228e-08 -8.74228e-08 1 488 417)"/></g></svg>