<svg width="100" height="54" xmlns="http://www.w3.org/2000/svg" xmlns:xlink="http://www.w3.org/1999/xlink" overflow="hidden"><defs><clipPath id="clip0"><path d="M635 302 735 302 735 356 635 356Z" fill-rule="evenodd" clip-rule="evenodd"/></clipPath></defs><g clip-path="url(#clip0)" transform="translate(-635 -302)"><rect x="636.5" y="330.5" width="20" height="19" stroke="#EC7728" stroke-miterlimit="8" fill="#EC7728"/><path d="M641 332C641.135 323.63 640.865 318.87 642.698 314.703 644.532 310.536 649.349 308.088 652 307" stroke="#EC7728" stroke-width="10" stroke-miterlimit="8" fill="none" fill-rule="evenodd"/><rect x="660.5" y="330.5" width="20" height="19" stroke="#EC7728" stroke-miterlimit="8" fill="#EC7728"/><path d="M665 332C665.135 323.63 664.865 318.87 666.698 314.703 668.532 310.536 673.349 308.088 676 307" stroke="#EC7728" stroke-width="10" stroke-miterlimit="8" fill="none" fill-rule="evenodd"/><rect x="689.5" y="309.5" width="20" height="20" stroke="#EC7728" stroke-miterlimit="8" fill="#EC7728"/><path d="M705 326C704.853 334.37 705.147 339.13 703.147 343.297 701.147 347.464 695.893 349.912 693 351" stroke="#EC7728" stroke-width="10" stroke-miterlimit="8" fill="none" fill-rule="evenodd"/><rect x="714.5" y="309.5" width="19" height="20" stroke="#EC7728" stroke-miterlimit="8" fill="#EC7728"/><path d="M729 326C728.865 334.37 729.135 339.13 727.302 343.297 725.468 347.464 720.651 349.912 718 351" stroke="#EC7728" stroke-width="10" stroke-miterlimit="8" fill="none" fill-rule="evenodd"/></g></svg>