<svg width="105" height="59" xmlns="http://www.w3.org/2000/svg" xmlns:xlink="http://www.w3.org/1999/xlink" overflow="hidden"><defs><clipPath id="clip0"><path d="M769 372 874 372 874 431 769 431Z" fill-rule="evenodd" clip-rule="evenodd"/></clipPath></defs><g clip-path="url(#clip0)" transform="translate(-769 -372)"><rect x="770.5" y="400.5" width="20" height="19" stroke="#EC7728" stroke-miterlimit="8" fill="#EC7728"/><path d="M775 402C775.135 393.63 774.865 388.87 776.698 384.703 778.532 380.536 783.349 378.088 786 377" stroke="#EC7728" stroke-width="10" stroke-miterlimit="8" fill="none" fill-rule="evenodd"/><rect x="796.5" y="400.5" width="20" height="19" stroke="#EC7728" stroke-miterlimit="8" fill="#EC7728"/><path d="M801 402C801.135 393.63 800.865 388.87 802.698 384.703 804.532 380.536 809.349 378.088 812 377" stroke="#EC7728" stroke-width="10" stroke-miterlimit="8" fill="none" fill-rule="evenodd"/><rect x="827.5" y="384.5" width="20" height="20" stroke="#EC7728" stroke-miterlimit="8" fill="#EC7728"/><path d="M842 401C841.865 409.37 842.135 414.13 840.302 418.297 838.468 422.464 833.651 424.912 831 426" stroke="#EC7728" stroke-width="10" stroke-miterlimit="8" fill="none" fill-rule="evenodd"/><rect x="853.5" y="384.5" width="19" height="20" stroke="#EC7728" stroke-miterlimit="8" fill="#EC7728"/><path d="M868 401C867.865 409.37 868.135 414.13 866.302 418.297 864.468 422.464 859.651 424.912 857 426" stroke="#EC7728" stroke-width="10" stroke-miterlimit="8" fill="none" fill-rule="evenodd"/></g></svg>