<svg width="100" height="101" xmlns="http://www.w3.org/2000/svg" xmlns:xlink="http://www.w3.org/1999/xlink" overflow="hidden"><defs><clipPath id="clip0"><path d="M512 416 612 416 612 517 512 517Z" fill-rule="evenodd" clip-rule="evenodd"/></clipPath></defs><g clip-path="url(#clip0)" transform="translate(-512 -416)"><path d="M518.5 432.834C518.5 427.127 523.127 422.5 528.834 422.5L533.167 422.5 533.167 422.5 555.167 422.5 596.167 422.5C601.874 422.5 606.5 427.127 606.5 432.834L606.5 458.667 606.5 458.667 606.5 474.167 606.5 474.167C606.5 479.874 601.874 484.5 596.167 484.5L555.167 484.5 534.309 500.641 533.167 484.5 528.834 484.5C523.127 484.5 518.5 479.874 518.5 474.167L518.5 474.167 518.5 458.667 518.5 458.667Z" stroke="#548235" stroke-width="11" stroke-miterlimit="8" fill="none" fill-rule="evenodd"/><path d="M533 445 591.5 445" stroke="#548235" stroke-width="8" stroke-miterlimit="8" fill="none" fill-rule="evenodd"/><path d="M533 462 591.5 462" stroke="#548235" stroke-width="8" stroke-miterlimit="8" fill="none" fill-rule="evenodd"/></g></svg>