<svg width="182" height="98" xmlns="http://www.w3.org/2000/svg" xmlns:xlink="http://www.w3.org/1999/xlink" overflow="hidden"><defs><clipPath id="clip0"><path d="M1285 334 1467 334 1467 432 1285 432Z" fill-rule="evenodd" clip-rule="evenodd"/></clipPath></defs><g clip-path="url(#clip0)" transform="translate(-1285 -334)"><rect x="1287.5" y="394.5" width="29" height="36" stroke="#C55A11" stroke-miterlimit="8" fill="#C55A11"/><path d="M1293.52 394.5C1293.39 389.246 1294.02 372.466 1295.43 362.814 1297.83 353.961 1303.79 344.523 1314.5 342.5" stroke="#C55A11" stroke-width="13" stroke-miterlimit="8" fill="none" fill-rule="evenodd"/><rect x="1331.5" y="394.5" width="30" height="36" stroke="#C55A11" stroke-miterlimit="8" fill="#C55A11"/><path d="M1338.52 394.5C1338.39 389.246 1339.02 372.466 1340.43 362.814 1342.83 353.961 1348.79 344.523 1359.5 342.5" stroke="#C55A11" stroke-width="13" stroke-miterlimit="8" fill="none" fill-rule="evenodd"/><rect x="1436.5" y="336.5" width="29" height="36" stroke="#C55A11" stroke-miterlimit="8" fill="#C55A11"/><path d="M1459.48 372.5C1459.61 377.855 1458.98 394.958 1457.57 404.795 1455.17 413.818 1449.21 423.438 1438.5 425.5" stroke="#C55A11" stroke-width="13" stroke-miterlimit="8" fill="none" fill-rule="evenodd"/><rect x="1391.5" y="336.5" width="29" height="36" stroke="#C55A11" stroke-miterlimit="8" fill="#C55A11"/><path d="M1414.48 372.5C1414.61 377.855 1413.98 394.958 1412.57 404.795 1410.17 413.818 1404.21 423.438 1393.5 425.5" stroke="#C55A11" stroke-width="13" stroke-miterlimit="8" fill="none" fill-rule="evenodd"/></g></svg>