<svg width="550" height="552" viewBox="0 0 550 552" fill="none" xmlns="http://www.w3.org/2000/svg">
<g filter="url(#filter0_d_13_7872)">
<rect x="12" y="10" width="500" height="528" rx="4" fill="var(--vscode-editorWidget-background, #1e1e1e)"/>
<path d="M37.2842 43.2393C39.4854 43.2393 41.1055 41.9746 41.3789 40.0537H39.8545C39.5811 41.1748 38.5898 41.8789 37.2842 41.8789C35.5068 41.8789 34.3994 40.416 34.3994 38.0713C34.3994 35.7266 35.5068 34.2568 37.2773 34.2568C38.5762 34.2568 39.5674 35.0361 39.8545 36.2598H41.3789C41.1328 34.2842 39.4512 32.8965 37.2773 32.8965C34.5361 32.8965 32.834 34.8789 32.834 38.0713C32.834 41.2568 34.543 43.2393 37.2842 43.2393ZM46.3691 43.1436C48.543 43.1436 49.876 41.6875 49.876 39.2881C49.876 36.8887 48.5361 35.4326 46.3691 35.4326C44.1953 35.4326 42.8555 36.8955 42.8555 39.2881C42.8555 41.6875 44.1885 43.1436 46.3691 43.1436ZM46.3691 41.8926C45.0908 41.8926 44.373 40.9424 44.373 39.2881C44.373 37.6338 45.0908 36.6768 46.3691 36.6768C47.6406 36.6768 48.3652 37.6338 48.3652 39.2881C48.3652 40.9355 47.6406 41.8926 46.3691 41.8926ZM51.6465 43H53.1162V38.4404C53.1162 37.4697 53.793 36.7109 54.6885 36.7109C55.5635 36.7109 56.124 37.2373 56.124 38.085V43H57.5664V38.3037C57.5664 37.4082 58.1885 36.7109 59.1387 36.7109C60.1025 36.7109 60.5811 37.21 60.5811 38.2354V43H62.0508V37.8799C62.0508 36.335 61.1758 35.4326 59.6719 35.4326C58.6396 35.4326 57.7852 35.959 57.4092 36.7588H57.293C56.9648 35.959 56.2607 35.4326 55.2422 35.4326C54.251 35.4326 53.499 35.9248 53.1709 36.7588H53.0615V35.5762H51.6465V43ZM67.9775 35.4463C66.9658 35.4463 66.0908 35.959 65.6396 36.8066H65.5303V35.5762H64.1152V45.4746H65.585V41.8789H65.7012C66.0908 42.665 66.9316 43.123 67.9912 43.123C69.8711 43.123 71.0674 41.6328 71.0674 39.2881C71.0674 36.9297 69.8711 35.4463 67.9775 35.4463ZM67.5605 41.8652C66.3301 41.8652 65.5576 40.874 65.5576 39.2881C65.5576 37.6953 66.3301 36.7041 67.5674 36.7041C68.8115 36.7041 69.5566 37.6748 69.5566 39.2881C69.5566 40.9014 68.8115 41.8652 67.5605 41.8652ZM73.5967 34.25C74.1094 34.25 74.5264 33.833 74.5264 33.3271C74.5264 32.8145 74.1094 32.3975 73.5967 32.3975C73.084 32.3975 72.667 32.8145 72.667 33.3271C72.667 33.833 73.084 34.25 73.5967 34.25ZM72.8652 43H74.3281V35.5762H72.8652V43ZM76.5566 43H78.0264V32.6641H76.5566V43ZM85.1152 41.0107C84.8418 41.6123 84.2334 41.9404 83.3447 41.9404C82.1689 41.9404 81.4102 41.0928 81.3623 39.7461V39.6777H86.6191V39.1719C86.6191 36.8477 85.3682 35.4326 83.2969 35.4326C81.1982 35.4326 79.8652 36.9434 79.8652 39.3018C79.8652 41.6738 81.1709 43.1436 83.3037 43.1436C85.0059 43.1436 86.209 42.3232 86.5303 41.0107H85.1152ZM83.29 36.6289C84.377 36.6289 85.0879 37.415 85.1221 38.6182H81.3623C81.4443 37.4219 82.2031 36.6289 83.29 36.6289ZM88.3828 43H89.8525V38.5635C89.8525 37.5176 90.6387 36.7998 91.7529 36.7998C92.0127 36.7998 92.4502 36.8477 92.5732 36.8818V35.501C92.416 35.4668 92.1357 35.4463 91.917 35.4463C90.9463 35.4463 90.1191 35.9727 89.9072 36.7041H89.7979V35.5762H88.3828V43ZM101.679 35.4463C100.667 35.4463 99.792 35.959 99.3408 36.8066H99.2314V35.5762H97.8164V45.4746H99.2861V41.8789H99.4023C99.792 42.665 100.633 43.123 101.692 43.123C103.572 43.123 104.769 41.6328 104.769 39.2881C104.769 36.9297 103.572 35.4463 101.679 35.4463ZM101.262 41.8652C100.031 41.8652 99.2588 40.874 99.2588 39.2881C99.2588 37.6953 100.031 36.7041 101.269 36.7041C102.513 36.7041 103.258 37.6748 103.258 39.2881C103.258 40.9014 102.513 41.8652 101.262 41.8652ZM108.597 43.123C109.574 43.123 110.388 42.6992 110.832 41.9473H110.948V43H112.363V37.9209C112.363 36.3623 111.311 35.4326 109.444 35.4326C107.756 35.4326 106.553 36.2461 106.402 37.4971H107.824C107.988 36.957 108.556 36.6494 109.376 36.6494C110.381 36.6494 110.9 37.1074 110.9 37.9209V38.5703L108.884 38.6934C107.113 38.8027 106.115 39.5752 106.115 40.9082C106.115 42.2617 107.161 43.123 108.597 43.123ZM108.973 41.9404C108.173 41.9404 107.592 41.5371 107.592 40.8467C107.592 40.1699 108.057 39.8076 109.082 39.7393L110.9 39.6162V40.2588C110.9 41.2158 110.08 41.9404 108.973 41.9404ZM114.975 33.7031V35.5967H113.792V36.7725H114.975V41.0449C114.975 42.4736 115.624 43.0479 117.258 43.0479C117.545 43.0479 117.818 43.0137 118.058 42.9727V41.8037C117.853 41.8242 117.723 41.8379 117.497 41.8379C116.766 41.8379 116.444 41.4893 116.444 40.6895V36.7725H118.058V35.5967H116.444V33.7031H114.975ZM119.855 43H121.325V38.6523C121.325 37.4902 121.995 36.7178 123.198 36.7178C124.237 36.7178 124.791 37.3262 124.791 38.5498V43H126.261V38.2012C126.261 36.4443 125.283 35.4395 123.697 35.4395C122.576 35.4395 121.79 35.9316 121.428 36.7588H121.312V32.6641H119.855V43Z" fill="var(--vscode-foreground)"/>
<rect x="32" y="63" width="310" height="8" rx="4" fill="var(--vscode-tab-unfocusedInactiveForeground, #454545)"/>
<rect x="348" y="63" width="47" height="8" rx="4" fill="var(--vscode-textPreformat-foreground, #D7BA7D"/>
<rect x="401" y="63" width="87" height="8" rx="4" fill="var(--vscode-tab-unfocusedInactiveForeground, #454545)"/>
<rect x="32" y="81" width="101" height="8" rx="4" fill="var(--vscode-tab-unfocusedInactiveForeground, #454545)"/>
<rect x="139" y="81" width="294" height="8" rx="4" fill="var(--vscode-tab-unfocusedInactiveForeground, #454545)"/>
<rect width="460" height="26" transform="translate(32 107)" fill="var(--vscode-settings-textInputBackground)"/>
<path d="M41.209 115.252H42.3223L37.7168 125.113H36.5977L41.209 115.252ZM44.373 121.516V117.449H45.4512V121.516C45.4512 122.105 45.5547 122.539 45.7617 122.816C45.9727 123.094 46.2969 123.232 46.7344 123.232C47.2422 123.232 47.6309 123.055 47.9004 122.699C48.1699 122.34 48.3047 121.826 48.3047 121.158V117.449H49.3887V124H48.3047V123.016C48.1133 123.395 47.8516 123.682 47.5195 123.877C47.1914 124.072 46.8066 124.17 46.3652 124.17C45.6934 124.17 45.1934 123.951 44.8652 123.514C44.5371 123.072 44.373 122.406 44.373 121.516ZM56.1621 117.666V118.721C55.8535 118.541 55.543 118.406 55.2305 118.316C54.918 118.227 54.5996 118.182 54.2754 118.182C53.7871 118.182 53.4219 118.262 53.1797 118.422C52.9414 118.578 52.8223 118.818 52.8223 119.143C52.8223 119.436 52.9121 119.654 53.0918 119.799C53.2715 119.943 53.7188 120.084 54.4336 120.221L54.8672 120.303C55.4023 120.404 55.8066 120.607 56.0801 120.912C56.3574 121.217 56.4961 121.613 56.4961 122.102C56.4961 122.75 56.2656 123.258 55.8047 123.625C55.3438 123.988 54.7031 124.17 53.8828 124.17C53.5586 124.17 53.2188 124.135 52.8633 124.064C52.5078 123.998 52.123 123.896 51.709 123.76V122.646C52.1113 122.854 52.4961 123.01 52.8633 123.115C53.2305 123.217 53.5781 123.268 53.9062 123.268C54.3828 123.268 54.752 123.172 55.0137 122.98C55.2754 122.785 55.4062 122.514 55.4062 122.166C55.4062 121.666 54.9277 121.32 53.9707 121.129L53.9238 121.117L53.5195 121.035C52.8984 120.914 52.4453 120.711 52.1602 120.426C51.875 120.137 51.7324 119.744 51.7324 119.248C51.7324 118.619 51.9453 118.135 52.3711 117.795C52.7969 117.451 53.4043 117.279 54.1934 117.279C54.5449 117.279 54.8828 117.312 55.207 117.379C55.5312 117.441 55.8496 117.537 56.1621 117.666ZM64.459 118.791C64.2285 118.611 63.9941 118.48 63.7559 118.398C63.5176 118.316 63.2559 118.275 62.9707 118.275C62.2988 118.275 61.7852 118.486 61.4297 118.908C61.0742 119.33 60.8965 119.939 60.8965 120.736V124H59.8125V117.438H60.8965V118.721C61.0762 118.256 61.3516 117.9 61.7227 117.654C62.0977 117.404 62.541 117.279 63.0527 117.279C63.3184 117.279 63.5664 117.312 63.7969 117.379C64.0273 117.445 64.248 117.549 64.459 117.689V118.791ZM70.1309 115.252H71.2441L66.6387 125.113H65.5195L70.1309 115.252ZM77.5312 120.725C77.5312 119.889 77.3984 119.258 77.1328 118.832C76.8672 118.406 76.4746 118.193 75.9551 118.193C75.4316 118.193 75.0352 118.408 74.7656 118.838C74.4961 119.264 74.3613 119.893 74.3613 120.725C74.3613 121.553 74.4961 122.182 74.7656 122.611C75.0352 123.041 75.4316 123.256 75.9551 123.256C76.4746 123.256 76.8672 123.043 77.1328 122.617C77.3984 122.191 77.5312 121.561 77.5312 120.725ZM74.3613 118.275C74.5332 117.955 74.7695 117.709 75.0703 117.537C75.375 117.365 75.7266 117.279 76.125 117.279C76.9141 117.279 77.5352 117.584 77.9883 118.193C78.4414 118.799 78.668 119.635 78.668 120.701C78.668 121.783 78.4395 122.633 77.9824 123.25C77.5293 123.863 76.9062 124.17 76.1133 124.17C75.7227 124.17 75.377 124.086 75.0762 123.918C74.7793 123.746 74.541 123.498 74.3613 123.174V124H73.2832V114.883H74.3613V118.275ZM81.2344 117.461H83.9941V123.162H86.1328V124H80.7773V123.162H82.916V118.299H81.2344V117.461ZM82.916 114.912H83.9941V116.271H82.916V114.912ZM92.7715 119.934V124H91.6875V119.934C91.6875 119.344 91.584 118.91 91.377 118.633C91.1699 118.355 90.8457 118.217 90.4043 118.217C89.9004 118.217 89.5117 118.396 89.2383 118.756C88.9688 119.111 88.834 119.623 88.834 120.291V124H87.7559V117.438H88.834V118.422C89.0254 118.047 89.2852 117.764 89.6133 117.572C89.9414 117.377 90.3301 117.279 90.7793 117.279C91.4473 117.279 91.9453 117.5 92.2734 117.941C92.6055 118.379 92.7715 119.043 92.7715 119.934ZM99.0527 115.252H100.166L95.5605 125.113H94.4414L99.0527 115.252ZM106.102 120.666C106.102 119.857 105.969 119.244 105.703 118.826C105.441 118.404 105.059 118.193 104.555 118.193C104.027 118.193 103.625 118.404 103.348 118.826C103.07 119.244 102.932 119.857 102.932 120.666C102.932 121.475 103.07 122.092 103.348 122.518C103.629 122.939 104.035 123.15 104.566 123.15C105.062 123.15 105.441 122.938 105.703 122.512C105.969 122.086 106.102 121.471 106.102 120.666ZM107.18 123.578C107.18 124.562 106.947 125.309 106.482 125.816C106.018 126.324 105.334 126.578 104.432 126.578C104.135 126.578 103.824 126.551 103.5 126.496C103.176 126.441 102.852 126.361 102.527 126.256V125.189C102.91 125.369 103.258 125.502 103.57 125.588C103.883 125.674 104.17 125.717 104.432 125.717C105.014 125.717 105.438 125.559 105.703 125.242C105.969 124.926 106.102 124.424 106.102 123.736V123.689V122.957C105.93 123.324 105.695 123.598 105.398 123.777C105.102 123.957 104.74 124.047 104.314 124.047C103.549 124.047 102.938 123.74 102.48 123.127C102.023 122.514 101.795 121.693 101.795 120.666C101.795 119.635 102.023 118.812 102.48 118.199C102.938 117.586 103.549 117.279 104.314 117.279C104.736 117.279 105.094 117.363 105.387 117.531C105.68 117.699 105.918 117.959 106.102 118.311V117.461H107.18V123.578ZM114.521 123.666C114.232 123.834 113.934 123.959 113.625 124.041C113.32 124.127 113.008 124.17 112.688 124.17C111.672 124.17 110.877 123.865 110.303 123.256C109.732 122.646 109.447 121.803 109.447 120.725C109.447 119.646 109.732 118.803 110.303 118.193C110.877 117.584 111.672 117.279 112.688 117.279C113.004 117.279 113.312 117.32 113.613 117.402C113.914 117.484 114.217 117.611 114.521 117.783V118.914C114.236 118.66 113.949 118.477 113.66 118.363C113.375 118.25 113.051 118.193 112.688 118.193C112.012 118.193 111.492 118.412 111.129 118.85C110.766 119.287 110.584 119.912 110.584 120.725C110.584 121.533 110.766 122.158 111.129 122.6C111.496 123.037 112.016 123.256 112.688 123.256C113.062 123.256 113.398 123.199 113.695 123.086C113.992 122.969 114.268 122.789 114.521 122.547V123.666ZM121.752 123.666C121.463 123.834 121.164 123.959 120.855 124.041C120.551 124.127 120.238 124.17 119.918 124.17C118.902 124.17 118.107 123.865 117.533 123.256C116.963 122.646 116.678 121.803 116.678 120.725C116.678 119.646 116.963 118.803 117.533 118.193C118.107 117.584 118.902 117.279 119.918 117.279C120.234 117.279 120.543 117.32 120.844 117.402C121.145 117.484 121.447 117.611 121.752 117.783V118.914C121.467 118.66 121.18 118.477 120.891 118.363C120.605 118.25 120.281 118.193 119.918 118.193C119.242 118.193 118.723 118.412 118.359 118.85C117.996 119.287 117.814 119.912 117.814 120.725C117.814 121.533 117.996 122.158 118.359 122.6C118.727 123.037 119.246 123.256 119.918 123.256C120.293 123.256 120.629 123.199 120.926 123.086C121.223 122.969 121.498 122.789 121.752 122.547V123.666Z" fill="var(--vscode-menu-foreground)"/>
<path d="M479.984 121.064L484.336 116.712L484.96 117.336L480.288 121.992H479.664L475.008 117.336L475.616 116.712L479.984 121.064Z" fill="var(--vscode-menu-foreground)"/>
<path d="M37.2842 164.239C39.4854 164.239 41.1055 162.975 41.3789 161.054H39.8545C39.5811 162.175 38.5898 162.879 37.2842 162.879C35.5068 162.879 34.3994 161.416 34.3994 159.071C34.3994 156.727 35.5068 155.257 37.2773 155.257C38.5762 155.257 39.5674 156.036 39.8545 157.26H41.3789C41.1328 155.284 39.4512 153.896 37.2773 153.896C34.5361 153.896 32.834 155.879 32.834 159.071C32.834 162.257 34.543 164.239 37.2842 164.239ZM46.3691 164.144C48.543 164.144 49.876 162.688 49.876 160.288C49.876 157.889 48.5361 156.433 46.3691 156.433C44.1953 156.433 42.8555 157.896 42.8555 160.288C42.8555 162.688 44.1885 164.144 46.3691 164.144ZM46.3691 162.893C45.0908 162.893 44.373 161.942 44.373 160.288C44.373 158.634 45.0908 157.677 46.3691 157.677C47.6406 157.677 48.3652 158.634 48.3652 160.288C48.3652 161.936 47.6406 162.893 46.3691 162.893ZM51.6465 164H53.1162V159.44C53.1162 158.47 53.793 157.711 54.6885 157.711C55.5635 157.711 56.124 158.237 56.124 159.085V164H57.5664V159.304C57.5664 158.408 58.1885 157.711 59.1387 157.711C60.1025 157.711 60.5811 158.21 60.5811 159.235V164H62.0508V158.88C62.0508 157.335 61.1758 156.433 59.6719 156.433C58.6396 156.433 57.7852 156.959 57.4092 157.759H57.293C56.9648 156.959 56.2607 156.433 55.2422 156.433C54.251 156.433 53.499 156.925 53.1709 157.759H53.0615V156.576H51.6465V164ZM67.9775 156.446C66.9658 156.446 66.0908 156.959 65.6396 157.807H65.5303V156.576H64.1152V166.475H65.585V162.879H65.7012C66.0908 163.665 66.9316 164.123 67.9912 164.123C69.8711 164.123 71.0674 162.633 71.0674 160.288C71.0674 157.93 69.8711 156.446 67.9775 156.446ZM67.5605 162.865C66.3301 162.865 65.5576 161.874 65.5576 160.288C65.5576 158.695 66.3301 157.704 67.5674 157.704C68.8115 157.704 69.5566 158.675 69.5566 160.288C69.5566 161.901 68.8115 162.865 67.5605 162.865ZM73.5967 155.25C74.1094 155.25 74.5264 154.833 74.5264 154.327C74.5264 153.814 74.1094 153.397 73.5967 153.397C73.084 153.397 72.667 153.814 72.667 154.327C72.667 154.833 73.084 155.25 73.5967 155.25ZM72.8652 164H74.3281V156.576H72.8652V164ZM76.5566 164H78.0264V153.664H76.5566V164ZM85.1152 162.011C84.8418 162.612 84.2334 162.94 83.3447 162.94C82.1689 162.94 81.4102 162.093 81.3623 160.746V160.678H86.6191V160.172C86.6191 157.848 85.3682 156.433 83.2969 156.433C81.1982 156.433 79.8652 157.943 79.8652 160.302C79.8652 162.674 81.1709 164.144 83.3037 164.144C85.0059 164.144 86.209 163.323 86.5303 162.011H85.1152ZM83.29 157.629C84.377 157.629 85.0879 158.415 85.1221 159.618H81.3623C81.4443 158.422 82.2031 157.629 83.29 157.629ZM88.3828 164H89.8525V159.563C89.8525 158.518 90.6387 157.8 91.7529 157.8C92.0127 157.8 92.4502 157.848 92.5732 157.882V156.501C92.416 156.467 92.1357 156.446 91.917 156.446C90.9463 156.446 90.1191 156.973 89.9072 157.704H89.7979V156.576H88.3828V164ZM99.874 164.123C100.852 164.123 101.665 163.699 102.109 162.947H102.226V164H103.641V158.921C103.641 157.362 102.588 156.433 100.722 156.433C99.0332 156.433 97.8301 157.246 97.6797 158.497H99.1016C99.2656 157.957 99.833 157.649 100.653 157.649C101.658 157.649 102.178 158.107 102.178 158.921V159.57L100.161 159.693C98.3906 159.803 97.3926 160.575 97.3926 161.908C97.3926 163.262 98.4385 164.123 99.874 164.123ZM100.25 162.94C99.4502 162.94 98.8691 162.537 98.8691 161.847C98.8691 161.17 99.334 160.808 100.359 160.739L102.178 160.616V161.259C102.178 162.216 101.357 162.94 100.25 162.94ZM105.732 164H107.202V159.563C107.202 158.518 107.988 157.8 109.103 157.8C109.362 157.8 109.8 157.848 109.923 157.882V156.501C109.766 156.467 109.485 156.446 109.267 156.446C108.296 156.446 107.469 156.973 107.257 157.704H107.147V156.576H105.732V164ZM114.284 166.837C116.39 166.837 117.723 165.764 117.723 164.075V156.576H116.314V157.759H116.198C115.781 156.952 114.886 156.446 113.86 156.446C111.96 156.446 110.771 157.943 110.771 160.192C110.771 162.421 111.946 163.891 113.847 163.891C114.872 163.891 115.692 163.446 116.144 162.64H116.253V164.068C116.253 165.073 115.528 165.675 114.305 165.675C113.313 165.675 112.691 165.319 112.568 164.759H111.064C111.222 166.01 112.425 166.837 114.284 166.837ZM114.264 162.674C112.999 162.674 112.288 161.71 112.288 160.192C112.288 158.675 112.999 157.704 114.264 157.704C115.515 157.704 116.28 158.675 116.28 160.192C116.28 161.71 115.521 162.674 114.264 162.674ZM126.131 156.576H124.661V160.931C124.661 162.127 124.012 162.852 122.822 162.852C121.742 162.852 121.257 162.264 121.257 161.033V156.576H119.787V161.396C119.787 163.139 120.703 164.144 122.351 164.144C123.479 164.144 124.237 163.665 124.6 162.824H124.716V164H126.131V156.576ZM128.264 164H129.733V159.44C129.733 158.47 130.41 157.711 131.306 157.711C132.181 157.711 132.741 158.237 132.741 159.085V164H134.184V159.304C134.184 158.408 134.806 157.711 135.756 157.711C136.72 157.711 137.198 158.21 137.198 159.235V164H138.668V158.88C138.668 157.335 137.793 156.433 136.289 156.433C135.257 156.433 134.402 156.959 134.026 157.759H133.91C133.582 156.959 132.878 156.433 131.859 156.433C130.868 156.433 130.116 156.925 129.788 157.759H129.679V156.576H128.264V164ZM145.613 162.011C145.34 162.612 144.731 162.94 143.843 162.94C142.667 162.94 141.908 162.093 141.86 160.746V160.678H147.117V160.172C147.117 157.848 145.866 156.433 143.795 156.433C141.696 156.433 140.363 157.943 140.363 160.302C140.363 162.674 141.669 164.144 143.802 164.144C145.504 164.144 146.707 163.323 147.028 162.011H145.613ZM143.788 157.629C144.875 157.629 145.586 158.415 145.62 159.618H141.86C141.942 158.422 142.701 157.629 143.788 157.629ZM148.881 164H150.351V159.646C150.351 158.449 151.041 157.711 152.128 157.711C153.215 157.711 153.734 158.312 153.734 159.543V164H155.204V159.194C155.204 157.424 154.288 156.433 152.627 156.433C151.506 156.433 150.768 156.932 150.405 157.752H150.296V156.576H148.881V164ZM157.795 154.703V156.597H156.612V157.772H157.795V162.045C157.795 163.474 158.444 164.048 160.078 164.048C160.365 164.048 160.639 164.014 160.878 163.973V162.804C160.673 162.824 160.543 162.838 160.317 162.838C159.586 162.838 159.265 162.489 159.265 161.689V157.772H160.878V156.597H159.265V154.703H157.795ZM162.327 158.654C162.327 159.755 162.983 160.384 164.398 160.712L165.697 161.02C166.442 161.197 166.791 161.498 166.791 161.963C166.791 162.571 166.142 162.995 165.226 162.995C164.337 162.995 163.79 162.633 163.605 162.052H162.136C162.266 163.344 163.421 164.144 165.191 164.144C166.969 164.144 168.274 163.207 168.274 161.826C168.274 160.746 167.611 160.138 166.196 159.81L164.959 159.522C164.152 159.331 163.776 159.044 163.776 158.586C163.776 157.984 164.398 157.581 165.219 157.581C166.053 157.581 166.586 157.943 166.723 158.497H168.131C167.987 157.212 166.894 156.433 165.219 156.433C163.537 156.433 162.327 157.362 162.327 158.654Z" fill="var(--vscode-foreground)"/>
<rect x="32" y="184" width="348" height="8" rx="4" fill="var(--vscode-tab-unfocusedInactiveForeground, #454545)"/>
<rect x="386" y="184" width="47" height="8" rx="4" fill="var(--vscode-textPreformat-foreground, #D7BA7D"/>
<rect x="32" y="210" width="460" height="46" rx="4" fill="var(--vscode-settings-textInputBackground)"/>
<path d="M34.7686 287V277.136H33.2373V287H34.7686ZM37.0723 287H38.542V282.646C38.542 281.449 39.2324 280.711 40.3193 280.711C41.4062 280.711 41.9258 281.312 41.9258 282.543V287H43.3955V282.194C43.3955 280.424 42.4795 279.433 40.8184 279.433C39.6973 279.433 38.959 279.932 38.5967 280.752H38.4873V279.576H37.0723V287ZM45.9863 277.703V279.597H44.8037V280.772H45.9863V285.045C45.9863 286.474 46.6357 287.048 48.2695 287.048C48.5566 287.048 48.8301 287.014 49.0693 286.973V285.804C48.8643 285.824 48.7344 285.838 48.5088 285.838C47.7773 285.838 47.4561 285.489 47.4561 284.689V280.772H49.0693V279.597H47.4561V277.703H45.9863ZM55.5977 285.011C55.3242 285.612 54.7158 285.94 53.8271 285.94C52.6514 285.94 51.8926 285.093 51.8447 283.746V283.678H57.1016V283.172C57.1016 280.848 55.8506 279.433 53.7793 279.433C51.6807 279.433 50.3477 280.943 50.3477 283.302C50.3477 285.674 51.6533 287.144 53.7861 287.144C55.4883 287.144 56.6914 286.323 57.0127 285.011H55.5977ZM53.7725 280.629C54.8594 280.629 55.5703 281.415 55.6045 282.618H51.8447C51.9268 281.422 52.6855 280.629 53.7725 280.629ZM58.9336 287H60.4033V276.664H58.9336V287ZM62.6797 287H64.1494V276.664H62.6797V287ZM67.1162 278.25C67.6289 278.25 68.0459 277.833 68.0459 277.327C68.0459 276.814 67.6289 276.397 67.1162 276.397C66.6035 276.397 66.1865 276.814 66.1865 277.327C66.1865 277.833 66.6035 278.25 67.1162 278.25ZM66.3848 287H67.8477V279.576H66.3848V287ZM69.7139 284.368C69.8232 286.118 71.293 287.239 73.4805 287.239C75.8184 287.239 77.2812 286.063 77.2812 284.197C77.2812 282.721 76.4473 281.907 74.4238 281.422L73.3369 281.155C72.0518 280.841 71.5322 280.431 71.5322 279.713C71.5322 278.79 72.3389 278.195 73.5488 278.195C74.6973 278.195 75.4902 278.77 75.6338 279.706H77.124C77.0352 278.059 75.5723 276.896 73.5693 276.896C71.416 276.896 69.9805 278.059 69.9805 279.795C69.9805 281.23 70.7939 282.078 72.5781 282.509L73.8496 282.816C75.1553 283.131 75.7295 283.609 75.7295 284.382C75.7295 285.284 74.8271 285.934 73.5967 285.934C72.2773 285.934 71.3613 285.325 71.2314 284.368H69.7139ZM84.0078 285.011C83.7344 285.612 83.126 285.94 82.2373 285.94C81.0615 285.94 80.3027 285.093 80.2549 283.746V283.678H85.5117V283.172C85.5117 280.848 84.2607 279.433 82.1895 279.433C80.0908 279.433 78.7578 280.943 78.7578 283.302C78.7578 285.674 80.0635 287.144 82.1963 287.144C83.8984 287.144 85.1016 286.323 85.4229 285.011H84.0078ZM82.1826 280.629C83.2695 280.629 83.9805 281.415 84.0146 282.618H80.2549C80.3369 281.422 81.0957 280.629 82.1826 280.629ZM87.2754 287H88.7451V282.646C88.7451 281.449 89.4355 280.711 90.5225 280.711C91.6094 280.711 92.1289 281.312 92.1289 282.543V287H93.5986V282.194C93.5986 280.424 92.6826 279.433 91.0215 279.433C89.9004 279.433 89.1621 279.932 88.7998 280.752H88.6904V279.576H87.2754V287ZM95.499 281.654C95.499 282.755 96.1553 283.384 97.5703 283.712L98.8691 284.02C99.6143 284.197 99.9629 284.498 99.9629 284.963C99.9629 285.571 99.3135 285.995 98.3975 285.995C97.5088 285.995 96.9619 285.633 96.7773 285.052H95.3076C95.4375 286.344 96.5928 287.144 98.3633 287.144C100.141 287.144 101.446 286.207 101.446 284.826C101.446 283.746 100.783 283.138 99.3682 282.81L98.1309 282.522C97.3242 282.331 96.9482 282.044 96.9482 281.586C96.9482 280.984 97.5703 280.581 98.3906 280.581C99.2246 280.581 99.7578 280.943 99.8945 281.497H101.303C101.159 280.212 100.065 279.433 98.3906 279.433C96.709 279.433 95.499 280.362 95.499 281.654ZM108.098 285.011C107.824 285.612 107.216 285.94 106.327 285.94C105.151 285.94 104.393 285.093 104.345 283.746V283.678H109.602V283.172C109.602 280.848 108.351 279.433 106.279 279.433C104.181 279.433 102.848 280.943 102.848 283.302C102.848 285.674 104.153 287.144 106.286 287.144C107.988 287.144 109.191 286.323 109.513 285.011H108.098ZM106.272 280.629C107.359 280.629 108.07 281.415 108.104 282.618H104.345C104.427 281.422 105.186 280.629 106.272 280.629ZM115.193 287H116.663V282.44C116.663 281.47 117.34 280.711 118.235 280.711C119.11 280.711 119.671 281.237 119.671 282.085V287H121.113V282.304C121.113 281.408 121.735 280.711 122.686 280.711C123.649 280.711 124.128 281.21 124.128 282.235V287H125.598V281.88C125.598 280.335 124.723 279.433 123.219 279.433C122.187 279.433 121.332 279.959 120.956 280.759H120.84C120.512 279.959 119.808 279.433 118.789 279.433C117.798 279.433 117.046 279.925 116.718 280.759H116.608V279.576H115.193V287ZM130.807 287.144C132.98 287.144 134.313 285.688 134.313 283.288C134.313 280.889 132.974 279.433 130.807 279.433C128.633 279.433 127.293 280.896 127.293 283.288C127.293 285.688 128.626 287.144 130.807 287.144ZM130.807 285.893C129.528 285.893 128.811 284.942 128.811 283.288C128.811 281.634 129.528 280.677 130.807 280.677C132.078 280.677 132.803 281.634 132.803 283.288C132.803 284.936 132.078 285.893 130.807 285.893ZM138.805 287.123C139.83 287.123 140.698 286.638 141.143 285.824H141.259V287H142.667V276.664H141.197V280.752H141.088C140.685 279.938 139.823 279.446 138.805 279.446C136.925 279.446 135.715 280.943 135.715 283.281C135.715 285.633 136.911 287.123 138.805 287.123ZM139.222 280.704C140.452 280.704 141.225 281.702 141.225 283.288C141.225 284.888 140.459 285.865 139.222 285.865C137.978 285.865 137.232 284.901 137.232 283.288C137.232 281.682 137.984 280.704 139.222 280.704ZM149.756 285.011C149.482 285.612 148.874 285.94 147.985 285.94C146.81 285.94 146.051 285.093 146.003 283.746V283.678H151.26V283.172C151.26 280.848 150.009 279.433 147.938 279.433C145.839 279.433 144.506 280.943 144.506 283.302C144.506 285.674 145.812 287.144 147.944 287.144C149.646 287.144 150.85 286.323 151.171 285.011H149.756ZM147.931 280.629C149.018 280.629 149.729 281.415 149.763 282.618H146.003C146.085 281.422 146.844 280.629 147.931 280.629Z" fill="var(--vscode-foreground)"/>
<rect x="32" y="307" width="213" height="8" rx="4" fill="var(--vscode-tab-unfocusedInactiveForeground, #454545)"/>
<rect x="251" y="307" width="122" height="8" rx="4" fill="var(--vscode-tab-unfocusedInactiveForeground, #454545)"/>
<rect x="379" y="307" width="43" height="8" rx="4" fill="var(--vscode-tab-unfocusedInactiveForeground, #454545)"/>
<rect x="428" y="307" width="63" height="8" rx="4" fill="var(--vscode-textPreformat-foreground, #D7BA7D"/>
<rect x="32" y="325" width="86" height="8" rx="4" fill="var(--vscode-textPreformat-foreground, #D7BA7D"/>
<rect x="124" y="325" width="200" height="8" rx="4" fill="var(--vscode-tab-unfocusedInactiveForeground, #454545)"/>
<rect x="330" y="325" width="121" height="8" rx="4" fill="var(--vscode-tab-unfocusedInactiveForeground, #454545)"/>
<rect width="460" height="26" transform="translate(32 351)" fill="var(--vscode-settings-textInputBackground)"/>
<path d="M40.2129 365.627C40.2129 366.111 40.3008 366.477 40.4766 366.723C40.6562 366.969 40.9199 367.092 41.2676 367.092H42.5273V368H41.1621C40.5176 368 40.0176 367.795 39.6621 367.385C39.3105 366.971 39.1348 366.385 39.1348 365.627V359.691H37.4062V358.848H40.2129V365.627ZM45.082 361.461H47.8418V367.162H49.9805V368H44.625V367.162H46.7637V362.299H45.082V361.461ZM46.7637 358.912H47.8418V360.271H46.7637V358.912ZM56.6191 363.934V368H55.5352V363.934C55.5352 363.344 55.4316 362.91 55.2246 362.633C55.0176 362.355 54.6934 362.217 54.252 362.217C53.748 362.217 53.3594 362.396 53.0859 362.756C52.8164 363.111 52.6816 363.623 52.6816 364.291V368H51.6035V361.438H52.6816V362.422C52.873 362.047 53.1328 361.764 53.4609 361.572C53.7891 361.377 54.1777 361.279 54.627 361.279C55.2949 361.279 55.793 361.5 56.1211 361.941C56.4531 362.379 56.6191 363.043 56.6191 363.934ZM58.834 365.516V361.449H59.9121V365.516C59.9121 366.105 60.0156 366.539 60.2227 366.816C60.4336 367.094 60.7578 367.232 61.1953 367.232C61.7031 367.232 62.0918 367.055 62.3613 366.699C62.6309 366.34 62.7656 365.826 62.7656 365.158V361.449H63.8496V368H62.7656V367.016C62.5742 367.395 62.3125 367.682 61.9805 367.877C61.6523 368.072 61.2676 368.17 60.8262 368.17C60.1543 368.17 59.6543 367.951 59.3262 367.514C58.998 367.072 58.834 366.406 58.834 365.516ZM71.4727 361.438L69.123 364.578L71.7012 368H70.4531L68.5312 365.369L66.6152 368H65.3672L67.9453 364.578L65.5957 361.438H66.791L68.5312 363.811L70.2598 361.438H71.4727ZM72.75 363.758H78.9609V364.748H72.75V363.758ZM84.4102 364.666C84.4102 363.857 84.2773 363.244 84.0117 362.826C83.75 362.404 83.3672 362.193 82.8633 362.193C82.3359 362.193 81.9336 362.404 81.6562 362.826C81.3789 363.244 81.2402 363.857 81.2402 364.666C81.2402 365.475 81.3789 366.092 81.6562 366.518C81.9375 366.939 82.3438 367.15 82.875 367.15C83.3711 367.15 83.75 366.938 84.0117 366.512C84.2773 366.086 84.4102 365.471 84.4102 364.666ZM85.4883 367.578C85.4883 368.562 85.2559 369.309 84.791 369.816C84.3262 370.324 83.6426 370.578 82.7402 370.578C82.4434 370.578 82.1328 370.551 81.8086 370.496C81.4844 370.441 81.1602 370.361 80.8359 370.256V369.189C81.2188 369.369 81.5664 369.502 81.8789 369.588C82.1914 369.674 82.4785 369.717 82.7402 369.717C83.3223 369.717 83.7461 369.559 84.0117 369.242C84.2773 368.926 84.4102 368.424 84.4102 367.736V367.689V366.957C84.2383 367.324 84.0039 367.598 83.707 367.777C83.4102 367.957 83.0488 368.047 82.623 368.047C81.8574 368.047 81.2461 367.74 80.7891 367.127C80.332 366.514 80.1035 365.693 80.1035 364.666C80.1035 363.635 80.332 362.812 80.7891 362.199C81.2461 361.586 81.8574 361.279 82.623 361.279C83.0449 361.279 83.4023 361.363 83.6953 361.531C83.9883 361.699 84.2266 361.959 84.4102 362.311V361.461H85.4883V367.578ZM92.8301 367.666C92.541 367.834 92.2422 367.959 91.9336 368.041C91.6289 368.127 91.3164 368.17 90.9961 368.17C89.9805 368.17 89.1855 367.865 88.6113 367.256C88.041 366.646 87.7559 365.803 87.7559 364.725C87.7559 363.646 88.041 362.803 88.6113 362.193C89.1855 361.584 89.9805 361.279 90.9961 361.279C91.3125 361.279 91.6211 361.32 91.9219 361.402C92.2227 361.484 92.5254 361.611 92.8301 361.783V362.914C92.5449 362.66 92.2578 362.477 91.9688 362.363C91.6836 362.25 91.3594 362.193 90.9961 362.193C90.3203 362.193 89.8008 362.412 89.4375 362.85C89.0742 363.287 88.8926 363.912 88.8926 364.725C88.8926 365.533 89.0742 366.158 89.4375 366.6C89.8047 367.037 90.3242 367.256 90.9961 367.256C91.3711 367.256 91.707 367.199 92.0039 367.086C92.3008 366.969 92.5762 366.789 92.8301 366.547V367.666ZM100.061 367.666C99.7715 367.834 99.4727 367.959 99.1641 368.041C98.8594 368.127 98.5469 368.17 98.2266 368.17C97.2109 368.17 96.416 367.865 95.8418 367.256C95.2715 366.646 94.9863 365.803 94.9863 364.725C94.9863 363.646 95.2715 362.803 95.8418 362.193C96.416 361.584 97.2109 361.279 98.2266 361.279C98.543 361.279 98.8516 361.32 99.1523 361.402C99.4531 361.484 99.7559 361.611 100.061 361.783V362.914C99.7754 362.66 99.4883 362.477 99.1992 362.363C98.9141 362.25 98.5898 362.193 98.2266 362.193C97.5508 362.193 97.0312 362.412 96.668 362.85C96.3047 363.287 96.123 363.912 96.123 364.725C96.123 365.533 96.3047 366.158 96.668 366.6C97.0352 367.037 97.5547 367.256 98.2266 367.256C98.6016 367.256 98.9375 367.199 99.2344 367.086C99.5312 366.969 99.8066 366.789 100.061 366.547V367.666ZM101.672 363.758H107.883V364.748H101.672V363.758ZM114.855 361.438L112.506 364.578L115.084 368H113.836L111.914 365.369L109.998 368H108.75L111.328 364.578L108.979 361.438H110.174L111.914 363.811L113.643 361.438H114.855ZM121.342 359.445V360.535C121.096 360.391 120.834 360.281 120.557 360.207C120.279 360.129 119.99 360.09 119.689 360.09C118.939 360.09 118.371 360.373 117.984 360.939C117.598 361.502 117.404 362.332 117.404 363.43C117.592 363.039 117.852 362.74 118.184 362.533C118.516 362.322 118.896 362.217 119.326 362.217C120.17 362.217 120.822 362.477 121.283 362.996C121.748 363.512 121.98 364.244 121.98 365.193C121.98 366.139 121.742 366.871 121.266 367.391C120.789 367.91 120.119 368.17 119.256 368.17C118.24 368.17 117.496 367.807 117.023 367.08C116.551 366.35 116.314 365.201 116.314 363.635C116.314 362.158 116.598 361.033 117.164 360.26C117.734 359.482 118.559 359.094 119.637 359.094C119.926 359.094 120.215 359.125 120.504 359.188C120.793 359.246 121.072 359.332 121.342 359.445ZM119.232 363.143C118.729 363.143 118.332 363.324 118.043 363.688C117.754 364.051 117.609 364.553 117.609 365.193C117.609 365.834 117.754 366.336 118.043 366.699C118.332 367.062 118.729 367.244 119.232 367.244C119.756 367.244 120.15 367.072 120.416 366.729C120.682 366.381 120.814 365.869 120.814 365.193C120.814 364.514 120.682 364.002 120.416 363.658C120.15 363.314 119.756 363.143 119.232 363.143ZM127.072 360.33L124.312 364.953H127.072V360.33ZM126.879 359.252H128.25V364.953H129.416V365.914H128.25V368H127.072V365.914H123.363V364.795L126.879 359.252Z" fill="var(--vscode-menu-foreground)"/>
<path d="M479.984 365.064L484.336 360.712L484.96 361.336L480.288 365.992H479.664L475.008 361.336L475.616 360.712L479.984 365.064Z" fill="var(--vscode-menu-foreground)"/>
<path d="M34.7686 408V398.136H33.2373V408H34.7686ZM37.0723 408H38.542V403.646C38.542 402.449 39.2324 401.711 40.3193 401.711C41.4062 401.711 41.9258 402.312 41.9258 403.543V408H43.3955V403.194C43.3955 401.424 42.4795 400.433 40.8184 400.433C39.6973 400.433 38.959 400.932 38.5967 401.752H38.4873V400.576H37.0723V408ZM51.7695 402.962C51.5781 401.52 50.4502 400.433 48.584 400.433C46.417 400.433 45.0977 401.902 45.0977 404.261C45.0977 406.667 46.4238 408.144 48.5908 408.144C50.4297 408.144 51.5781 407.111 51.7695 405.648H50.3408C50.1494 406.455 49.5137 406.893 48.584 406.893C47.3604 406.893 46.6016 405.901 46.6016 404.261C46.6016 402.654 47.3535 401.684 48.584 401.684C49.5684 401.684 50.1699 402.237 50.3408 402.962H51.7695ZM53.5195 408H54.9893V397.664H53.5195V408ZM63.4727 400.576H62.0029V404.931C62.0029 406.127 61.3535 406.852 60.1641 406.852C59.084 406.852 58.5986 406.264 58.5986 405.033V400.576H57.1289V405.396C57.1289 407.139 58.0449 408.144 59.6924 408.144C60.8203 408.144 61.5791 407.665 61.9414 406.824H62.0576V408H63.4727V400.576ZM68.3262 408.123C69.3516 408.123 70.2197 407.638 70.6641 406.824H70.7803V408H72.1885V397.664H70.7188V401.752H70.6094C70.2061 400.938 69.3447 400.446 68.3262 400.446C66.4463 400.446 65.2363 401.943 65.2363 404.281C65.2363 406.633 66.4326 408.123 68.3262 408.123ZM68.7432 401.704C69.9736 401.704 70.7461 402.702 70.7461 404.288C70.7461 405.888 69.9805 406.865 68.7432 406.865C67.499 406.865 66.7539 405.901 66.7539 404.288C66.7539 402.682 67.5059 401.704 68.7432 401.704ZM79.2773 406.011C79.0039 406.612 78.3955 406.94 77.5068 406.94C76.3311 406.94 75.5723 406.093 75.5244 404.746V404.678H80.7812V404.172C80.7812 401.848 79.5303 400.433 77.459 400.433C75.3604 400.433 74.0273 401.943 74.0273 404.302C74.0273 406.674 75.333 408.144 77.4658 408.144C79.168 408.144 80.3711 407.323 80.6924 406.011H79.2773ZM77.4521 401.629C78.5391 401.629 79.25 402.415 79.2842 403.618H75.5244C75.6064 402.422 76.3652 401.629 77.4521 401.629ZM90.2354 400.446C89.2236 400.446 88.3486 400.959 87.8975 401.807H87.7881V400.576H86.373V410.475H87.8428V406.879H87.959C88.3486 407.665 89.1895 408.123 90.249 408.123C92.1289 408.123 93.3252 406.633 93.3252 404.288C93.3252 401.93 92.1289 400.446 90.2354 400.446ZM89.8184 406.865C88.5879 406.865 87.8154 405.874 87.8154 404.288C87.8154 402.695 88.5879 401.704 89.8252 401.704C91.0693 401.704 91.8145 402.675 91.8145 404.288C91.8145 405.901 91.0693 406.865 89.8184 406.865ZM97.1533 408.123C98.1309 408.123 98.9443 407.699 99.3887 406.947H99.5049V408H100.92V402.921C100.92 401.362 99.8672 400.433 98.001 400.433C96.3125 400.433 95.1094 401.246 94.959 402.497H96.3809C96.5449 401.957 97.1123 401.649 97.9326 401.649C98.9375 401.649 99.457 402.107 99.457 402.921V403.57L97.4404 403.693C95.6699 403.803 94.6719 404.575 94.6719 405.908C94.6719 407.262 95.7178 408.123 97.1533 408.123ZM97.5293 406.94C96.7295 406.94 96.1484 406.537 96.1484 405.847C96.1484 405.17 96.6133 404.808 97.6387 404.739L99.457 404.616V405.259C99.457 406.216 98.6367 406.94 97.5293 406.94ZM103.531 398.703V400.597H102.349V401.772H103.531V406.045C103.531 407.474 104.181 408.048 105.814 408.048C106.102 408.048 106.375 408.014 106.614 407.973V406.804C106.409 406.824 106.279 406.838 106.054 406.838C105.322 406.838 105.001 406.489 105.001 405.689V401.772H106.614V400.597H105.001V398.703H103.531ZM108.412 408H109.882V403.652C109.882 402.49 110.552 401.718 111.755 401.718C112.794 401.718 113.348 402.326 113.348 403.55V408H114.817V403.201C114.817 401.444 113.84 400.439 112.254 400.439C111.133 400.439 110.347 400.932 109.984 401.759H109.868V397.664H108.412V408Z" fill="var(--vscode-foreground)"/>
<rect x="32" y="428" width="213" height="8" rx="4" fill="var(--vscode-tab-unfocusedInactiveForeground, #454545)"/>
<rect x="251" y="428" width="122" height="8" rx="4" fill="var(--vscode-textPreformat-foreground, #D7BA7D"/>
<rect x="379" y="428" width="43" height="8" rx="4" fill="var(--vscode-tab-unfocusedInactiveForeground, #454545)"/>
<rect x="428" y="428" width="63" height="8" rx="4" fill="var(--vscode-tab-unfocusedInactiveForeground, #454545)"/>
<rect x="32" y="446" width="43" height="8" rx="4" fill="var(--vscode-textPreformat-foreground, #D7BA7D"/>
<rect x="81" y="446" width="316" height="8" rx="4" fill="var(--vscode-tab-unfocusedInactiveForeground, #454545)"/>
<rect x="403" y="446" width="88" height="8" rx="4" fill="var(--vscode-textPreformat-foreground, #D7BA7D"/>
<rect x="32" y="472" width="460" height="46" rx="4" fill="var(--vscode-settings-textInputBackground)"/>
<path d="M40.0547 485.602V488.145C40.4844 488.133 40.8203 488.014 41.0625 487.787C41.3047 487.561 41.4258 487.252 41.4258 486.861C41.4258 486.498 41.3164 486.217 41.0977 486.018C40.8789 485.814 40.5312 485.676 40.0547 485.602ZM39.4688 484.488V482.068C39.0625 482.084 38.7441 482.201 38.5137 482.42C38.2871 482.639 38.1738 482.932 38.1738 483.299C38.1738 483.635 38.2793 483.9 38.4902 484.096C38.7051 484.291 39.0312 484.422 39.4688 484.488ZM40.0547 490.764H39.4688L39.4629 489C39.0645 488.98 38.668 488.926 38.2734 488.836C37.8828 488.746 37.4961 488.621 37.1133 488.461V487.406C37.5039 487.648 37.8965 487.834 38.291 487.963C38.6895 488.092 39.082 488.16 39.4688 488.168V485.484C38.6875 485.363 38.0996 485.125 37.7051 484.77C37.3105 484.414 37.1133 483.943 37.1133 483.357C37.1133 482.744 37.3184 482.256 37.7285 481.893C38.1426 481.525 38.7227 481.314 39.4688 481.26V479.883H40.0547L40.0605 481.26C40.3691 481.279 40.6816 481.318 40.998 481.377C41.3145 481.436 41.6367 481.516 41.9648 481.617V482.631C41.6328 482.463 41.3086 482.334 40.9922 482.244C40.6797 482.15 40.3672 482.096 40.0547 482.08V484.605C40.8594 484.727 41.4727 484.977 41.8945 485.355C42.3164 485.734 42.5273 486.225 42.5273 486.826C42.5273 487.428 42.2988 487.93 41.8418 488.332C41.3887 488.734 40.7949 488.953 40.0605 488.988L40.0547 490.764ZM49.2773 489.299V490.143H48.9023C47.9297 490.143 47.2773 489.998 46.9453 489.709C46.6172 489.42 46.4531 488.844 46.4531 487.98V486.809C46.4531 486.383 46.332 486.016 46.0898 485.707C45.8516 485.398 45.4805 485.244 44.9766 485.244H44.2617V484.406H44.9766C45.5273 484.406 45.9102 484.275 46.125 484.014C46.3438 483.752 46.4531 483.367 46.4531 482.859V481.336C46.4531 480.473 46.6172 479.898 46.9453 479.613C47.2773 479.324 47.9297 479.18 48.9023 479.18H49.2773V480.018H48.8672C48.3203 480.018 47.9629 480.104 47.7949 480.275C47.6309 480.443 47.5488 480.805 47.5488 481.359V482.93C47.5488 483.617 47.4141 484.08 47.1445 484.318C46.875 484.553 46.3496 484.723 45.5684 484.828C46.3262 484.918 46.8457 485.092 47.127 485.35C47.4082 485.604 47.5488 486.064 47.5488 486.732V487.957C47.5488 488.516 47.6309 488.879 47.7949 489.047C47.9629 489.215 48.3203 489.299 48.8672 489.299H49.2773ZM50.4609 482.438H51.5273L52.6699 487.74L53.6074 484.354H54.5273L55.4766 487.74L56.6191 482.438H57.6855L56.1504 489H55.1191L54.0703 485.402L53.0273 489H51.9961L50.4609 482.438ZM61.3008 483.193C60.7539 483.193 60.3398 483.406 60.0586 483.832C59.7773 484.258 59.6367 484.889 59.6367 485.725C59.6367 486.557 59.7773 487.188 60.0586 487.617C60.3398 488.043 60.7539 488.256 61.3008 488.256C61.8516 488.256 62.2676 488.043 62.5488 487.617C62.8301 487.188 62.9707 486.557 62.9707 485.725C62.9707 484.889 62.8301 484.258 62.5488 483.832C62.2676 483.406 61.8516 483.193 61.3008 483.193ZM61.3008 482.279C62.2109 482.279 62.9062 482.574 63.3867 483.164C63.8711 483.754 64.1133 484.607 64.1133 485.725C64.1133 486.846 63.873 487.701 63.3926 488.291C62.9121 488.877 62.2148 489.17 61.3008 489.17C60.3906 489.17 59.6953 488.877 59.2148 488.291C58.7344 487.701 58.4941 486.846 58.4941 485.725C58.4941 484.607 58.7344 483.754 59.2148 483.164C59.6953 482.574 60.3906 482.279 61.3008 482.279ZM71.6895 483.791C71.459 483.611 71.2246 483.48 70.9863 483.398C70.748 483.316 70.4863 483.275 70.2012 483.275C69.5293 483.275 69.0156 483.486 68.6602 483.908C68.3047 484.33 68.127 484.939 68.127 485.736V489H67.043V482.438H68.127V483.721C68.3066 483.256 68.582 482.9 68.9531 482.654C69.3281 482.404 69.7715 482.279 70.2832 482.279C70.5488 482.279 70.7969 482.312 71.0273 482.379C71.2578 482.445 71.4785 482.549 71.6895 482.689V483.791ZM73.5352 479.883H74.6484V485.162L77.4785 482.438H78.791L76.207 484.91L79.1953 489H77.877L75.4512 485.613L74.6484 486.369V489H73.5352V479.883ZM85.084 482.666V483.721C84.7754 483.541 84.4648 483.406 84.1523 483.316C83.8398 483.227 83.5215 483.182 83.1973 483.182C82.709 483.182 82.3438 483.262 82.1016 483.422C81.8633 483.578 81.7441 483.818 81.7441 484.143C81.7441 484.436 81.834 484.654 82.0137 484.799C82.1934 484.943 82.6406 485.084 83.3555 485.221L83.7891 485.303C84.3242 485.404 84.7285 485.607 85.002 485.912C85.2793 486.217 85.418 486.613 85.418 487.102C85.418 487.75 85.1875 488.258 84.7266 488.625C84.2656 488.988 83.625 489.17 82.8047 489.17C82.4805 489.17 82.1406 489.135 81.7852 489.064C81.4297 488.998 81.0449 488.896 80.6309 488.76V487.646C81.0332 487.854 81.418 488.01 81.7852 488.115C82.1523 488.217 82.5 488.268 82.8281 488.268C83.3047 488.268 83.6738 488.172 83.9355 487.98C84.1973 487.785 84.3281 487.514 84.3281 487.166C84.3281 486.666 83.8496 486.32 82.8926 486.129L82.8457 486.117L82.4414 486.035C81.8203 485.914 81.3672 485.711 81.082 485.426C80.7969 485.137 80.6543 484.744 80.6543 484.248C80.6543 483.619 80.8672 483.135 81.293 482.795C81.7188 482.451 82.3262 482.279 83.1152 482.279C83.4668 482.279 83.8047 482.312 84.1289 482.379C84.4531 482.441 84.7715 482.537 85.084 482.666ZM88.8105 488.174V491.496H87.7266V482.438H88.8105V483.275C88.9902 482.951 89.2285 482.705 89.5254 482.537C89.8262 482.365 90.1719 482.279 90.5625 482.279C91.3555 482.279 91.9766 482.586 92.4258 483.199C92.8789 483.812 93.1055 484.662 93.1055 485.748C93.1055 486.814 92.8789 487.652 92.4258 488.262C91.9727 488.867 91.3516 489.17 90.5625 489.17C90.1641 489.17 89.8145 489.086 89.5137 488.918C89.2168 488.746 88.9824 488.498 88.8105 488.174ZM91.9746 485.725C91.9746 484.889 91.8418 484.258 91.5762 483.832C91.3145 483.406 90.9238 483.193 90.4043 483.193C89.8809 483.193 89.4844 483.408 89.2148 483.838C88.9453 484.264 88.8105 484.893 88.8105 485.725C88.8105 486.553 88.9453 487.182 89.2148 487.611C89.4844 488.041 89.8809 488.256 90.4043 488.256C90.9238 488.256 91.3145 488.043 91.5762 487.617C91.8418 487.191 91.9746 486.561 91.9746 485.725ZM97.957 485.701H97.5996C96.9707 485.701 96.4961 485.812 96.1758 486.035C95.8594 486.254 95.7012 486.582 95.7012 487.02C95.7012 487.414 95.8203 487.721 96.0586 487.939C96.2969 488.158 96.627 488.268 97.0488 488.268C97.6426 488.268 98.1094 488.062 98.4492 487.652C98.7891 487.238 98.9609 486.668 98.9648 485.941V485.701H97.957ZM100.049 485.256V489H98.9648V488.027C98.7344 488.418 98.4434 488.707 98.0918 488.895C97.7441 489.078 97.3203 489.17 96.8203 489.17C96.1523 489.17 95.6191 488.982 95.2207 488.607C94.8223 488.229 94.623 487.723 94.623 487.09C94.623 486.359 94.8672 485.805 95.3555 485.426C95.8477 485.047 96.5684 484.857 97.5176 484.857H98.9648V484.688C98.9609 484.164 98.8281 483.785 98.5664 483.551C98.3047 483.312 97.8867 483.193 97.3125 483.193C96.9453 483.193 96.5742 483.246 96.1992 483.352C95.8242 483.457 95.459 483.611 95.1035 483.814V482.736C95.502 482.584 95.8828 482.471 96.2461 482.396C96.6133 482.318 96.9688 482.279 97.3125 482.279C97.8555 482.279 98.3184 482.359 98.7012 482.52C99.0879 482.68 99.4004 482.92 99.6387 483.24C99.7871 483.436 99.8926 483.678 99.9551 483.967C100.018 484.252 100.049 484.682 100.049 485.256ZM107.291 488.666C107.002 488.834 106.703 488.959 106.395 489.041C106.09 489.127 105.777 489.17 105.457 489.17C104.441 489.17 103.646 488.865 103.072 488.256C102.502 487.646 102.217 486.803 102.217 485.725C102.217 484.646 102.502 483.803 103.072 483.193C103.646 482.584 104.441 482.279 105.457 482.279C105.773 482.279 106.082 482.32 106.383 482.402C106.684 482.484 106.986 482.611 107.291 482.783V483.914C107.006 483.66 106.719 483.477 106.43 483.363C106.145 483.25 105.82 483.193 105.457 483.193C104.781 483.193 104.262 483.412 103.898 483.85C103.535 484.287 103.354 484.912 103.354 485.725C103.354 486.533 103.535 487.158 103.898 487.6C104.266 488.037 104.785 488.256 105.457 488.256C105.832 488.256 106.168 488.199 106.465 488.086C106.762 487.969 107.037 487.789 107.291 487.547V488.666ZM114.867 485.18V485.707H110.197V485.742C110.166 486.637 110.336 487.279 110.707 487.67C111.082 488.061 111.609 488.256 112.289 488.256C112.633 488.256 112.992 488.201 113.367 488.092C113.742 487.982 114.143 487.816 114.568 487.594V488.666C114.158 488.834 113.762 488.959 113.379 489.041C113 489.127 112.633 489.17 112.277 489.17C111.258 489.17 110.461 488.865 109.887 488.256C109.312 487.643 109.025 486.799 109.025 485.725C109.025 484.678 109.307 483.842 109.869 483.217C110.432 482.592 111.182 482.279 112.119 482.279C112.955 482.279 113.613 482.562 114.094 483.129C114.578 483.695 114.836 484.379 114.867 485.18ZM113.789 484.863C113.742 484.41 113.576 484.02 113.291 483.691C113.01 483.359 112.604 483.193 112.072 483.193C111.553 483.193 111.125 483.365 110.789 483.709C110.453 484.053 110.27 484.439 110.238 484.869L113.789 484.863ZM116.9 480.252H122.051V481.248H118.09V483.592H121.682V484.588H118.09V489H116.9V480.252ZM126.375 483.193C125.828 483.193 125.414 483.406 125.133 483.832C124.852 484.258 124.711 484.889 124.711 485.725C124.711 486.557 124.852 487.188 125.133 487.617C125.414 488.043 125.828 488.256 126.375 488.256C126.926 488.256 127.342 488.043 127.623 487.617C127.904 487.188 128.045 486.557 128.045 485.725C128.045 484.889 127.904 484.258 127.623 483.832C127.342 483.406 126.926 483.193 126.375 483.193ZM126.375 482.279C127.285 482.279 127.98 482.574 128.461 483.164C128.945 483.754 129.188 484.607 129.188 485.725C129.188 486.846 128.947 487.701 128.467 488.291C127.986 488.877 127.289 489.17 126.375 489.17C125.465 489.17 124.77 488.877 124.289 488.291C123.809 487.701 123.568 486.846 123.568 485.725C123.568 484.607 123.809 483.754 124.289 483.164C124.77 482.574 125.465 482.279 126.375 482.279ZM134.209 486.627C134.209 487.111 134.297 487.477 134.473 487.723C134.652 487.969 134.916 488.092 135.264 488.092H136.523V489H135.158C134.514 489 134.014 488.795 133.658 488.385C133.307 487.971 133.131 487.385 133.131 486.627V480.691H131.402V479.848H134.209V486.627ZM142.254 483.275V479.883H143.332V489H142.254V488.174C142.074 488.498 141.834 488.746 141.533 488.918C141.236 489.086 140.893 489.17 140.502 489.17C139.709 489.17 139.084 488.863 138.627 488.25C138.174 487.633 137.947 486.783 137.947 485.701C137.947 484.635 138.176 483.799 138.633 483.193C139.09 482.584 139.713 482.279 140.502 482.279C140.896 482.279 141.244 482.365 141.545 482.537C141.846 482.705 142.082 482.951 142.254 483.275ZM139.084 485.725C139.084 486.561 139.217 487.191 139.482 487.617C139.748 488.043 140.141 488.256 140.66 488.256C141.18 488.256 141.574 488.041 141.844 487.611C142.117 487.182 142.254 486.553 142.254 485.725C142.254 484.893 142.117 484.264 141.844 483.838C141.574 483.408 141.18 483.193 140.66 483.193C140.141 483.193 139.748 483.406 139.482 483.832C139.217 484.258 139.084 484.889 139.084 485.725ZM151.02 485.18V485.707H146.35V485.742C146.318 486.637 146.488 487.279 146.859 487.67C147.234 488.061 147.762 488.256 148.441 488.256C148.785 488.256 149.145 488.201 149.52 488.092C149.895 487.982 150.295 487.816 150.721 487.594V488.666C150.311 488.834 149.914 488.959 149.531 489.041C149.152 489.127 148.785 489.17 148.43 489.17C147.41 489.17 146.613 488.865 146.039 488.256C145.465 487.643 145.178 486.799 145.178 485.725C145.178 484.678 145.459 483.842 146.021 483.217C146.584 482.592 147.334 482.279 148.271 482.279C149.107 482.279 149.766 482.562 150.246 483.129C150.73 483.695 150.988 484.379 151.02 485.18ZM149.941 484.863C149.895 484.41 149.729 484.02 149.443 483.691C149.162 483.359 148.756 483.193 148.225 483.193C147.705 483.193 147.277 483.365 146.941 483.709C146.605 484.053 146.422 484.439 146.391 484.869L149.941 484.863ZM158.455 483.791C158.225 483.611 157.99 483.48 157.752 483.398C157.514 483.316 157.252 483.275 156.967 483.275C156.295 483.275 155.781 483.486 155.426 483.908C155.07 484.33 154.893 484.939 154.893 485.736V489H153.809V482.438H154.893V483.721C155.072 483.256 155.348 482.9 155.719 482.654C156.094 482.404 156.537 482.279 157.049 482.279C157.314 482.279 157.562 482.312 157.793 482.379C158.023 482.445 158.244 482.549 158.455 482.689V483.791ZM160.611 489.299C161.158 489.299 161.514 489.215 161.678 489.047C161.846 488.879 161.93 488.516 161.93 487.957V486.732C161.93 486.064 162.07 485.604 162.352 485.35C162.633 485.092 163.152 484.918 163.91 484.828C163.129 484.723 162.604 484.553 162.334 484.318C162.064 484.08 161.93 483.617 161.93 482.93V481.359C161.93 480.805 161.846 480.443 161.678 480.275C161.514 480.104 161.158 480.018 160.611 480.018H160.201V479.18H160.576C161.549 479.18 162.199 479.324 162.527 479.613C162.859 479.898 163.025 480.473 163.025 481.336V482.859C163.025 483.367 163.133 483.752 163.348 484.014C163.566 484.275 163.951 484.406 164.502 484.406H165.217V485.244H164.502C163.998 485.244 163.625 485.398 163.383 485.707C163.145 486.016 163.025 486.383 163.025 486.809V487.98C163.025 488.844 162.859 489.42 162.527 489.709C162.199 489.998 161.549 490.143 160.576 490.143H160.201V489.299H160.611ZM171.357 480.252H172.471L167.865 490.113H166.746L171.357 480.252ZM180.287 483.896L177.686 485.303L180.287 486.715L179.877 487.43L177.428 485.959V488.689H176.59V485.959L174.141 487.43L173.73 486.715L176.338 485.303L173.73 483.896L174.141 483.176L176.59 484.646V481.916H177.428V484.646L179.877 483.176L180.287 483.896ZM187.518 483.896L184.916 485.303L187.518 486.715L187.107 487.43L184.658 485.959V488.689H183.82V485.959L181.371 487.43L180.961 486.715L183.568 485.303L180.961 483.896L181.371 483.176L183.82 484.646V481.916H184.658V484.646L187.107 483.176L187.518 483.896Z" fill="var(--vscode-menu-foreground)"/>
</g>
<defs>
<filter id="filter0_d_13_7872" x="0" y="0" width="550" height="552" filterUnits="userSpaceOnUse" color-interpolation-filters="sRGB">
<feFlood flood-opacity="0" result="BackgroundImageFix"/>
<feColorMatrix in="SourceAlpha" type="matrix" values="0 0 0 0 0 0 0 0 0 0 0 0 0 0 0 0 0 0 127 0" result="hardAlpha"/>
<feOffset dy="2"/>
<feGaussianBlur stdDeviation="6"/>
<feColorMatrix type="matrix" values="0 0 0 0 0 0 0 0 0 0 0 0 0 0 0 0 0 0 0.6 0"/>
<feBlend mode="normal" in2="BackgroundImageFix" result="effect1_dropShadow_13_7872"/>
<feBlend mode="normal" in="SourceGraphic" in2="effect1_dropShadow_13_7872" result="shape"/>
</filter>
</defs>
</svg>
