<svg width="504" height="331" viewBox="0 0 504 331" fill="none" xmlns="http://www.w3.org/2000/svg">
  <g>
    <g>
      <rect width="502" height="39" transform="translate(1 1)" fill="var(--vscode-editorGroupHeader-tabsBackground, #252526)" />
      <g clip-path="url(#clip0_507_8520)">
        <g>
          <rect width="170.931" height="39.2998" transform="translate(1 1)" fill="var(--vscode-tab-activeBackground, #1E1E1E)" />
          <path d="M19.6542 20.3299C19.6542 19.5432 19.7808 18.8366 20.0342 18.2099C20.2875 17.5832 20.6142 17.0699 21.0142 16.6699C21.4275 16.2566 21.9342 15.9166 22.5342 15.6499C23.0008 15.4366 23.6075 15.3299 24.3542 15.3299C24.9808 15.3299 25.5408 15.4566 26.0342 15.7099C26.5408 15.9632 26.9608 16.2566 27.2942 16.5899L25.9142 18.1499L25.7542 18.0299C25.5275 17.8566 25.3542 17.7499 25.2342 17.7099L25.0142 17.6499C24.7475 17.5699 24.5275 17.5299 24.3542 17.5299C24.0608 17.5299 23.7875 17.5899 23.5342 17.7099C23.2542 17.8566 23.0275 18.0499 22.8542 18.2899C22.6808 18.5166 22.5342 18.8099 22.4142 19.1699C22.2942 19.5299 22.2342 19.9166 22.2342 20.3299C22.2342 21.2899 22.4408 21.9766 22.8542 22.3899C23.0675 22.6566 23.3075 22.8499 23.5742 22.9699C23.8408 23.0899 24.1408 23.1499 24.4742 23.1499C24.8075 23.1499 25.1008 23.0899 25.3542 22.9699C25.6342 22.8232 25.8608 22.6299 26.0342 22.3899L27.4142 23.9699C27.0275 24.4099 26.5675 24.7632 26.0342 25.0299C25.5408 25.2699 24.9808 25.3899 24.3542 25.3899C23.7675 25.3899 23.1608 25.2899 22.5342 25.0899C21.9742 24.9032 21.4742 24.5899 21.0342 24.1499C20.8475 23.9499 20.6675 23.6899 20.4942 23.3699C20.4008 23.1832 20.2675 22.8832 20.0942 22.4699C19.8008 21.8832 19.6542 21.1699 19.6542 20.3299ZM25.8542 18.7099H24.9742V19.7699H23.9742V20.6499H24.9742V21.7699H25.8542V20.6499H26.8542V19.7699H25.8542V18.7099ZM29.5942 19.7099V18.4699H28.5342V19.7099H27.3542V20.7699H28.5342V22.0899H29.5942V20.7699H30.7942V19.7099H29.5942Z" fill="#519ABA" />
          <path d="M40.0193 25.6499H41.384V21.6128C41.384 20.5337 42.0061 19.8164 43.1233 19.8164C44.0881 19.8164 44.6023 20.3813 44.6023 21.5176V25.6499H45.967V21.1938C45.967 19.5625 45.0593 18.6294 43.5867 18.6294C42.5457 18.6294 41.8157 19.0864 41.4792 19.8545H41.3713V16.0522H40.0193V25.6499ZM52.4226 23.8027C52.1687 24.3613 51.6038 24.666 50.7786 24.666C49.6868 24.666 48.9822 23.8789 48.9377 22.6284V22.5649H53.8191V22.0952C53.8191 19.937 52.6575 18.623 50.7341 18.623C48.7854 18.623 47.5476 20.0259 47.5476 22.2158C47.5476 24.4185 48.76 25.7832 50.7405 25.7832C52.321 25.7832 53.4382 25.0215 53.7366 23.8027H52.4226ZM50.7278 19.7339C51.7371 19.7339 52.3972 20.4639 52.429 21.5811H48.9377C49.0139 20.4702 49.7185 19.7339 50.7278 19.7339ZM55.5203 25.6499H56.885V16.0522H55.5203V25.6499ZM58.9988 25.6499H60.3635V16.0522H58.9988V25.6499ZM65.3337 25.7832C67.3523 25.7832 68.5901 24.4312 68.5901 22.2031C68.5901 19.9751 67.3459 18.623 65.3337 18.623C63.3152 18.623 62.071 19.9814 62.071 22.2031C62.071 24.4312 63.3088 25.7832 65.3337 25.7832ZM65.3337 24.6216C64.1467 24.6216 63.4802 23.7393 63.4802 22.2031C63.4802 20.667 64.1467 19.7783 65.3337 19.7783C66.5144 19.7783 67.1873 20.667 67.1873 22.2031C67.1873 23.7329 66.5144 24.6216 65.3337 24.6216ZM74.4236 22.5903V21.3271H70.2595V22.5903H74.4236ZM85.2654 18.7563H83.9006L82.6692 24.0757H82.5613L81.1394 18.7563H79.8318L78.4099 24.0757H78.3083L77.0706 18.7563H75.6868L77.5911 25.6499H78.9939L80.4158 20.5083H80.5237L81.9519 25.6499H83.3674L85.2654 18.7563ZM89.3279 25.7832C91.3464 25.7832 92.5842 24.4312 92.5842 22.2031C92.5842 19.9751 91.3401 18.623 89.3279 18.623C87.3093 18.623 86.0652 19.9814 86.0652 22.2031C86.0652 24.4312 87.303 25.7832 89.3279 25.7832ZM89.3279 24.6216C88.1409 24.6216 87.4744 23.7393 87.4744 22.2031C87.4744 20.667 88.1409 19.7783 89.3279 19.7783C90.5085 19.7783 91.1814 20.667 91.1814 22.2031C91.1814 23.7329 90.5085 24.6216 89.3279 24.6216ZM94.2283 25.6499H95.593V21.5303C95.593 20.5591 96.323 19.8926 97.3577 19.8926C97.5989 19.8926 98.0051 19.937 98.1194 19.9688V18.6865C97.9734 18.6548 97.7131 18.6357 97.51 18.6357C96.6086 18.6357 95.8406 19.1245 95.6438 19.8037H95.5422V18.7563H94.2283V25.6499ZM99.4968 25.6499H100.862V16.0522H99.4968V25.6499ZM105.438 25.7642C106.39 25.7642 107.197 25.3135 107.609 24.5581H107.717V25.6499H109.025V16.0522H107.66V19.8481H107.558C107.184 19.0928 106.384 18.6357 105.438 18.6357C103.693 18.6357 102.569 20.0259 102.569 22.1968C102.569 24.3804 103.68 25.7642 105.438 25.7642ZM105.825 19.8037C106.968 19.8037 107.685 20.7305 107.685 22.2031C107.685 23.6885 106.974 24.5962 105.825 24.5962C104.67 24.5962 103.978 23.7012 103.978 22.2031C103.978 20.7114 104.677 19.8037 105.825 19.8037ZM112.135 25.7451C112.675 25.7451 113.068 25.3452 113.068 24.8311C113.068 24.3169 112.675 23.917 112.135 23.917C111.602 23.917 111.202 24.3169 111.202 24.8311C111.202 25.3452 111.602 25.7451 112.135 25.7451ZM120.774 20.9717C120.596 19.6323 119.549 18.623 117.816 18.623C115.804 18.623 114.579 19.9878 114.579 22.1777C114.579 24.4121 115.81 25.7832 117.823 25.7832C119.53 25.7832 120.596 24.8247 120.774 23.4663H119.448C119.27 24.2153 118.679 24.6216 117.816 24.6216C116.68 24.6216 115.975 23.7012 115.975 22.1777C115.975 20.686 116.674 19.7847 117.816 19.7847C118.73 19.7847 119.289 20.2988 119.448 20.9717H120.774ZM125.922 18.6357C124.983 18.6357 124.17 19.1118 123.751 19.8989H123.65V18.7563H122.336V27.9478H123.7V24.6089H123.808C124.17 25.3389 124.951 25.7642 125.935 25.7642C127.68 25.7642 128.791 24.3804 128.791 22.2031C128.791 20.0132 127.68 18.6357 125.922 18.6357ZM125.535 24.5962C124.392 24.5962 123.675 23.6758 123.675 22.2031C123.675 20.7241 124.392 19.8037 125.541 19.8037C126.697 19.8037 127.388 20.7051 127.388 22.2031C127.388 23.7012 126.697 24.5962 125.535 24.5962ZM134.022 18.6357C133.082 18.6357 132.27 19.1118 131.851 19.8989H131.749V18.7563H130.435V27.9478H131.8V24.6089H131.908C132.27 25.3389 133.051 25.7642 134.034 25.7642C135.78 25.7642 136.891 24.3804 136.891 22.2031C136.891 20.0132 135.78 18.6357 134.022 18.6357ZM133.635 24.5962C132.492 24.5962 131.775 23.6758 131.775 22.2031C131.775 20.7241 132.492 19.8037 133.641 19.8037C134.796 19.8037 135.488 20.7051 135.488 22.2031C135.488 23.7012 134.796 24.5962 133.635 24.5962Z" fill="var(--vscode-tab-activeForeground, #FFFFFF)" />
          <path d="M150.457 21.3432L154.084 25.0232L154.83 24.2766L151.15 20.6499L154.83 17.0232L154.084 16.2766L150.457 19.9566L146.83 16.2766L146.084 17.0232L149.764 20.6499L146.084 24.2766L146.83 25.0232L150.457 21.3432Z" fill="var(--vscode-icon-foreground, #CCCCCC)" />
        </g>
      </g>
    </g>
    <g>
      <path d="M1 40H503V327C503 328.105 502.105 329 501 329H3.00002C1.89545 329 1 328.105 1 327V40Z" fill="var(--vscode-editor-background, #252526)" />
      <rect x="25" y="64" width="158" height="8" rx="4" fill="#B180D7" />
      <rect x="25" y="83" width="158" height="8" rx="4" fill="#B180D7" />
      <g>
        <rect x="25" y="276" width="273" height="8" rx="4" fill="#B180D7" />
        <rect x="318" y="276" width="98" height="8" rx="4" fill="#D7BA7D" />
      </g>
      <rect x="196" y="64" width="150" height="8" rx="4" fill="#8ADDFF" />
      <rect x="196" y="83" width="213" height="8" rx="4" fill="#8ADDFF" />
      <g>
        <path d="M29.0078 126.416L28.4805 128.49H29.916L30.4492 126.416H31.3867L30.8535 128.49H32.2832V129.387H30.6367L30.0625 131.689H31.5273V132.586H29.834L29.2246 135H28.2871L28.9023 132.586H27.4609L26.8457 135H25.9141L26.5234 132.586H25.0117V131.689H26.752L27.3262 129.387H25.7676V128.49H27.543L28.0703 126.416H29.0078ZM29.6992 129.387H28.2637L27.6895 131.689H29.1309L29.6992 129.387ZM34.082 128.461H36.8418V134.162H38.9805V135H33.625V134.162H35.7637V129.299H34.082V128.461ZM35.7637 125.912H36.8418V127.271H35.7637V125.912ZM45.6191 130.934V135H44.5352V130.934C44.5352 130.344 44.4316 129.91 44.2246 129.633C44.0176 129.355 43.6934 129.217 43.252 129.217C42.748 129.217 42.3594 129.396 42.0859 129.756C41.8164 130.111 41.6816 130.623 41.6816 131.291V135H40.6035V128.438H41.6816V129.422C41.873 129.047 42.1328 128.764 42.4609 128.572C42.7891 128.377 43.1777 128.279 43.627 128.279C44.2949 128.279 44.793 128.5 45.1211 128.941C45.4531 129.379 45.6191 130.043 45.6191 130.934ZM52.9082 134.666C52.6191 134.834 52.3203 134.959 52.0117 135.041C51.707 135.127 51.3945 135.17 51.0742 135.17C50.0586 135.17 49.2637 134.865 48.6895 134.256C48.1191 133.646 47.834 132.803 47.834 131.725C47.834 130.646 48.1191 129.803 48.6895 129.193C49.2637 128.584 50.0586 128.279 51.0742 128.279C51.3906 128.279 51.6992 128.32 52 128.402C52.3008 128.484 52.6035 128.611 52.9082 128.783V129.914C52.623 129.66 52.3359 129.477 52.0469 129.363C51.7617 129.25 51.4375 129.193 51.0742 129.193C50.3984 129.193 49.8789 129.412 49.5156 129.85C49.1523 130.287 48.9707 130.912 48.9707 131.725C48.9707 132.533 49.1523 133.158 49.5156 133.6C49.8828 134.037 50.4023 134.256 51.0742 134.256C51.4492 134.256 51.7852 134.199 52.082 134.086C52.3789 133.969 52.6543 133.789 52.9082 133.547V134.666ZM58.1348 132.627C58.1348 133.111 58.2227 133.477 58.3984 133.723C58.5781 133.969 58.8418 134.092 59.1895 134.092H60.4492V135H59.084C58.4395 135 57.9395 134.795 57.584 134.385C57.2324 133.971 57.0566 133.385 57.0566 132.627V126.691H55.3281V125.848H58.1348V132.627ZM62.2949 132.516V128.449H63.373V132.516C63.373 133.105 63.4766 133.539 63.6836 133.816C63.8945 134.094 64.2188 134.232 64.6562 134.232C65.1641 134.232 65.5527 134.055 65.8223 133.699C66.0918 133.34 66.2266 132.826 66.2266 132.158V128.449H67.3105V135H66.2266V134.016C66.0352 134.395 65.7734 134.682 65.4414 134.877C65.1133 135.072 64.7285 135.17 64.2871 135.17C63.6152 135.17 63.1152 134.951 62.7871 134.514C62.459 134.072 62.2949 133.406 62.2949 132.516ZM73.4102 129.275V125.883H74.4883V135H73.4102V134.174C73.2305 134.498 72.9902 134.746 72.6895 134.918C72.3926 135.086 72.0488 135.17 71.6582 135.17C70.8652 135.17 70.2402 134.863 69.7832 134.25C69.3301 133.633 69.1035 132.783 69.1035 131.701C69.1035 130.635 69.332 129.799 69.7891 129.193C70.2461 128.584 70.8691 128.279 71.6582 128.279C72.0527 128.279 72.4004 128.365 72.7012 128.537C73.002 128.705 73.2383 128.951 73.4102 129.275ZM70.2402 131.725C70.2402 132.561 70.373 133.191 70.6387 133.617C70.9043 134.043 71.2969 134.256 71.8164 134.256C72.3359 134.256 72.7305 134.041 73 133.611C73.2734 133.182 73.4102 132.553 73.4102 131.725C73.4102 130.893 73.2734 130.264 73 129.838C72.7305 129.408 72.3359 129.193 71.8164 129.193C71.2969 129.193 70.9043 129.406 70.6387 129.832C70.373 130.258 70.2402 130.889 70.2402 131.725ZM82.1758 131.18V131.707H77.5059V131.742C77.4746 132.637 77.6445 133.279 78.0156 133.67C78.3906 134.061 78.918 134.256 79.5977 134.256C79.9414 134.256 80.3008 134.201 80.6758 134.092C81.0508 133.982 81.4512 133.816 81.877 133.594V134.666C81.4668 134.834 81.0703 134.959 80.6875 135.041C80.3086 135.127 79.9414 135.17 79.5859 135.17C78.5664 135.17 77.7695 134.865 77.1953 134.256C76.6211 133.643 76.334 132.799 76.334 131.725C76.334 130.678 76.6152 129.842 77.1777 129.217C77.7402 128.592 78.4902 128.279 79.4277 128.279C80.2637 128.279 80.9219 128.562 81.4023 129.129C81.8867 129.695 82.1445 130.379 82.1758 131.18ZM81.0977 130.863C81.0508 130.41 80.8848 130.02 80.5996 129.691C80.3184 129.359 79.9121 129.193 79.3809 129.193C78.8613 129.193 78.4336 129.365 78.0977 129.709C77.7617 130.053 77.5781 130.439 77.5469 130.869L81.0977 130.863ZM46.2285 201.791C45.998 201.611 45.7637 201.48 45.5254 201.398C45.2871 201.316 45.0254 201.275 44.7402 201.275C44.0684 201.275 43.5547 201.486 43.1992 201.908C42.8438 202.33 42.666 202.939 42.666 203.736V207H41.582V200.438H42.666V201.721C42.8457 201.256 43.1211 200.9 43.4922 200.654C43.8672 200.404 44.3105 200.279 44.8223 200.279C45.0879 200.279 45.3359 200.312 45.5664 200.379C45.7969 200.445 46.0176 200.549 46.2285 200.689V201.791ZM53.2539 203.18V203.707H48.584V203.742C48.5527 204.637 48.7227 205.279 49.0938 205.67C49.4688 206.061 49.9961 206.256 50.6758 206.256C51.0195 206.256 51.3789 206.201 51.7539 206.092C52.1289 205.982 52.5293 205.816 52.9551 205.594V206.666C52.5449 206.834 52.1484 206.959 51.7656 207.041C51.3867 207.127 51.0195 207.17 50.6641 207.17C49.6445 207.17 48.8477 206.865 48.2734 206.256C47.6992 205.643 47.4121 204.799 47.4121 203.725C47.4121 202.678 47.6934 201.842 48.2559 201.217C48.8184 200.592 49.5684 200.279 50.5059 200.279C51.3418 200.279 52 200.562 52.4805 201.129C52.9648 201.695 53.2227 202.379 53.2539 203.18ZM52.1758 202.863C52.1289 202.41 51.9629 202.02 51.6777 201.691C51.3965 201.359 50.9902 201.193 50.459 201.193C49.9395 201.193 49.5117 201.365 49.1758 201.709C48.8398 202.053 48.6562 202.439 48.625 202.869L52.1758 202.863ZM57.5195 198.574V200.438H59.9688V201.275H57.5195V204.838C57.5195 205.322 57.6113 205.66 57.7949 205.852C57.9785 206.043 58.2988 206.139 58.7559 206.139H59.9688V207H58.6504C57.8418 207 57.2715 206.838 56.9395 206.514C56.6074 206.189 56.4414 205.631 56.4414 204.838V201.275H54.6895V200.438H56.4414V198.574H57.5195ZM62.2949 204.516V200.449H63.373V204.516C63.373 205.105 63.4766 205.539 63.6836 205.816C63.8945 206.094 64.2188 206.232 64.6562 206.232C65.1641 206.232 65.5527 206.055 65.8223 205.699C66.0918 205.34 66.2266 204.826 66.2266 204.158V200.449H67.3105V207H66.2266V206.016C66.0352 206.395 65.7734 206.682 65.4414 206.877C65.1133 207.072 64.7285 207.17 64.2871 207.17C63.6152 207.17 63.1152 206.951 62.7871 206.514C62.459 206.072 62.2949 205.406 62.2949 204.516ZM75.1504 201.791C74.9199 201.611 74.6855 201.48 74.4473 201.398C74.209 201.316 73.9473 201.275 73.6621 201.275C72.9902 201.275 72.4766 201.486 72.1211 201.908C71.7656 202.33 71.5879 202.939 71.5879 203.736V207H70.5039V200.438H71.5879V201.721C71.7676 201.256 72.043 200.9 72.4141 200.654C72.7891 200.404 73.2324 200.279 73.7441 200.279C74.0098 200.279 74.2578 200.312 74.4883 200.379C74.7188 200.445 74.9395 200.549 75.1504 200.689V201.791ZM81.7715 202.934V207H80.6875V202.934C80.6875 202.344 80.584 201.91 80.377 201.633C80.1699 201.355 79.8457 201.217 79.4043 201.217C78.9004 201.217 78.5117 201.396 78.2383 201.756C77.9688 202.111 77.834 202.623 77.834 203.291V207H76.7559V200.438H77.834V201.422C78.0254 201.047 78.2852 200.764 78.6133 200.572C78.9414 200.377 79.3301 200.279 79.7793 200.279C80.4473 200.279 80.9453 200.5 81.2734 200.941C81.6055 201.379 81.7715 202.043 81.7715 202.934Z" fill="#C586C0" />
        <path d="M26.8516 164.461H29.6113V170.162H31.75V171H26.3945V170.162H28.5332V165.299H26.8516V164.461ZM28.5332 161.912H29.6113V163.271H28.5332V161.912ZM38.3887 166.934V171H37.3047V166.934C37.3047 166.344 37.2012 165.91 36.9941 165.633C36.7871 165.355 36.4629 165.217 36.0215 165.217C35.5176 165.217 35.1289 165.396 34.8555 165.756C34.5859 166.111 34.4512 166.623 34.4512 167.291V171H33.373V164.438H34.4512V165.422C34.6426 165.047 34.9023 164.764 35.2305 164.572C35.5586 164.377 35.9473 164.279 36.3965 164.279C37.0645 164.279 37.5625 164.5 37.8906 164.941C38.2227 165.379 38.3887 166.043 38.3887 166.934ZM43.0586 162.574V164.438H45.5078V165.275H43.0586V168.838C43.0586 169.322 43.1504 169.66 43.334 169.852C43.5176 170.043 43.8379 170.139 44.2949 170.139H45.5078V171H44.1895C43.3809 171 42.8105 170.838 42.4785 170.514C42.1465 170.189 41.9805 169.631 41.9805 168.838V165.275H40.2285V164.438H41.9805V162.574H43.0586Z" fill="#569CD6" />
        <path d="M96.7832 129.369L91.8027 131.244L96.7832 133.102V134.174L90.5898 131.725V130.752L96.7832 128.303V129.369ZM99.1562 128.461H101.916V134.162H104.055V135H98.6992V134.162H100.838V129.299H99.1562V128.461ZM100.838 125.912H101.916V127.271H100.838V125.912ZM108.145 129.193C107.598 129.193 107.184 129.406 106.902 129.832C106.621 130.258 106.48 130.889 106.48 131.725C106.48 132.557 106.621 133.188 106.902 133.617C107.184 134.043 107.598 134.256 108.145 134.256C108.695 134.256 109.111 134.043 109.393 133.617C109.674 133.188 109.814 132.557 109.814 131.725C109.814 130.889 109.674 130.258 109.393 129.832C109.111 129.406 108.695 129.193 108.145 129.193ZM108.145 128.279C109.055 128.279 109.75 128.574 110.23 129.164C110.715 129.754 110.957 130.607 110.957 131.725C110.957 132.846 110.717 133.701 110.236 134.291C109.756 134.877 109.059 135.17 108.145 135.17C107.234 135.17 106.539 134.877 106.059 134.291C105.578 133.701 105.338 132.846 105.338 131.725C105.338 130.607 105.578 129.754 106.059 129.164C106.539 128.574 107.234 128.279 108.145 128.279ZM117.467 128.666V129.721C117.158 129.541 116.848 129.406 116.535 129.316C116.223 129.227 115.904 129.182 115.58 129.182C115.092 129.182 114.727 129.262 114.484 129.422C114.246 129.578 114.127 129.818 114.127 130.143C114.127 130.436 114.217 130.654 114.396 130.799C114.576 130.943 115.023 131.084 115.738 131.221L116.172 131.303C116.707 131.404 117.111 131.607 117.385 131.912C117.662 132.217 117.801 132.613 117.801 133.102C117.801 133.75 117.57 134.258 117.109 134.625C116.648 134.988 116.008 135.17 115.188 135.17C114.863 135.17 114.523 135.135 114.168 135.064C113.812 134.998 113.428 134.896 113.014 134.76V133.646C113.416 133.854 113.801 134.01 114.168 134.115C114.535 134.217 114.883 134.268 115.211 134.268C115.688 134.268 116.057 134.172 116.318 133.98C116.58 133.785 116.711 133.514 116.711 133.166C116.711 132.666 116.232 132.32 115.275 132.129L115.229 132.117L114.824 132.035C114.203 131.914 113.75 131.711 113.465 131.426C113.18 131.137 113.037 130.744 113.037 130.248C113.037 129.619 113.25 129.135 113.676 128.795C114.102 128.451 114.709 128.279 115.498 128.279C115.85 128.279 116.188 128.312 116.512 128.379C116.836 128.441 117.154 128.537 117.467 128.666ZM122.594 126.574V128.438H125.043V129.275H122.594V132.838C122.594 133.322 122.686 133.66 122.869 133.852C123.053 134.043 123.373 134.139 123.83 134.139H125.043V135H123.725C122.916 135 122.346 134.838 122.014 134.514C121.682 134.189 121.516 133.631 121.516 132.838V129.275H119.764V128.438H121.516V126.574H122.594ZM132.994 129.791C132.764 129.611 132.529 129.48 132.291 129.398C132.053 129.316 131.791 129.275 131.506 129.275C130.834 129.275 130.32 129.486 129.965 129.908C129.609 130.33 129.432 130.939 129.432 131.736V135H128.348V128.438H129.432V129.721C129.611 129.256 129.887 128.9 130.258 128.654C130.633 128.404 131.076 128.279 131.588 128.279C131.854 128.279 132.102 128.312 132.332 128.379C132.562 128.445 132.783 128.549 132.994 128.689V129.791ZM140.02 131.18V131.707H135.35V131.742C135.318 132.637 135.488 133.279 135.859 133.67C136.234 134.061 136.762 134.256 137.441 134.256C137.785 134.256 138.145 134.201 138.52 134.092C138.895 133.982 139.295 133.816 139.721 133.594V134.666C139.311 134.834 138.914 134.959 138.531 135.041C138.152 135.127 137.785 135.17 137.43 135.17C136.41 135.17 135.613 134.865 135.039 134.256C134.465 133.643 134.178 132.799 134.178 131.725C134.178 130.678 134.459 129.842 135.021 129.217C135.584 128.592 136.334 128.279 137.271 128.279C138.107 128.279 138.766 128.562 139.246 129.129C139.73 129.695 139.988 130.379 140.02 131.18ZM138.941 130.863C138.895 130.41 138.729 130.02 138.443 129.691C138.162 129.359 137.756 129.193 137.225 129.193C136.705 129.193 136.277 129.365 135.941 129.709C135.605 130.053 135.422 130.439 135.391 130.869L138.941 130.863ZM144.801 131.701H144.443C143.814 131.701 143.34 131.812 143.02 132.035C142.703 132.254 142.545 132.582 142.545 133.02C142.545 133.414 142.664 133.721 142.902 133.939C143.141 134.158 143.471 134.268 143.893 134.268C144.486 134.268 144.953 134.062 145.293 133.652C145.633 133.238 145.805 132.668 145.809 131.941V131.701H144.801ZM146.893 131.256V135H145.809V134.027C145.578 134.418 145.287 134.707 144.936 134.895C144.588 135.078 144.164 135.17 143.664 135.17C142.996 135.17 142.463 134.982 142.064 134.607C141.666 134.229 141.467 133.723 141.467 133.09C141.467 132.359 141.711 131.805 142.199 131.426C142.691 131.047 143.412 130.857 144.361 130.857H145.809V130.688C145.805 130.164 145.672 129.785 145.41 129.551C145.148 129.312 144.73 129.193 144.156 129.193C143.789 129.193 143.418 129.246 143.043 129.352C142.668 129.457 142.303 129.611 141.947 129.814V128.736C142.346 128.584 142.727 128.471 143.09 128.396C143.457 128.318 143.812 128.279 144.156 128.279C144.699 128.279 145.162 128.359 145.545 128.52C145.932 128.68 146.244 128.92 146.482 129.24C146.631 129.436 146.736 129.678 146.799 129.967C146.861 130.252 146.893 130.682 146.893 131.256ZM151.879 129.105C152.012 128.824 152.18 128.617 152.383 128.484C152.59 128.348 152.838 128.279 153.127 128.279C153.654 128.279 154.025 128.484 154.24 128.895C154.459 129.301 154.568 130.068 154.568 131.197V135H153.584V131.244C153.584 130.318 153.531 129.744 153.426 129.521C153.324 129.295 153.137 129.182 152.863 129.182C152.551 129.182 152.336 129.303 152.219 129.545C152.105 129.783 152.049 130.35 152.049 131.244V135H151.064V131.244C151.064 130.307 151.008 129.729 150.895 129.51C150.785 129.291 150.586 129.182 150.297 129.182C150.012 129.182 149.812 129.303 149.699 129.545C149.59 129.783 149.535 130.35 149.535 131.244V135H148.557V128.438H149.535V129C149.664 128.766 149.824 128.588 150.016 128.467C150.211 128.342 150.432 128.279 150.678 128.279C150.975 128.279 151.221 128.348 151.416 128.484C151.615 128.621 151.77 128.828 151.879 129.105ZM155.664 129.369V128.303L161.857 130.752V131.725L155.664 134.174V133.102L160.645 131.244L155.664 129.369ZM138.994 179.936V183.521H137.682V179.936H138.994ZM135.871 179.936V183.521H134.559V179.936H135.871ZM141.49 180.252H142.68V183.604H145.92V180.252H147.109V189H145.92V184.6H142.68V189H141.49V180.252ZM154.48 185.18V185.707H149.811V185.742C149.779 186.637 149.949 187.279 150.32 187.67C150.695 188.061 151.223 188.256 151.902 188.256C152.246 188.256 152.605 188.201 152.98 188.092C153.355 187.982 153.756 187.816 154.182 187.594V188.666C153.771 188.834 153.375 188.959 152.992 189.041C152.613 189.127 152.246 189.17 151.891 189.17C150.871 189.17 150.074 188.865 149.5 188.256C148.926 187.643 148.639 186.799 148.639 185.725C148.639 184.678 148.92 183.842 149.482 183.217C150.045 182.592 150.795 182.279 151.732 182.279C152.568 182.279 153.227 182.562 153.707 183.129C154.191 183.695 154.449 184.379 154.48 185.18ZM153.402 184.863C153.355 184.41 153.189 184.02 152.904 183.691C152.623 183.359 152.217 183.193 151.686 183.193C151.166 183.193 150.738 183.365 150.402 183.709C150.066 184.053 149.883 184.439 149.852 184.869L153.402 184.863ZM159.361 186.627C159.361 187.111 159.449 187.477 159.625 187.723C159.805 187.969 160.068 188.092 160.416 188.092H161.676V189H160.311C159.666 189 159.166 188.795 158.811 188.385C158.459 187.971 158.283 187.385 158.283 186.627V180.691H156.555V179.848H159.361V186.627ZM166.592 186.627C166.592 187.111 166.68 187.477 166.855 187.723C167.035 187.969 167.299 188.092 167.646 188.092H168.906V189H167.541C166.896 189 166.396 188.795 166.041 188.385C165.689 187.971 165.514 187.385 165.514 186.627V180.691H163.785V179.848H166.592V186.627ZM173.219 183.193C172.672 183.193 172.258 183.406 171.977 183.832C171.695 184.258 171.555 184.889 171.555 185.725C171.555 186.557 171.695 187.188 171.977 187.617C172.258 188.043 172.672 188.256 173.219 188.256C173.77 188.256 174.186 188.043 174.467 187.617C174.748 187.188 174.889 186.557 174.889 185.725C174.889 184.889 174.748 184.258 174.467 183.832C174.186 183.406 173.77 183.193 173.219 183.193ZM173.219 182.279C174.129 182.279 174.824 182.574 175.305 183.164C175.789 183.754 176.031 184.607 176.031 185.725C176.031 186.846 175.791 187.701 175.311 188.291C174.83 188.877 174.133 189.17 173.219 189.17C172.309 189.17 171.613 188.877 171.133 188.291C170.652 187.701 170.412 186.846 170.412 185.725C170.412 184.607 170.652 183.754 171.133 183.164C171.613 182.574 172.309 182.279 173.219 182.279ZM179.43 186.885H181.258V188.438L179.957 190.963L178.785 190.969L179.43 188.438V186.885ZM191.301 182.438H192.367L193.51 187.74L194.447 184.354H195.367L196.316 187.74L197.459 182.438H198.525L196.99 189H195.959L194.91 185.402L193.867 189H192.836L191.301 182.438ZM202.141 183.193C201.594 183.193 201.18 183.406 200.898 183.832C200.617 184.258 200.477 184.889 200.477 185.725C200.477 186.557 200.617 187.188 200.898 187.617C201.18 188.043 201.594 188.256 202.141 188.256C202.691 188.256 203.107 188.043 203.389 187.617C203.67 187.188 203.811 186.557 203.811 185.725C203.811 184.889 203.67 184.258 203.389 183.832C203.107 183.406 202.691 183.193 202.141 183.193ZM202.141 182.279C203.051 182.279 203.746 182.574 204.227 183.164C204.711 183.754 204.953 184.607 204.953 185.725C204.953 186.846 204.713 187.701 204.232 188.291C203.752 188.877 203.055 189.17 202.141 189.17C201.23 189.17 200.535 188.877 200.055 188.291C199.574 187.701 199.334 186.846 199.334 185.725C199.334 184.607 199.574 183.754 200.055 183.164C200.535 182.574 201.23 182.279 202.141 182.279ZM212.529 183.791C212.299 183.611 212.064 183.48 211.826 183.398C211.588 183.316 211.326 183.275 211.041 183.275C210.369 183.275 209.855 183.486 209.5 183.908C209.145 184.33 208.967 184.939 208.967 185.736V189H207.883V182.438H208.967V183.721C209.146 183.256 209.422 182.9 209.793 182.654C210.168 182.404 210.611 182.279 211.123 182.279C211.389 182.279 211.637 182.312 211.867 182.379C212.098 182.445 212.318 182.549 212.529 182.689V183.791ZM217.205 186.627C217.205 187.111 217.293 187.477 217.469 187.723C217.648 187.969 217.912 188.092 218.26 188.092H219.52V189H218.154C217.51 189 217.01 188.795 216.654 188.385C216.303 187.971 216.127 187.385 216.127 186.627V180.691H214.398V179.848H217.205V186.627ZM225.25 183.275V179.883H226.328V189H225.25V188.174C225.07 188.498 224.83 188.746 224.529 188.918C224.232 189.086 223.889 189.17 223.498 189.17C222.705 189.17 222.08 188.863 221.623 188.25C221.17 187.633 220.943 186.783 220.943 185.701C220.943 184.635 221.172 183.799 221.629 183.193C222.086 182.584 222.709 182.279 223.498 182.279C223.893 182.279 224.24 182.365 224.541 182.537C224.842 182.705 225.078 182.951 225.25 183.275ZM222.08 185.725C222.08 186.561 222.213 187.191 222.479 187.617C222.744 188.043 223.137 188.256 223.656 188.256C224.176 188.256 224.57 188.041 224.84 187.611C225.113 187.182 225.25 186.553 225.25 185.725C225.25 184.893 225.113 184.264 224.84 183.838C224.57 183.408 224.176 183.193 223.656 183.193C223.137 183.193 222.744 183.406 222.479 183.832C222.213 184.258 222.08 184.889 222.08 185.725ZM230.652 180.252H231.842V184.09L231.719 185.889H230.775L230.652 184.09V180.252ZM230.477 187.512H232.018V189H230.477V187.512ZM240.221 179.936V183.521H238.908V179.936H240.221ZM237.098 179.936V183.521H235.785V179.936H237.098Z" fill="#CE9178" />
        <path d="M87.8535 161.309C87.334 162.199 86.9453 163.088 86.6875 163.975C86.4336 164.857 86.3066 165.748 86.3066 166.646C86.3066 167.541 86.4336 168.432 86.6875 169.318C86.9453 170.205 87.334 171.098 87.8535 171.996H86.916C86.3262 171.066 85.8867 170.162 85.5977 169.283C85.3086 168.4 85.1641 167.521 85.1641 166.646C85.1641 165.775 85.3086 164.898 85.5977 164.016C85.8867 163.133 86.3262 162.23 86.916 161.309H87.8535ZM92.1133 161.309H93.0508C93.6406 162.23 94.0801 163.133 94.3691 164.016C94.6582 164.898 94.8027 165.775 94.8027 166.646C94.8027 167.525 94.6582 168.406 94.3691 169.289C94.0801 170.172 93.6406 171.074 93.0508 171.996H92.1133C92.6328 171.09 93.0195 170.193 93.2734 169.307C93.5312 168.42 93.6602 167.533 93.6602 166.646C93.6602 165.756 93.5312 164.867 93.2734 163.98C93.0195 163.094 92.6328 162.203 92.1133 161.309ZM110.582 171.299V172.143H110.207C109.234 172.143 108.582 171.998 108.25 171.709C107.922 171.42 107.758 170.844 107.758 169.98V168.809C107.758 168.383 107.637 168.016 107.395 167.707C107.156 167.398 106.785 167.244 106.281 167.244H105.566V166.406H106.281C106.832 166.406 107.215 166.275 107.43 166.014C107.648 165.752 107.758 165.367 107.758 164.859V163.336C107.758 162.473 107.922 161.898 108.25 161.613C108.582 161.324 109.234 161.18 110.207 161.18H110.582V162.018H110.172C109.625 162.018 109.268 162.104 109.1 162.275C108.936 162.443 108.854 162.805 108.854 163.359V164.93C108.854 165.617 108.719 166.08 108.449 166.318C108.18 166.553 107.654 166.723 106.873 166.828C107.631 166.918 108.15 167.092 108.432 167.35C108.713 167.604 108.854 168.064 108.854 168.732V169.957C108.854 170.516 108.936 170.879 109.1 171.047C109.268 171.215 109.625 171.299 110.172 171.299H110.582ZM63.666 182.443H65.4941V184.559H63.666V182.443ZM63.666 186.867H65.4941V189H63.666V186.867ZM70.8965 182.443H72.7246V184.559H70.8965V182.443ZM70.8965 186.867H72.7246V189H70.8965V186.867ZM81.8301 188.666C81.541 188.834 81.2422 188.959 80.9336 189.041C80.6289 189.127 80.3164 189.17 79.9961 189.17C78.9805 189.17 78.1855 188.865 77.6113 188.256C77.041 187.646 76.7559 186.803 76.7559 185.725C76.7559 184.646 77.041 183.803 77.6113 183.193C78.1855 182.584 78.9805 182.279 79.9961 182.279C80.3125 182.279 80.6211 182.32 80.9219 182.402C81.2227 182.484 81.5254 182.611 81.8301 182.783V183.914C81.5449 183.66 81.2578 183.477 80.9688 183.363C80.6836 183.25 80.3594 183.193 79.9961 183.193C79.3203 183.193 78.8008 183.412 78.4375 183.85C78.0742 184.287 77.8926 184.912 77.8926 185.725C77.8926 186.533 78.0742 187.158 78.4375 187.6C78.8047 188.037 79.3242 188.256 79.9961 188.256C80.3711 188.256 80.707 188.199 81.0039 188.086C81.3008 187.969 81.5762 187.789 81.8301 187.547V188.666ZM86.4531 183.193C85.9062 183.193 85.4922 183.406 85.2109 183.832C84.9297 184.258 84.7891 184.889 84.7891 185.725C84.7891 186.557 84.9297 187.188 85.2109 187.617C85.4922 188.043 85.9062 188.256 86.4531 188.256C87.0039 188.256 87.4199 188.043 87.7012 187.617C87.9824 187.188 88.123 186.557 88.123 185.725C88.123 184.889 87.9824 184.258 87.7012 183.832C87.4199 183.406 87.0039 183.193 86.4531 183.193ZM86.4531 182.279C87.3633 182.279 88.0586 182.574 88.5391 183.164C89.0234 183.754 89.2656 184.607 89.2656 185.725C89.2656 186.846 89.0254 187.701 88.5449 188.291C88.0645 188.877 87.3672 189.17 86.4531 189.17C85.543 189.17 84.8477 188.877 84.3672 188.291C83.8867 187.701 83.6465 186.846 83.6465 185.725C83.6465 184.607 83.8867 183.754 84.3672 183.164C84.8477 182.574 85.543 182.279 86.4531 182.279ZM91.2168 186.516V182.449H92.2949V186.516C92.2949 187.105 92.3984 187.539 92.6055 187.816C92.8164 188.094 93.1406 188.232 93.5781 188.232C94.0859 188.232 94.4746 188.055 94.7441 187.699C95.0137 187.34 95.1484 186.826 95.1484 186.158V182.449H96.2324V189H95.1484V188.016C94.957 188.395 94.6953 188.682 94.3633 188.877C94.0352 189.072 93.6504 189.17 93.209 189.17C92.5371 189.17 92.0371 188.951 91.709 188.514C91.3809 188.072 91.2168 187.406 91.2168 186.516ZM100.902 180.574V182.438H103.352V183.275H100.902V186.838C100.902 187.322 100.994 187.66 101.178 187.852C101.361 188.043 101.682 188.139 102.139 188.139H103.352V189H102.033C101.225 189 100.654 188.838 100.322 188.514C99.9902 188.189 99.8242 187.631 99.8242 186.838V183.275H98.0723V182.438H99.8242V180.574H100.902ZM118.475 183.369L113.494 185.244L118.475 187.102V188.174L112.281 185.725V184.752L118.475 182.303V183.369ZM125.705 183.369L120.725 185.244L125.705 187.102V188.174L119.512 185.725V184.752L125.705 182.303V183.369ZM255.854 183.369L250.873 185.244L255.854 187.102V188.174L249.66 185.725V184.752L255.854 182.303V183.369ZM263.084 183.369L258.104 185.244L263.084 187.102V188.174L256.891 185.725V184.752L263.084 182.303V183.369ZM295.041 182.443H296.869V184.559H295.041V182.443ZM295.041 186.867H296.869V189H295.041V186.867ZM302.271 182.443H304.1V184.559H302.271V182.443ZM302.271 186.867H304.1V189H302.271V186.867ZM313.551 185.18V185.707H308.881V185.742C308.85 186.637 309.02 187.279 309.391 187.67C309.766 188.061 310.293 188.256 310.973 188.256C311.316 188.256 311.676 188.201 312.051 188.092C312.426 187.982 312.826 187.816 313.252 187.594V188.666C312.842 188.834 312.445 188.959 312.062 189.041C311.684 189.127 311.316 189.17 310.961 189.17C309.941 189.17 309.145 188.865 308.57 188.256C307.996 187.643 307.709 186.799 307.709 185.725C307.709 184.678 307.99 183.842 308.553 183.217C309.115 182.592 309.865 182.279 310.803 182.279C311.639 182.279 312.297 182.562 312.777 183.129C313.262 183.695 313.52 184.379 313.551 185.18ZM312.473 184.863C312.426 184.41 312.26 184.02 311.975 183.691C311.693 183.359 311.287 183.193 310.756 183.193C310.236 183.193 309.809 183.365 309.473 183.709C309.137 184.053 308.953 184.439 308.922 184.869L312.473 184.863ZM320.377 184.934V189H319.293V184.934C319.293 184.344 319.189 183.91 318.982 183.633C318.775 183.355 318.451 183.217 318.01 183.217C317.506 183.217 317.117 183.396 316.844 183.756C316.574 184.111 316.439 184.623 316.439 185.291V189H315.361V182.438H316.439V183.422C316.631 183.047 316.891 182.764 317.219 182.572C317.547 182.377 317.936 182.279 318.385 182.279C319.053 182.279 319.551 182.5 319.879 182.941C320.211 183.379 320.377 184.043 320.377 184.934ZM326.477 183.275V179.883H327.555V189H326.477V188.174C326.297 188.498 326.057 188.746 325.756 188.918C325.459 189.086 325.115 189.17 324.725 189.17C323.932 189.17 323.307 188.863 322.85 188.25C322.396 187.633 322.17 186.783 322.17 185.701C322.17 184.635 322.398 183.799 322.855 183.193C323.312 182.584 323.936 182.279 324.725 182.279C325.119 182.279 325.467 182.365 325.768 182.537C326.068 182.705 326.305 182.951 326.477 183.275ZM323.307 185.725C323.307 186.561 323.439 187.191 323.705 187.617C323.971 188.043 324.363 188.256 324.883 188.256C325.402 188.256 325.797 188.041 326.066 187.611C326.34 187.182 326.477 186.553 326.477 185.725C326.477 184.893 326.34 184.264 326.066 183.838C325.797 183.408 325.402 183.193 324.883 183.193C324.363 183.193 323.971 183.406 323.705 183.832C323.439 184.258 323.307 184.889 323.307 185.725ZM332.893 186.627C332.893 187.111 332.98 187.477 333.156 187.723C333.336 187.969 333.6 188.092 333.947 188.092H335.207V189H333.842C333.197 189 332.697 188.795 332.342 188.385C331.99 187.971 331.814 187.385 331.814 186.627V180.691H330.086V179.848H332.893V186.627ZM338.5 186.885H340.328V188.438L339.174 190.676H337.92L338.5 188.438V186.885ZM338.424 182.443H340.252V184.559H338.424V182.443ZM99.8945 204.885H101.723V206.438L100.568 208.676H99.3145L99.8945 206.438V204.885ZM99.8184 200.443H101.646V202.559H99.8184V200.443ZM26.6934 225.299C27.2402 225.299 27.5957 225.215 27.7598 225.047C27.9277 224.879 28.0117 224.516 28.0117 223.957V222.732C28.0117 222.064 28.1523 221.604 28.4336 221.35C28.7148 221.092 29.2344 220.918 29.9922 220.828C29.2109 220.723 28.6855 220.553 28.416 220.318C28.1465 220.08 28.0117 219.617 28.0117 218.93V217.359C28.0117 216.805 27.9277 216.443 27.7598 216.275C27.5957 216.104 27.2402 216.018 26.6934 216.018H26.2832V215.18H26.6582C27.6309 215.18 28.2812 215.324 28.6094 215.613C28.9414 215.898 29.1074 216.473 29.1074 217.336V218.859C29.1074 219.367 29.2148 219.752 29.4297 220.014C29.6484 220.275 30.0332 220.406 30.584 220.406H31.2988V221.244H30.584C30.0801 221.244 29.707 221.398 29.4648 221.707C29.2266 222.016 29.1074 222.383 29.1074 222.809V223.98C29.1074 224.844 28.9414 225.42 28.6094 225.709C28.2812 225.998 27.6309 226.143 26.6582 226.143H26.2832V225.299H26.6934Z" fill="#D4D4D4" />
        <path d="M57.8828 165.105C58.0156 164.824 58.1836 164.617 58.3867 164.484C58.5938 164.348 58.8418 164.279 59.1309 164.279C59.6582 164.279 60.0293 164.484 60.2441 164.895C60.4629 165.301 60.5723 166.068 60.5723 167.197V171H59.5879V167.244C59.5879 166.318 59.5352 165.744 59.4297 165.521C59.3281 165.295 59.1406 165.182 58.8672 165.182C58.5547 165.182 58.3398 165.303 58.2227 165.545C58.1094 165.783 58.0527 166.35 58.0527 167.244V171H57.0684V167.244C57.0684 166.307 57.0117 165.729 56.8984 165.51C56.7891 165.291 56.5898 165.182 56.3008 165.182C56.0156 165.182 55.8164 165.303 55.7031 165.545C55.5938 165.783 55.5391 166.35 55.5391 167.244V171H54.5605V164.438H55.5391V165C55.668 164.766 55.8281 164.588 56.0195 164.467C56.2148 164.342 56.4355 164.279 56.6816 164.279C56.9785 164.279 57.2246 164.348 57.4199 164.484C57.6191 164.621 57.7734 164.828 57.8828 165.105ZM65.2656 167.701H64.9082C64.2793 167.701 63.8047 167.812 63.4844 168.035C63.168 168.254 63.0098 168.582 63.0098 169.02C63.0098 169.414 63.1289 169.721 63.3672 169.939C63.6055 170.158 63.9355 170.268 64.3574 170.268C64.9512 170.268 65.418 170.062 65.7578 169.652C66.0977 169.238 66.2695 168.668 66.2734 167.941V167.701H65.2656ZM67.3574 167.256V171H66.2734V170.027C66.043 170.418 65.752 170.707 65.4004 170.895C65.0527 171.078 64.6289 171.17 64.1289 171.17C63.4609 171.17 62.9277 170.982 62.5293 170.607C62.1309 170.229 61.9316 169.723 61.9316 169.09C61.9316 168.359 62.1758 167.805 62.6641 167.426C63.1562 167.047 63.877 166.857 64.8262 166.857H66.2734V166.688C66.2695 166.164 66.1367 165.785 65.875 165.551C65.6133 165.312 65.1953 165.193 64.6211 165.193C64.2539 165.193 63.8828 165.246 63.5078 165.352C63.1328 165.457 62.7676 165.611 62.4121 165.814V164.736C62.8105 164.584 63.1914 164.471 63.5547 164.396C63.9219 164.318 64.2773 164.279 64.6211 164.279C65.1641 164.279 65.627 164.359 66.0098 164.52C66.3965 164.68 66.709 164.92 66.9473 165.24C67.0957 165.436 67.2012 165.678 67.2637 165.967C67.3262 166.252 67.3574 166.682 67.3574 167.256ZM70.2344 164.461H72.9941V170.162H75.1328V171H69.7773V170.162H71.916V165.299H70.2344V164.461ZM71.916 161.912H72.9941V163.271H71.916V161.912ZM81.7715 166.934V171H80.6875V166.934C80.6875 166.344 80.584 165.91 80.377 165.633C80.1699 165.355 79.8457 165.217 79.4043 165.217C78.9004 165.217 78.5117 165.396 78.2383 165.756C77.9688 166.111 77.834 166.623 77.834 167.291V171H76.7559V164.438H77.834V165.422C78.0254 165.047 78.2852 164.764 78.6133 164.572C78.9414 164.377 79.3301 164.279 79.7793 164.279C80.4473 164.279 80.9453 164.5 81.2734 164.941C81.6055 165.379 81.7715 166.043 81.7715 166.934Z" fill="#DCDCAA" />
        <path d="M45.1621 182.666V183.721C44.8535 183.541 44.543 183.406 44.2305 183.316C43.918 183.227 43.5996 183.182 43.2754 183.182C42.7871 183.182 42.4219 183.262 42.1797 183.422C41.9414 183.578 41.8223 183.818 41.8223 184.143C41.8223 184.436 41.9121 184.654 42.0918 184.799C42.2715 184.943 42.7188 185.084 43.4336 185.221L43.8672 185.303C44.4023 185.404 44.8066 185.607 45.0801 185.912C45.3574 186.217 45.4961 186.613 45.4961 187.102C45.4961 187.75 45.2656 188.258 44.8047 188.625C44.3438 188.988 43.7031 189.17 42.8828 189.17C42.5586 189.17 42.2188 189.135 41.8633 189.064C41.5078 188.998 41.123 188.896 40.709 188.76V187.646C41.1113 187.854 41.4961 188.01 41.8633 188.115C42.2305 188.217 42.5781 188.268 42.9062 188.268C43.3828 188.268 43.752 188.172 44.0137 187.98C44.2754 187.785 44.4062 187.514 44.4062 187.166C44.4062 186.666 43.9277 186.32 42.9707 186.129L42.9238 186.117L42.5195 186.035C41.8984 185.914 41.4453 185.711 41.1602 185.426C40.875 185.137 40.7324 184.744 40.7324 184.248C40.7324 183.619 40.9453 183.135 41.3711 182.795C41.7969 182.451 42.4043 182.279 43.1934 182.279C43.5449 182.279 43.8828 182.312 44.207 182.379C44.5312 182.441 44.8496 182.537 45.1621 182.666ZM50.2891 180.574V182.438H52.7383V183.275H50.2891V186.838C50.2891 187.322 50.3809 187.66 50.5645 187.852C50.748 188.043 51.0684 188.139 51.5254 188.139H52.7383V189H51.4199C50.6113 189 50.041 188.838 49.709 188.514C49.377 188.189 49.2109 187.631 49.2109 186.838V183.275H47.459V182.438H49.2109V180.574H50.2891ZM58.9492 183.275V179.883H60.0273V189H58.9492V188.174C58.7695 188.498 58.5293 188.746 58.2285 188.918C57.9316 189.086 57.5879 189.17 57.1973 189.17C56.4043 189.17 55.7793 188.863 55.3223 188.25C54.8691 187.633 54.6426 186.783 54.6426 185.701C54.6426 184.635 54.8711 183.799 55.3281 183.193C55.7852 182.584 56.4082 182.279 57.1973 182.279C57.5918 182.279 57.9395 182.365 58.2402 182.537C58.541 182.705 58.7773 182.951 58.9492 183.275ZM55.7793 185.725C55.7793 186.561 55.9121 187.191 56.1777 187.617C56.4434 188.043 56.8359 188.256 57.3555 188.256C57.875 188.256 58.2695 188.041 58.5391 187.611C58.8125 187.182 58.9492 186.553 58.9492 185.725C58.9492 184.893 58.8125 184.264 58.5391 183.838C58.2695 183.408 57.875 183.193 57.3555 183.193C56.8359 183.193 56.4434 183.406 56.1777 183.832C55.9121 184.258 55.7793 184.889 55.7793 185.725ZM276.537 182.666V183.721C276.229 183.541 275.918 183.406 275.605 183.316C275.293 183.227 274.975 183.182 274.65 183.182C274.162 183.182 273.797 183.262 273.555 183.422C273.316 183.578 273.197 183.818 273.197 184.143C273.197 184.436 273.287 184.654 273.467 184.799C273.646 184.943 274.094 185.084 274.809 185.221L275.242 185.303C275.777 185.404 276.182 185.607 276.455 185.912C276.732 186.217 276.871 186.613 276.871 187.102C276.871 187.75 276.641 188.258 276.18 188.625C275.719 188.988 275.078 189.17 274.258 189.17C273.934 189.17 273.594 189.135 273.238 189.064C272.883 188.998 272.498 188.896 272.084 188.76V187.646C272.486 187.854 272.871 188.01 273.238 188.115C273.605 188.217 273.953 188.268 274.281 188.268C274.758 188.268 275.127 188.172 275.389 187.98C275.65 187.785 275.781 187.514 275.781 187.166C275.781 186.666 275.303 186.32 274.346 186.129L274.299 186.117L273.895 186.035C273.273 185.914 272.82 185.711 272.535 185.426C272.25 185.137 272.107 184.744 272.107 184.248C272.107 183.619 272.32 183.135 272.746 182.795C273.172 182.451 273.779 182.279 274.568 182.279C274.92 182.279 275.258 182.312 275.582 182.379C275.906 182.441 276.225 182.537 276.537 182.666ZM281.664 180.574V182.438H284.113V183.275H281.664V186.838C281.664 187.322 281.756 187.66 281.939 187.852C282.123 188.043 282.443 188.139 282.9 188.139H284.113V189H282.795C281.986 189 281.416 188.838 281.084 188.514C280.752 188.189 280.586 187.631 280.586 186.838V183.275H278.834V182.438H280.586V180.574H281.664ZM290.324 183.275V179.883H291.402V189H290.324V188.174C290.145 188.498 289.904 188.746 289.604 188.918C289.307 189.086 288.963 189.17 288.572 189.17C287.779 189.17 287.154 188.863 286.697 188.25C286.244 187.633 286.018 186.783 286.018 185.701C286.018 184.635 286.246 183.799 286.703 183.193C287.16 182.584 287.783 182.279 288.572 182.279C288.967 182.279 289.314 182.365 289.615 182.537C289.916 182.705 290.152 182.951 290.324 183.275ZM287.154 185.725C287.154 186.561 287.287 187.191 287.553 187.617C287.818 188.043 288.211 188.256 288.73 188.256C289.25 188.256 289.645 188.041 289.914 187.611C290.188 187.182 290.324 186.553 290.324 185.725C290.324 184.893 290.188 184.264 289.914 183.838C289.645 183.408 289.25 183.193 288.73 183.193C288.211 183.193 287.818 183.406 287.553 183.832C287.287 184.258 287.154 184.889 287.154 185.725Z" fill="#4EC9B0" />
        <path d="M93.6836 198.123C94.6172 198.123 95.3223 198.504 95.7988 199.266C96.2793 200.027 96.5195 201.154 96.5195 202.646C96.5195 204.139 96.2793 205.266 95.7988 206.027C95.3223 206.789 94.6172 207.17 93.6836 207.17C92.75 207.17 92.0449 206.789 91.5684 206.027C91.0918 205.266 90.8535 204.139 90.8535 202.646C90.8535 201.154 91.0918 200.027 91.5684 199.266C92.0449 198.504 92.75 198.123 93.6836 198.123ZM93.6836 206.232C94.2383 206.232 94.6504 205.938 94.9199 205.348C95.1934 204.758 95.3301 203.857 95.3301 202.646C95.3301 202.002 95.291 201.42 95.2129 200.9L92.4238 205.266C92.7168 205.91 93.1367 206.232 93.6836 206.232ZM93.6836 199.061C93.1328 199.061 92.7207 199.355 92.4473 199.945C92.1777 200.535 92.043 201.436 92.043 202.646C92.043 203.197 92.0801 203.713 92.1543 204.193L94.8848 199.84C94.5879 199.32 94.1875 199.061 93.6836 199.061Z" fill="#B5CEA8" />
      </g>
    </g>
    <rect x="0.5" y="0.5" width="503" height="330" rx="4.5" stroke="var(--vscode-editorWidget-border, #3C3C3C)" />
  </g>
  <defs>
    <clipPath id="clip0_507_8520">
      <rect width="170.931" height="39.2998" fill="#FFFFFF" transform="translate(1 1)" />
    </clipPath>
  </defs>
</svg>