<svg width="474" height="232" viewBox="0 0 474 232" fill="none" xmlns="http://www.w3.org/2000/svg">
  <g>
    <g>
      <rect width="474" height="35" fill="var(--vscode-editorGroupHeader-tabsBackground, #292929)" />
      <g clip-path="url(#clip0_507_8610)">
        <g>
          <rect width="123" height="35" fill="var(--vscode-tab-activeBackground, #252526)" />
          <g>
            <path d="M15.18 17.18C15.18 16.3933 15.3067 15.6867 15.56 15.06C15.8133 14.4333 16.14 13.92 16.54 13.52C16.9533 13.1067 17.46 12.7667 18.06 12.5C18.5267 12.2867 19.1333 12.18 19.88 12.18C20.5067 12.18 21.0667 12.3067 21.56 12.56C22.0667 12.8133 22.4867 13.1067 22.82 13.44L21.44 15L21.28 14.88C21.0533 14.7067 20.88 14.6 20.76 14.56L20.54 14.5C20.2733 14.42 20.0533 14.38 19.88 14.38C19.5867 14.38 19.3133 14.44 19.06 14.56C18.78 14.7067 18.5533 14.9 18.38 15.14C18.2067 15.3667 18.06 15.66 17.94 16.02C17.82 16.38 17.76 16.7667 17.76 17.18C17.76 18.14 17.9667 18.8267 18.38 19.24C18.5933 19.5067 18.8333 19.7 19.1 19.82C19.3667 19.94 19.6667 20 20 20C20.3333 20 20.6267 19.94 20.88 19.82C21.16 19.6733 21.3867 19.48 21.56 19.24L22.94 20.82C22.5533 21.26 22.0933 21.6133 21.56 21.88C21.0667 22.12 20.5067 22.24 19.88 22.24C19.2933 22.24 18.6867 22.14 18.06 21.94C17.5 21.7533 17 21.44 16.56 21C16.3733 20.8 16.1933 20.54 16.02 20.22C15.9267 20.0333 15.7933 19.7333 15.62 19.32C15.3267 18.7333 15.18 18.02 15.18 17.18ZM21.38 15.56H20.5V16.62H19.5V17.5H20.5V18.62H21.38V17.5H22.38V16.62H21.38V15.56ZM25.12 16.56V15.32H24.06V16.56H22.88V17.62H24.06V18.94H25.12V17.62H26.32V16.56H25.12Z" fill="#519ABA" />
          </g>
          <rect x="32" y="14" width="79" height="7" rx="3.5" fill="#FFFFFF" fill-opacity="0.12" />
        </g>
      </g>
      <g clip-path="url(#clip1_507_8610)">
        <g>
          <path d="M366.307 19.0133L365.4 19.8667C365.258 19.3333 364.956 18.8889 364.493 18.5333C364.067 18.1778 363.569 18 363 18C362.431 18 361.916 18.1778 361.453 18.5333C361.027 18.8889 360.742 19.3333 360.6 19.8667L359.693 19.0133L359 19.7067L360.173 20.88L360.013 20.9867V22H359V23.0133H360.013V23.0667C360.049 23.3867 360.138 23.7067 360.28 24.0267L359 25.3067L359.693 26L360.813 24.88C361.062 25.2356 361.382 25.52 361.773 25.7333C362.164 25.9111 362.573 26 363 26C363.427 26 363.836 25.9111 364.227 25.7333C364.618 25.52 364.938 25.2356 365.187 24.88L366.307 26L367 25.3067L365.72 24.0267C365.862 23.7067 365.951 23.3689 365.987 23.0133V22.96H367V22H365.987V20.9867L365.827 20.88L367 19.7067L366.307 19.0133ZM363 19.0133C363.427 19.0133 363.782 19.1556 364.067 19.44C364.351 19.7244 364.493 20.08 364.493 20.5067H361.507C361.507 20.08 361.649 19.7244 361.933 19.44C362.218 19.1556 362.573 19.0133 363 19.0133ZM365.027 23.0133C364.956 23.5467 364.724 24.0089 364.333 24.4C363.978 24.7556 363.533 24.9511 363 24.9867C362.467 24.9511 362.004 24.7556 361.613 24.4C361.258 24.0089 361.062 23.5467 361.027 23.0133V21.52H365.027V23.0133ZM364.013 12.4L364.76 11.9733L373.773 18V18.8533L368.013 22.6933V21.4667L372.6 18.4267L365.027 13.36V16.9867H364.013V12.4Z" fill="var(--vscode-icon-foreground, #CCCCCC)" />
        </g>
        <g>
          <rect x="383" y="6" width="24" height="24" rx="4" fill="var(--vscode-button-secondaryHoverBackground, #3C3C3C)" />
          <path d="M396.12 14.3733L395.587 11.9733H394.413L393.88 14.3733L393.187 14.6933L391.213 13.4133L390.307 14.2133L391.587 16.1867L391.427 16.88L389.027 17.4133V18.5867L391.427 19.12L391.693 19.92L390.413 21.8933L391.213 22.6933L393.187 21.4133L393.987 21.68L394.413 23.9733H395.587L396.12 21.5733L396.92 21.3067L398.893 22.5867L399.693 21.7867L398.413 19.8133L398.68 19.0133L401.027 18.5867V17.4133L398.627 16.88L398.307 16.08L399.587 14.1067L398.787 13.3067L396.813 14.5867L396.12 14.3733ZM396.387 11.0133L396.92 13.4133L399 12.08L401.027 14.1067L399.587 16.1867L401.987 16.6133V19.3867L399.587 19.92L401.027 22L399 23.9733L396.92 22.5867L396.387 24.9867H393.613L393.08 22.5867L391 23.92L389.027 21.8933L390.413 19.8133L388.013 19.3867V16.6133L390.413 16.08L389.08 14L391.107 11.9733L393.187 13.4133L393.613 11.0133H396.387ZM397.027 18C397.027 18.5333 396.813 18.9956 396.387 19.3867C395.996 19.7778 395.533 19.9733 395 19.9733C394.467 19.9733 394.004 19.7778 393.613 19.3867C393.222 18.9956 393.027 18.5333 393.027 18C393.027 17.4667 393.222 17.0044 393.613 16.6133C394.004 16.1867 394.467 15.9733 395 15.9733C395.533 15.9733 395.996 16.1867 396.387 16.6133C396.813 17.0044 397.027 17.4667 397.027 18ZM395 19.0133C395.284 19.0133 395.516 18.9244 395.693 18.7467C395.907 18.5333 396.013 18.2844 396.013 18C396.013 17.7156 395.907 17.4844 395.693 17.3067C395.516 17.0933 395.284 16.9867 395 16.9867C394.716 16.9867 394.467 17.0933 394.253 17.3067C394.076 17.4844 393.987 17.7156 393.987 18C393.987 18.2844 394.076 18.5333 394.253 18.7467C394.467 18.9244 394.716 19.0133 395 19.0133Z" fill="var(--vscode-button-secondaryForeground, #FFFFFF)" />
        </g>
        <g>
          <path d="M429.027 11.0133H417.987L417.027 11.9733V23.0133L417.987 23.9733H429.027L429.987 23.0133V11.9733L429.027 11.0133ZM423 23.0133H417.987V11.9733H423V23.0133ZM429.027 23.0133H424.013V11.9733H429.027V23.0133Z" fill="var(--vscode-icon-foreground, #CCCCCC)" />
        </g>
        <g>
          <path d="M447 18C447 18.2844 446.893 18.5333 446.68 18.7467C446.502 18.9244 446.271 19.0133 445.987 19.0133C445.702 19.0133 445.471 18.9244 445.293 18.7467C445.116 18.5333 445.027 18.2844 445.027 18C445.027 17.7156 445.116 17.4844 445.293 17.3067C445.471 17.0933 445.702 16.9867 445.987 16.9867C446.271 16.9867 446.502 17.0933 446.68 17.3067C446.893 17.4844 447 17.7156 447 18ZM452.013 18C452.013 18.2844 451.907 18.5333 451.693 18.7467C451.516 18.9244 451.284 19.0133 451 19.0133C450.716 19.0133 450.467 18.9244 450.253 18.7467C450.076 18.5333 449.987 18.2844 449.987 18C449.987 17.7156 450.076 17.4844 450.253 17.3067C450.467 17.0933 450.716 16.9867 451 16.9867C451.284 16.9867 451.516 17.0933 451.693 17.3067C451.907 17.4844 452.013 17.7156 452.013 18ZM457.027 18C457.027 18.2844 456.92 18.5333 456.707 18.7467C456.529 18.9244 456.298 19.0133 456.013 19.0133C455.729 19.0133 455.48 18.9244 455.267 18.7467C455.089 18.5333 455 18.2844 455 18C455 17.7156 455.089 17.4844 455.267 17.3067C455.48 17.0933 455.729 16.9867 456.013 16.9867C456.298 16.9867 456.529 17.0933 456.707 17.3067C456.92 17.4844 457.027 17.7156 457.027 18Z" fill="var(--vscode-icon-foreground, #CCCCCC)" />
        </g>
      </g>
    </g>
    <g filter="url(#filter0_d_507_8610)">
      <rect x="25" y="31" width="425" height="182" rx="6" fill="var(--vscode-quickInput-background, #252526)" />
      <g>
        <g>
          <rect x="32.5" y="38.5" width="410" height="25" rx="2.5" fill="var(--vscode-input-background, #3C3C3C)" />
          <path d="M37.7173 53.5562C37.8188 55.1812 39.1836 56.2222 41.2148 56.2222C43.3857 56.2222 44.7441 55.1304 44.7441 53.3975C44.7441 52.0264 43.9697 51.271 42.0908 50.8203L41.0815 50.5728C39.8882 50.2808 39.4058 49.8999 39.4058 49.2334C39.4058 48.3765 40.1548 47.8242 41.2783 47.8242C42.3447 47.8242 43.0811 48.3574 43.2144 49.2271H44.5981C44.5156 47.6973 43.1572 46.6182 41.2974 46.6182C39.2979 46.6182 37.9648 47.6973 37.9648 49.3096C37.9648 50.6426 38.7202 51.4297 40.377 51.8296L41.5576 52.1152C42.77 52.4072 43.3032 52.8516 43.3032 53.5688C43.3032 54.4067 42.4653 55.0098 41.3228 55.0098C40.0977 55.0098 39.2471 54.4448 39.1265 53.5562H37.7173ZM50.9902 54.1528C50.7363 54.7114 50.1714 55.0161 49.3462 55.0161C48.2544 55.0161 47.5498 54.229 47.5054 52.9785V52.915H52.3867V52.4453C52.3867 50.2871 51.2251 48.9731 49.3018 48.9731C47.353 48.9731 46.1152 50.376 46.1152 52.5659C46.1152 54.7686 47.3276 56.1333 49.3081 56.1333C50.8887 56.1333 52.0059 55.3716 52.3042 54.1528H50.9902ZM49.2954 50.084C50.3047 50.084 50.9648 50.814 50.9966 51.9312H47.5054C47.5815 50.8203 48.2861 50.084 49.2954 50.084ZM54.0879 56H55.4526V46.4023H54.0879V56ZM62.0352 54.1528C61.7812 54.7114 61.2163 55.0161 60.3911 55.0161C59.2993 55.0161 58.5947 54.229 58.5503 52.9785V52.915H63.4316V52.4453C63.4316 50.2871 62.27 48.9731 60.3467 48.9731C58.3979 48.9731 57.1602 50.376 57.1602 52.5659C57.1602 54.7686 58.3726 56.1333 60.353 56.1333C61.9336 56.1333 63.0508 55.3716 63.3491 54.1528H62.0352ZM60.3403 50.084C61.3496 50.084 62.0098 50.814 62.0415 51.9312H58.5503C58.6265 50.8203 59.3311 50.084 60.3403 50.084ZM70.9219 51.3218C70.7441 49.9824 69.6968 48.9731 67.9639 48.9731C65.9517 48.9731 64.7266 50.3379 64.7266 52.5278C64.7266 54.7622 65.958 56.1333 67.9702 56.1333C69.6777 56.1333 70.7441 55.1748 70.9219 53.8164H69.5952C69.4175 54.5654 68.8271 54.9717 67.9639 54.9717C66.8276 54.9717 66.123 54.0513 66.123 52.5278C66.123 51.0361 66.8213 50.1348 67.9639 50.1348C68.8779 50.1348 69.4365 50.6489 69.5952 51.3218H70.9219ZM73.0674 47.3672V49.1255H71.9692V50.2173H73.0674V54.1846C73.0674 55.5112 73.6704 56.0444 75.1875 56.0444C75.4541 56.0444 75.708 56.0127 75.9302 55.9746V54.8892C75.7397 54.9082 75.6191 54.9209 75.4097 54.9209C74.7305 54.9209 74.4321 54.5972 74.4321 53.8545V50.2173H75.9302V49.1255H74.4321V47.3672H73.0674ZM83.0015 56.1143C83.9092 56.1143 84.6646 55.7207 85.0771 55.0225H85.1851V56H86.499V51.2837C86.499 49.8364 85.5215 48.9731 83.7886 48.9731C82.2207 48.9731 81.1035 49.7285 80.9639 50.8901H82.2842C82.4365 50.3887 82.9634 50.103 83.7251 50.103C84.6582 50.103 85.1406 50.5283 85.1406 51.2837V51.8867L83.2681 52.001C81.624 52.1025 80.6973 52.8198 80.6973 54.0576C80.6973 55.3145 81.6685 56.1143 83.0015 56.1143ZM83.3506 55.0161C82.6079 55.0161 82.0684 54.6416 82.0684 54.0005C82.0684 53.3721 82.5 53.0356 83.4521 52.9722L85.1406 52.8579V53.4546C85.1406 54.3433 84.3789 55.0161 83.3506 55.0161ZM94.5225 56.1143C95.4746 56.1143 96.2808 55.6636 96.6934 54.9082H96.8013V56H98.1089V46.4023H96.7441V50.1982H96.6426C96.2681 49.4429 95.4683 48.9858 94.5225 48.9858C92.7769 48.9858 91.6533 50.376 91.6533 52.5469C91.6533 54.7305 92.7642 56.1143 94.5225 56.1143ZM94.9097 50.1538C96.0522 50.1538 96.7695 51.0806 96.7695 52.5532C96.7695 54.0386 96.0586 54.9463 94.9097 54.9463C93.7544 54.9463 93.0625 54.0513 93.0625 52.5532C93.0625 51.0615 93.7607 50.1538 94.9097 50.1538ZM104.691 54.1528C104.438 54.7114 103.873 55.0161 103.047 55.0161C101.956 55.0161 101.251 54.229 101.207 52.9785V52.915H106.088V52.4453C106.088 50.2871 104.926 48.9731 103.003 48.9731C101.054 48.9731 99.8164 50.376 99.8164 52.5659C99.8164 54.7686 101.029 56.1333 103.009 56.1333C104.59 56.1333 105.707 55.3716 106.005 54.1528H104.691ZM102.997 50.084C104.006 50.084 104.666 50.814 104.698 51.9312H101.207C101.283 50.8203 101.987 50.084 102.997 50.084ZM111.388 56.1143C113.134 56.1143 114.245 54.7241 114.245 52.5532C114.245 50.3633 113.14 48.9858 111.388 48.9858C110.442 48.9858 109.63 49.4492 109.262 50.1982H109.154V46.4023H107.789V56H109.103V54.9082H109.205C109.617 55.6699 110.423 56.1143 111.388 56.1143ZM110.995 50.1538C112.15 50.1538 112.842 51.0615 112.842 52.5532C112.842 54.0449 112.15 54.9463 110.995 54.9463C109.846 54.9463 109.135 54.0322 109.128 52.5532C109.135 51.0742 109.852 50.1538 110.995 50.1538ZM121.716 49.1064H120.351V53.1499C120.351 54.2607 119.748 54.9336 118.644 54.9336C117.641 54.9336 117.19 54.3877 117.19 53.2451V49.1064H115.825V53.5815C115.825 55.2002 116.676 56.1333 118.206 56.1333C119.253 56.1333 119.958 55.689 120.294 54.9082H120.402V56H121.716V49.1064ZM126.61 58.6343C128.565 58.6343 129.803 57.6377 129.803 56.0698V49.1064H128.495V50.2046H128.387C128 49.4556 127.168 48.9858 126.216 48.9858C124.452 48.9858 123.347 50.376 123.347 52.4644C123.347 54.5337 124.439 55.8984 126.204 55.8984C127.156 55.8984 127.917 55.4858 128.336 54.7368H128.438V56.0635C128.438 56.9966 127.765 57.5552 126.629 57.5552C125.708 57.5552 125.131 57.2251 125.017 56.7046H123.62C123.766 57.8662 124.883 58.6343 126.61 58.6343ZM126.591 54.7686C125.417 54.7686 124.756 53.8735 124.756 52.4644C124.756 51.0552 125.417 50.1538 126.591 50.1538C127.752 50.1538 128.463 51.0552 128.463 52.4644C128.463 53.8735 127.759 54.7686 126.591 54.7686ZM141.19 51.3218C141.013 49.9824 139.965 48.9731 138.232 48.9731C136.22 48.9731 134.995 50.3379 134.995 52.5278C134.995 54.7622 136.227 56.1333 138.239 56.1333C139.946 56.1333 141.013 55.1748 141.19 53.8164H139.864C139.686 54.5654 139.096 54.9717 138.232 54.9717C137.096 54.9717 136.392 54.0513 136.392 52.5278C136.392 51.0361 137.09 50.1348 138.232 50.1348C139.146 50.1348 139.705 50.6489 139.864 51.3218H141.19ZM145.672 56.1333C147.69 56.1333 148.928 54.7812 148.928 52.5532C148.928 50.3252 147.684 48.9731 145.672 48.9731C143.653 48.9731 142.409 50.3315 142.409 52.5532C142.409 54.7812 143.647 56.1333 145.672 56.1333ZM145.672 54.9717C144.485 54.9717 143.818 54.0894 143.818 52.5532C143.818 51.0171 144.485 50.1284 145.672 50.1284C146.853 50.1284 147.525 51.0171 147.525 52.5532C147.525 54.083 146.853 54.9717 145.672 54.9717ZM150.572 56H151.937V51.9565C151.937 50.8457 152.578 50.1602 153.587 50.1602C154.597 50.1602 155.079 50.7188 155.079 51.8613V56H156.444V51.5376C156.444 49.8936 155.593 48.9731 154.051 48.9731C153.01 48.9731 152.324 49.4365 151.988 50.1982H151.886V49.1064H150.572V56ZM158.856 56H160.221V50.2173H161.744V49.1255H160.202V48.4463C160.202 47.748 160.513 47.3989 161.274 47.3989C161.49 47.3989 161.674 47.4116 161.801 47.4307V46.4023C161.566 46.3643 161.3 46.3389 160.989 46.3389C159.554 46.3389 158.856 47.0117 158.856 48.3828V49.1255H157.72V50.2173H158.856V56ZM163.998 47.875C164.474 47.875 164.861 47.4878 164.861 47.0181C164.861 46.542 164.474 46.1548 163.998 46.1548C163.521 46.1548 163.134 46.542 163.134 47.0181C163.134 47.4878 163.521 47.875 163.998 47.875ZM163.318 56H164.677V49.1064H163.318V56ZM169.596 58.6343C171.551 58.6343 172.789 57.6377 172.789 56.0698V49.1064H171.481V50.2046H171.374C170.986 49.4556 170.155 48.9858 169.203 48.9858C167.438 48.9858 166.333 50.376 166.333 52.4644C166.333 54.5337 167.425 55.8984 169.19 55.8984C170.142 55.8984 170.904 55.4858 171.323 54.7368H171.424V56.0635C171.424 56.9966 170.751 57.5552 169.615 57.5552C168.695 57.5552 168.117 57.2251 168.003 56.7046H166.606C166.752 57.8662 167.87 58.6343 169.596 58.6343ZM169.577 54.7686C168.403 54.7686 167.743 53.8735 167.743 52.4644C167.743 51.0552 168.403 50.1538 169.577 50.1538C170.739 50.1538 171.45 51.0552 171.45 52.4644C171.45 53.8735 170.745 54.7686 169.577 54.7686ZM180.597 49.1064H179.232V53.1499C179.232 54.2607 178.629 54.9336 177.524 54.9336C176.521 54.9336 176.071 54.3877 176.071 53.2451V49.1064H174.706V53.5815C174.706 55.2002 175.557 56.1333 177.086 56.1333C178.134 56.1333 178.838 55.689 179.175 54.9082H179.283V56H180.597V49.1064ZM182.577 56H183.942V51.8804C183.942 50.9092 184.672 50.2427 185.707 50.2427C185.948 50.2427 186.354 50.2871 186.468 50.3188V49.0366C186.322 49.0049 186.062 48.9858 185.859 48.9858C184.958 48.9858 184.189 49.4746 183.993 50.1538H183.891V49.1064H182.577V56ZM189.642 56.1143C190.55 56.1143 191.305 55.7207 191.718 55.0225H191.826V56H193.14V51.2837C193.14 49.8364 192.162 48.9731 190.429 48.9731C188.861 48.9731 187.744 49.7285 187.604 50.8901H188.925C189.077 50.3887 189.604 50.103 190.366 50.103C191.299 50.103 191.781 50.5283 191.781 51.2837V51.8867L189.909 52.001C188.265 52.1025 187.338 52.8198 187.338 54.0576C187.338 55.3145 188.309 56.1143 189.642 56.1143ZM189.991 55.0161C189.249 55.0161 188.709 54.6416 188.709 54.0005C188.709 53.3721 189.141 53.0356 190.093 52.9722L191.781 52.8579V53.4546C191.781 54.3433 191.02 55.0161 189.991 55.0161ZM195.564 47.3672V49.1255H194.466V50.2173H195.564V54.1846C195.564 55.5112 196.167 56.0444 197.685 56.0444C197.951 56.0444 198.205 56.0127 198.427 55.9746V54.8892C198.237 54.9082 198.116 54.9209 197.907 54.9209C197.228 54.9209 196.929 54.5972 196.929 53.8545V50.2173H198.427V49.1255H196.929V47.3672H195.564ZM200.738 47.875C201.214 47.875 201.601 47.4878 201.601 47.0181C201.601 46.542 201.214 46.1548 200.738 46.1548C200.262 46.1548 199.875 46.542 199.875 47.0181C199.875 47.4878 200.262 47.875 200.738 47.875ZM200.059 56H201.417V49.1064H200.059V56ZM206.343 56.1333C208.361 56.1333 209.599 54.7812 209.599 52.5532C209.599 50.3252 208.355 48.9731 206.343 48.9731C204.324 48.9731 203.08 50.3315 203.08 52.5532C203.08 54.7812 204.318 56.1333 206.343 56.1333ZM206.343 54.9717C205.156 54.9717 204.489 54.0894 204.489 52.5532C204.489 51.0171 205.156 50.1284 206.343 50.1284C207.523 50.1284 208.196 51.0171 208.196 52.5532C208.196 54.083 207.523 54.9717 206.343 54.9717ZM211.243 56H212.608V51.9565C212.608 50.8457 213.249 50.1602 214.258 50.1602C215.268 50.1602 215.75 50.7188 215.75 51.8613V56H217.115V51.5376C217.115 49.8936 216.264 48.9731 214.722 48.9731C213.681 48.9731 212.995 49.4365 212.659 50.1982H212.557V49.1064H211.243V56Z" fill="var(--vscode-input-foreground, #CCCCCC)" />
          <rect x="32.5" y="38.5" width="410" height="25" rx="2.5" stroke="var(--vscode-focusBorder, #007FD4)" />
        </g>
      </g>
      <g>
        <g>
          <g>
            <rect x="37" y="77" width="38" height="6" rx="3" fill="var(--vscode-descriptionForeground, #606060)" />
            <rect x="112" y="77" width="105" height="6" rx="3" fill="var(--vscode-descriptionForeground, #FFFFFF)" fill-opacity="0.16" />
            <rect x="79" y="77" width="29" height="6" rx="3" fill="var(--vscode-list-focusHighlightForeground, #3794FF)" fill-opacity="0.6" />
          </g>
        </g>
        <g>
          <rect width="425" height="24" transform="translate(25 93)" fill="var(--vscode-list-activeSelectionBackground, #062F4A)" />
          <path d="M41.9067 110.222C43.9507 110.222 45.4551 109.048 45.709 107.264H44.2935C44.0396 108.305 43.1191 108.959 41.9067 108.959C40.2563 108.959 39.228 107.601 39.228 105.423C39.228 103.246 40.2563 101.881 41.9004 101.881C43.1064 101.881 44.0269 102.605 44.2935 103.741H45.709C45.4805 101.907 43.9189 100.618 41.9004 100.618C39.355 100.618 37.7744 102.459 37.7744 105.423C37.7744 108.381 39.3613 110.222 41.9067 110.222ZM47.6768 111.955L50.9712 100.402H49.7651L46.4771 111.955H47.6768ZM55.9478 110.222C57.9917 110.222 59.4961 109.048 59.75 107.264H58.3345C58.0806 108.305 57.1602 108.959 55.9478 108.959C54.2974 108.959 53.269 107.601 53.269 105.423C53.269 103.246 54.2974 101.881 55.9414 101.881C57.1475 101.881 58.0679 102.605 58.3345 103.741H59.75C59.5215 101.907 57.96 100.618 55.9414 100.618C53.396 100.618 51.8154 102.459 51.8154 105.423C51.8154 108.381 53.4023 110.222 55.9478 110.222ZM65.4121 106.985H67.9385V105.747H65.4121V103.1H64.1616V105.747H61.6416V106.985H64.1616V109.632H65.4121V106.985ZM74.0449 106.985H76.5713V105.747H74.0449V103.1H72.7944V105.747H70.2744V106.985H72.7944V109.632H74.0449V106.985ZM79.7896 105.328C80.3291 105.328 80.7227 104.928 80.7227 104.414C80.7227 103.9 80.3291 103.5 79.7896 103.5C79.2563 103.5 78.8564 103.9 78.8564 104.414C78.8564 104.928 79.2563 105.328 79.7896 105.328ZM79.7896 110.095C80.3291 110.095 80.7227 109.695 80.7227 109.181C80.7227 108.667 80.3291 108.267 79.7896 108.267C79.2563 108.267 78.8564 108.667 78.8564 109.181C78.8564 109.695 79.2563 110.095 79.7896 110.095ZM89.2983 112.634C91.2534 112.634 92.4912 111.638 92.4912 110.07V103.106H91.1836V104.205H91.0757C90.6885 103.456 89.8569 102.986 88.9048 102.986C87.1401 102.986 86.0356 104.376 86.0356 106.464C86.0356 108.534 87.1274 109.898 88.8921 109.898C89.8442 109.898 90.606 109.486 91.0249 108.737H91.1265V110.063C91.1265 110.997 90.4536 111.555 89.3174 111.555C88.397 111.555 87.8193 111.225 87.7051 110.705H86.3086C86.4546 111.866 87.5718 112.634 89.2983 112.634ZM89.2793 108.769C88.105 108.769 87.4448 107.874 87.4448 106.464C87.4448 105.055 88.105 104.154 89.2793 104.154C90.4409 104.154 91.1519 105.055 91.1519 106.464C91.1519 107.874 90.4473 108.769 89.2793 108.769ZM98.4199 106.985H100.946V105.747H98.4199V103.1H97.1694V105.747H94.6494V106.985H97.1694V109.632H98.4199V106.985ZM107.053 106.985H109.579V105.747H107.053V103.1H105.802V105.747H103.282V106.985H105.802V109.632H107.053V106.985ZM111.991 111.955L115.286 100.402H114.08L110.792 111.955H111.991ZM120.853 108.153C120.599 108.711 120.034 109.016 119.208 109.016C118.117 109.016 117.412 108.229 117.368 106.979V106.915H122.249V106.445C122.249 104.287 121.087 102.973 119.164 102.973C117.215 102.973 115.978 104.376 115.978 106.566C115.978 108.769 117.19 110.133 119.17 110.133C120.751 110.133 121.868 109.372 122.167 108.153H120.853ZM119.158 104.084C120.167 104.084 120.827 104.814 120.859 105.931H117.368C117.444 104.82 118.148 104.084 119.158 104.084ZM126.197 107.531L127.708 110.013H129.276L126.972 106.528L129.25 103.119H127.727L126.254 105.582H126.146L124.661 103.119H123.068L125.378 106.579L123.087 110.013H124.585L126.096 107.531H126.197ZM134.894 108.153C134.64 108.711 134.075 109.016 133.25 109.016C132.158 109.016 131.453 108.229 131.409 106.979V106.915H136.29V106.445C136.29 104.287 135.128 102.973 133.205 102.973C131.256 102.973 130.019 104.376 130.019 106.566C130.019 108.769 131.231 110.133 133.211 110.133C134.792 110.133 135.909 109.372 136.208 108.153H134.894ZM133.199 104.084C134.208 104.084 134.868 104.814 134.9 105.931H131.409C131.485 104.82 132.189 104.084 133.199 104.084ZM145.145 110.114C146.891 110.114 148.001 108.724 148.001 106.553C148.001 104.363 146.897 102.986 145.145 102.986C144.199 102.986 143.387 103.449 143.019 104.198H142.911V100.402H141.546V110H142.86V108.908H142.961C143.374 109.67 144.18 110.114 145.145 110.114ZM144.751 104.154C145.907 104.154 146.599 105.062 146.599 106.553C146.599 108.045 145.907 108.946 144.751 108.946C143.603 108.946 142.892 108.032 142.885 106.553C142.892 105.074 143.609 104.154 144.751 104.154ZM155.473 103.106H154.108V107.15C154.108 108.261 153.505 108.934 152.4 108.934C151.397 108.934 150.947 108.388 150.947 107.245V103.106H149.582V107.582C149.582 109.2 150.433 110.133 151.962 110.133C153.01 110.133 153.714 109.689 154.051 108.908H154.159V110H155.473V103.106ZM158.158 101.875C158.634 101.875 159.021 101.488 159.021 101.018C159.021 100.542 158.634 100.155 158.158 100.155C157.682 100.155 157.294 100.542 157.294 101.018C157.294 101.488 157.682 101.875 158.158 101.875ZM157.479 110H158.837V103.106H157.479V110ZM160.906 110H162.271V100.402H160.906V110ZM166.848 110.114C167.8 110.114 168.606 109.664 169.019 108.908H169.126V110H170.434V100.402H169.069V104.198H168.968C168.593 103.443 167.793 102.986 166.848 102.986C165.102 102.986 163.979 104.376 163.979 106.547C163.979 108.73 165.089 110.114 166.848 110.114ZM167.235 104.154C168.377 104.154 169.095 105.081 169.095 106.553C169.095 108.039 168.384 108.946 167.235 108.946C166.08 108.946 165.388 108.051 165.388 106.553C165.388 105.062 166.086 104.154 167.235 104.154ZM177.95 110.114C178.857 110.114 179.613 109.721 180.025 109.022H180.133V110H181.447V105.284C181.447 103.836 180.47 102.973 178.737 102.973C177.169 102.973 176.052 103.729 175.912 104.89H177.232C177.385 104.389 177.912 104.103 178.673 104.103C179.606 104.103 180.089 104.528 180.089 105.284V105.887L178.216 106.001C176.572 106.103 175.646 106.82 175.646 108.058C175.646 109.314 176.617 110.114 177.95 110.114ZM178.299 109.016C177.556 109.016 177.017 108.642 177.017 108C177.017 107.372 177.448 107.036 178.4 106.972L180.089 106.858V107.455C180.089 108.343 179.327 109.016 178.299 109.016ZM183.39 110H184.754V105.957C184.754 104.846 185.396 104.16 186.405 104.16C187.414 104.16 187.896 104.719 187.896 105.861V110H189.261V105.538C189.261 103.894 188.411 102.973 186.868 102.973C185.827 102.973 185.142 103.437 184.805 104.198H184.704V103.106H183.39V110ZM193.711 110.114C194.663 110.114 195.469 109.664 195.882 108.908H195.99V110H197.297V100.402H195.933V104.198H195.831C195.457 103.443 194.657 102.986 193.711 102.986C191.965 102.986 190.842 104.376 190.842 106.547C190.842 108.73 191.953 110.114 193.711 110.114ZM194.098 104.154C195.241 104.154 195.958 105.081 195.958 106.553C195.958 108.039 195.247 108.946 194.098 108.946C192.943 108.946 192.251 108.051 192.251 106.553C192.251 105.062 192.949 104.154 194.098 104.154ZM205.429 110.114C206.381 110.114 207.187 109.664 207.6 108.908H207.708V110H209.015V100.402H207.65V104.198H207.549C207.174 103.443 206.375 102.986 205.429 102.986C203.683 102.986 202.56 104.376 202.56 106.547C202.56 108.73 203.67 110.114 205.429 110.114ZM205.816 104.154C206.958 104.154 207.676 105.081 207.676 106.553C207.676 108.039 206.965 108.946 205.816 108.946C204.661 108.946 203.969 108.051 203.969 106.553C203.969 105.062 204.667 104.154 205.816 104.154ZM215.598 108.153C215.344 108.711 214.779 109.016 213.954 109.016C212.862 109.016 212.157 108.229 212.113 106.979V106.915H216.994V106.445C216.994 104.287 215.833 102.973 213.909 102.973C211.96 102.973 210.723 104.376 210.723 106.566C210.723 108.769 211.935 110.133 213.916 110.133C215.496 110.133 216.613 109.372 216.912 108.153H215.598ZM213.903 104.084C214.912 104.084 215.572 104.814 215.604 105.931H212.113C212.189 104.82 212.894 104.084 213.903 104.084ZM222.294 110.114C224.04 110.114 225.151 108.724 225.151 106.553C225.151 104.363 224.046 102.986 222.294 102.986C221.349 102.986 220.536 103.449 220.168 104.198H220.06V100.402H218.695V110H220.009V108.908H220.111C220.523 109.67 221.33 110.114 222.294 110.114ZM221.901 104.154C223.056 104.154 223.748 105.062 223.748 106.553C223.748 108.045 223.056 108.946 221.901 108.946C220.752 108.946 220.041 108.032 220.035 106.553C220.041 105.074 220.758 104.154 221.901 104.154ZM232.622 103.106H231.257V107.15C231.257 108.261 230.654 108.934 229.55 108.934C228.547 108.934 228.096 108.388 228.096 107.245V103.106H226.731V107.582C226.731 109.2 227.582 110.133 229.112 110.133C230.159 110.133 230.864 109.689 231.2 108.908H231.308V110H232.622V103.106ZM237.516 112.634C239.471 112.634 240.709 111.638 240.709 110.07V103.106H239.401V104.205H239.293C238.906 103.456 238.075 102.986 237.123 102.986C235.358 102.986 234.253 104.376 234.253 106.464C234.253 108.534 235.345 109.898 237.11 109.898C238.062 109.898 238.824 109.486 239.243 108.737H239.344V110.063C239.344 110.997 238.671 111.555 237.535 111.555C236.615 111.555 236.037 111.225 235.923 110.705H234.526C234.672 111.866 235.79 112.634 237.516 112.634ZM237.497 108.769C236.323 108.769 235.663 107.874 235.663 106.464C235.663 105.055 236.323 104.154 237.497 104.154C238.659 104.154 239.37 105.055 239.37 106.464C239.37 107.874 238.665 108.769 237.497 108.769ZM248.155 110.114C249.062 110.114 249.818 109.721 250.23 109.022H250.338V110H251.652V105.284C251.652 103.836 250.675 102.973 248.942 102.973C247.374 102.973 246.257 103.729 246.117 104.89H247.438C247.59 104.389 248.117 104.103 248.878 104.103C249.812 104.103 250.294 104.528 250.294 105.284V105.887L248.421 106.001C246.777 106.103 245.851 106.82 245.851 108.058C245.851 109.314 246.822 110.114 248.155 110.114ZM248.504 109.016C247.761 109.016 247.222 108.642 247.222 108C247.222 107.372 247.653 107.036 248.605 106.972L250.294 106.858V107.455C250.294 108.343 249.532 109.016 248.504 109.016ZM259.447 105.322C259.27 103.982 258.222 102.973 256.489 102.973C254.477 102.973 253.252 104.338 253.252 106.528C253.252 108.762 254.483 110.133 256.496 110.133C258.203 110.133 259.27 109.175 259.447 107.816H258.121C257.943 108.565 257.353 108.972 256.489 108.972C255.353 108.972 254.648 108.051 254.648 106.528C254.648 105.036 255.347 104.135 256.489 104.135C257.403 104.135 257.962 104.649 258.121 105.322H259.447ZM261.593 101.367V103.125H260.495V104.217H261.593V108.185C261.593 109.511 262.196 110.044 263.713 110.044C263.979 110.044 264.233 110.013 264.456 109.975V108.889C264.265 108.908 264.145 108.921 263.935 108.921C263.256 108.921 262.958 108.597 262.958 107.854V104.217H264.456V103.125H262.958V101.367H261.593ZM266.766 101.875C267.242 101.875 267.629 101.488 267.629 101.018C267.629 100.542 267.242 100.155 266.766 100.155C266.29 100.155 265.903 100.542 265.903 101.018C265.903 101.488 266.29 101.875 266.766 101.875ZM266.087 110H267.445V103.106H266.087V110ZM275.304 103.106H273.856L272.143 108.604H272.035L270.314 103.106H268.854L271.349 110H272.815L275.304 103.106ZM280.953 108.153C280.699 108.711 280.134 109.016 279.309 109.016C278.217 109.016 277.513 108.229 277.468 106.979V106.915H282.35V106.445C282.35 104.287 281.188 102.973 279.265 102.973C277.316 102.973 276.078 104.376 276.078 106.566C276.078 108.769 277.291 110.133 279.271 110.133C280.852 110.133 281.969 109.372 282.267 108.153H280.953ZM279.258 104.084C280.268 104.084 280.928 104.814 280.959 105.931H277.468C277.544 104.82 278.249 104.084 279.258 104.084ZM288.031 110H289.396V104.217H290.919V103.125H289.376V102.446C289.376 101.748 289.688 101.399 290.449 101.399C290.665 101.399 290.849 101.412 290.976 101.431V100.402C290.741 100.364 290.475 100.339 290.164 100.339C288.729 100.339 288.031 101.012 288.031 102.383V103.125H286.895V104.217H288.031V110ZM293.172 101.875C293.648 101.875 294.036 101.488 294.036 101.018C294.036 100.542 293.648 100.155 293.172 100.155C292.696 100.155 292.309 100.542 292.309 101.018C292.309 101.488 292.696 101.875 293.172 101.875ZM292.493 110H293.852V103.106H292.493V110ZM295.921 110H297.286V100.402H295.921V110ZM303.868 108.153C303.614 108.711 303.049 109.016 302.224 109.016C301.132 109.016 300.428 108.229 300.383 106.979V106.915H305.265V106.445C305.265 104.287 304.103 102.973 302.18 102.973C300.231 102.973 298.993 104.376 298.993 106.566C298.993 108.769 300.206 110.133 302.186 110.133C303.767 110.133 304.884 109.372 305.182 108.153H303.868ZM302.173 104.084C303.183 104.084 303.843 104.814 303.875 105.931H300.383C300.459 104.82 301.164 104.084 302.173 104.084Z" fill="var(--vscode-quickInputList-focusForeground, #E3E3E3)" />
        </g>
        <g>
          <g>
            <rect x="37" y="127" width="62.5" height="6" rx="3" fill="var(--vscode-descriptionForeground, #FFFFFF)" fill-opacity="0.16" />
            <rect x="103.5" y="127" width="29" height="6" rx="3" fill="var(--vscode-list-focusHighlightForeground, #3794FF)" fill-opacity="0.6" />
            <rect x="136.5" y="127" width="62.5" height="6" rx="3" fill="var(--vscode-descriptionForeground, #FFFFFF)" fill-opacity="0.16" />
          </g>
        </g>
        <g>
          <g>
            <rect x="37" y="149" width="41" height="6" rx="3" fill="var(--vscode-descriptionForeground, #FFFFFF)" fill-opacity="0.16" />
            <rect x="82" y="149" width="69" height="6" rx="3" fill="var(--vscode-descriptionForeground, #FFFFFF)" fill-opacity="0.16" />
            <rect x="155" y="149" width="26" height="6" rx="3" fill="var(--vscode-list-focusHighlightForeground, #3794FF)" fill-opacity="0.6" />
          </g>
        </g>
        <g>
          <g>
            <rect x="37" y="171" width="26" height="6" rx="3" fill="var(--vscode-list-focusHighlightForeground, #3794FF)" fill-opacity="0.6" />
            <rect x="67" y="171" width="164" height="6" rx="3" fill="var(--vscode-descriptionForeground, #FFFFFF)" fill-opacity="0.16" />
          </g>
        </g>
        <g>
          <g>
            <rect x="37" y="193" width="46" height="6" rx="3" fill="var(--vscode-descriptionForeground, #FFFFFF)" fill-opacity="0.16" />
            <rect x="87" y="193" width="29" height="6" rx="3" fill="var(--vscode-list-focusHighlightForeground, #3794FF)" fill-opacity="0.6" />
            <rect x="120" y="193" width="46" height="6" rx="3" fill="var(--vscode-descriptionForeground, #FFFFFF)" fill-opacity="0.16" />
          </g>
        </g>
      </g>
      <rect x="24.5" y="30.5" width="426" height="183" rx="6.5" stroke="var(--vscode-editorHoverWidget-border, #333333)" />
    </g>
    <g>
      <g filter="url(#filter1_d_507_8610)">
        <path fill-rule="evenodd" clip-rule="evenodd" d="M392.885 39.5522C393.036 39.6876 393.139 39.7848 393.46 40.0894C393.774 40.3878 393.926 40.5287 394.065 40.6466C394.123 40.6954 394.172 40.8259 394.192 41.0198C394.208 41.1794 394.202 41.3573 394.183 41.5288C394.176 41.5881 394.169 41.6309 394.166 41.6513C394.124 41.8801 394.298 42.0914 394.531 42.0938C394.74 42.0959 394.901 42.0985 395.328 42.1061C395.435 42.108 395.435 42.108 395.542 42.1099C396.702 42.1298 397.295 42.1244 397.72 42.0709C398.175 42.0137 398.643 41.4647 399.048 40.7758C399.391 41.3854 399.866 41.9806 400.347 42.058C400.499 42.0824 400.684 42.09 400.898 42.085C401.058 42.0814 401.226 42.0709 401.397 42.0556C401.525 42.0442 401.628 42.0326 401.689 42.0247C401.915 41.9954 402.062 41.7731 402.002 41.5534C401.989 41.506 401.968 41.4189 401.947 41.3093C401.922 41.1823 401.905 41.0582 401.897 40.9451C401.892 40.8734 401.891 40.8085 401.894 40.7524C401.9 40.6547 401.901 40.5999 401.904 40.4734C401.905 40.4263 401.905 40.4263 401.906 40.3851C401.912 40.2502 401.93 40.1221 401.988 39.8429C402.014 39.7217 402.136 39.4897 402.328 39.2026C402.385 39.1171 402.448 39.0278 402.515 38.9357C402.642 38.7609 402.779 38.5843 402.916 38.4153C402.998 38.314 403.062 38.2383 403.097 38.1972C403.393 37.7728 403.709 37.078 403.825 36.6718C403.936 36.2814 404.026 35.5624 404.08 34.8558C404.11 34.4549 404.121 34.1317 404.121 33.6248C404.122 33.5359 404.122 33.5359 404.122 33.4625C404.122 33.3422 404.122 33.2967 404.122 33.2405C404.121 33.0869 404.116 32.9347 404.101 32.5465C404.069 31.7328 403.623 31.2068 402.966 31.1053C402.407 31.019 401.727 31.4833 401.727 31.4833C401.727 31.4833 401.576 30.9605 401.473 30.7991C401.307 30.5397 400.879 30.2092 400.552 30.1449C400.215 30.0795 399.817 30.0867 399.45 30.1515C399.129 30.2089 398.81 30.4954 398.625 30.8043C398.493 31.0247 398.617 30.7926 398.485 30.5646C398.302 30.2506 397.876 29.9694 397.47 29.8864C397.126 29.8153 396.732 29.8424 396.372 29.9493C395.909 30.0877 395.835 30.4401 395.816 30.3392C395.755 30.001 395.749 30.0232 395.711 29.7819C395.568 28.8866 395.409 28.2672 395.167 27.7266C395.181 27.7577 395.078 27.5245 395.041 27.444C394.976 27.3048 394.912 27.1787 394.841 27.0575C394.622 26.6839 394.372 26.4041 394.058 26.2452C393.512 25.9689 392.694 26.1034 392.307 26.5558C391.922 27.0055 391.858 27.7573 391.955 28.6877C391.992 29.0489 392.121 29.7083 392.239 30.1958C392.281 30.365 392.317 30.5193 392.384 30.8043C392.395 30.8528 392.395 30.8528 392.407 30.9013C392.459 31.117 392.504 31.2945 392.558 31.4893C392.553 31.4689 392.655 31.8333 392.677 31.914C392.684 31.9409 392.684 31.9409 392.692 31.9679C392.732 32.1217 392.772 32.2875 392.835 32.5642C392.869 32.7164 392.902 32.8789 392.935 33.0512C393.024 33.5212 393.024 33.4233 392.938 33.3231C392.879 33.2539 392.824 33.191 392.77 33.1331C392.67 33.0254 392.579 32.9363 392.492 32.8652C391.857 32.3462 391.468 32.1169 390.935 32.0665C390.059 31.9824 389.229 32.6007 389.104 33.4353C389.027 33.947 389.052 34.1825 389.288 34.6347C389.419 34.879 389.639 35.1741 390.05 35.6821C390.075 35.7131 390.075 35.7131 390.1 35.7441C390.605 36.366 390.66 36.4351 390.78 36.6089C391.104 37.0796 391.894 38.431 392.037 38.6125L392.885 39.5522Z" fill="#000000" />
        <path fill-rule="evenodd" clip-rule="evenodd" d="M390.683 35.2715C390.658 35.2409 390.658 35.2409 390.633 35.2102C390.256 34.7441 390.049 34.467 389.951 34.2844C389.799 33.9924 389.79 33.9133 389.845 33.5465C389.91 33.114 390.377 32.7663 390.864 32.8131C391.2 32.8449 391.494 33.0184 392.017 33.446C392.074 33.4922 392.142 33.5585 392.22 33.6427C392.266 33.6926 392.315 33.748 392.368 33.8099C392.447 33.903 392.715 34.2305 392.675 34.1828C392.734 34.2527 392.775 34.3069 392.823 34.3733C392.917 34.5076 392.97 34.5822 393.041 34.6778C393.008 34.6329 393.256 34.9762 393.309 35.0264C393.587 35.2924 393.991 35.0684 393.966 34.714C393.961 34.6548 393.947 34.5909 393.918 34.4793C393.803 33.6601 393.763 33.3971 393.672 32.9119C393.637 32.7317 393.602 32.5609 393.566 32.3997C393.502 32.1142 393.46 31.9397 393.416 31.7755C393.409 31.7464 393.409 31.7464 393.401 31.7176C393.378 31.6328 393.274 31.2629 393.281 31.2877C393.229 31.1031 393.186 30.934 393.136 30.7264C393.125 30.6791 393.125 30.6791 393.114 30.6315C393.047 30.348 393.01 30.1898 392.968 30.0182C392.858 29.5626 392.733 28.931 392.7 28.6106C392.625 27.8863 392.677 27.2764 392.876 27.0437C393.032 26.8621 393.473 26.7896 393.719 26.9143C393.88 26.9958 394.041 27.1757 394.193 27.4361C394.251 27.5347 394.305 27.6404 394.36 27.7597C394.394 27.832 394.493 28.0581 394.482 28.0331C394.692 28.503 394.837 29.0639 394.97 29.8998C395.009 30.1474 395.058 30.428 395.121 30.7713C395.139 30.8731 395.139 30.8731 395.158 30.9744C395.459 32.6098 395.437 32.4858 395.442 32.6162C395.457 33.092 396.16 33.1032 396.191 32.6281C396.2 32.4775 396.197 32.343 396.18 31.9567C396.177 31.902 396.177 31.902 396.175 31.8476C396.16 31.4917 396.16 31.2869 396.181 31.1705C396.22 30.9583 396.41 30.7205 396.586 30.6681C396.832 30.5949 397.102 30.5763 397.318 30.621C397.526 30.6634 397.767 30.8227 397.836 30.9417C397.92 31.0857 397.992 31.305 398.047 31.577C398.091 31.7964 398.121 32.0319 398.143 32.2832C398.149 32.3614 398.154 32.4218 398.16 32.5217C398.163 32.5636 398.163 32.5636 398.166 32.5981C398.168 32.6154 398.168 32.6154 398.172 32.6428C398.175 32.6619 398.175 32.6619 398.189 32.7105C398.196 32.8483 398.196 32.8483 398.75 32.8994C398.915 32.6996 398.915 32.6996 398.911 32.6646C398.938 32.5462 398.954 32.4143 398.978 32.1664C398.993 32.0053 399.001 31.9261 399.009 31.8439C399.046 31.5038 399.093 31.2877 399.15 31.1927C399.221 31.0745 399.47 30.9099 399.581 30.8899C399.862 30.8403 400.17 30.8347 400.408 30.8809C400.516 30.9021 400.778 31.1051 400.841 31.2021C400.968 31.4037 401.093 32.0535 401.163 32.6982C401.152 32.7405 401.152 32.7405 401.323 32.9859C401.914 32.9185 401.914 32.9185 401.897 32.812C401.913 32.774 401.925 32.73 401.943 32.6618C401.985 32.5021 402.013 32.4094 402.054 32.3055C402.083 32.2336 402.114 32.1721 402.145 32.1232C402.265 31.9333 402.578 31.8042 402.852 31.8465C403.146 31.892 403.334 32.1132 403.352 32.5755C403.366 32.9559 403.371 33.1022 403.372 33.2457C403.372 33.2987 403.372 33.3412 403.372 33.4608C403.371 33.5347 403.371 33.5347 403.371 33.6248C403.371 34.1137 403.361 34.4183 403.332 34.7988C403.282 35.4521 403.196 36.1416 403.104 36.4659C403.009 36.7965 402.727 37.4168 402.504 37.7394C402.488 37.7547 402.42 37.8358 402.333 37.943C402.189 38.1215 402.044 38.308 401.909 38.4943C401.836 38.594 401.768 38.6912 401.705 38.7852C401.461 39.149 401.305 39.446 401.254 39.6895C401.188 40.0059 401.164 40.1737 401.157 40.3557C401.155 40.4072 401.155 40.4072 401.154 40.4572C401.152 40.5752 401.15 40.6229 401.145 40.7092C401.14 40.7999 401.141 40.8964 401.149 40.9983C401.159 41.1443 401.149 41.3438 401.149 41.3438C401.149 41.3438 401.022 41.332 400.881 41.3352C400.708 41.3392 400.565 41.3333 400.466 41.3175C400.323 41.2944 399.936 40.811 399.738 40.4344C399.436 39.858 398.702 39.886 398.402 40.395C398.13 40.8568 397.742 41.3122 397.627 41.3267C397.252 41.3738 396.672 41.3792 395.555 41.36C395.448 41.3581 395.448 41.3581 395.341 41.3562C394.913 41.3486 394.929 41.421 394.938 41.3438C394.963 41.1235 394.96 41.1648 394.938 40.9445C394.901 40.5752 394.787 40.274 394.549 40.074C394.426 39.9696 394.279 39.8332 393.984 39.5529C393.647 39.2325 393.541 39.1335 393.411 39.0191L392.61 38.1284C392.522 38.0159 391.75 36.6945 391.397 36.183C391.26 35.9844 391.209 35.92 390.683 35.2715ZM400.191 35.2753V38.7343C400.191 39.2343 400.941 39.2343 400.941 38.7343V35.2753C400.941 34.7753 400.191 34.7753 400.191 35.2753ZM398.16 35.2747L398.176 38.7477C398.178 39.2477 398.928 39.2443 398.926 38.7443L398.91 35.2713C398.907 34.7713 398.157 34.7747 398.16 35.2747ZM396.951 38.7283L396.93 35.3023C396.927 34.8023 396.177 34.8069 396.18 35.3069L396.201 38.7329C396.204 39.2329 396.954 39.2283 396.951 38.7283Z" fill="#FFFFFF" />
      </g>
    </g>
  </g>
  <defs>
    <filter id="filter0_d_507_8610" x="8" y="16" width="459" height="216" filterUnits="userSpaceOnUse" color-interpolation-filters="sRGB">
      <feFlood flood-opacity="0" result="BackgroundImageFix" />
      <feColorMatrix in="SourceAlpha" type="matrix" values="0 0 0 0 0 0 0 0 0 0 0 0 0 0 0 0 0 0 127 0" result="hardAlpha" />
      <feOffset dy="2" />
      <feGaussianBlur stdDeviation="8" />
      <feColorMatrix type="matrix" values="0 0 0 0 0 0 0 0 0 0 0 0 0 0 0 0 0 0 0.36 0" />
      <feBlend mode="normal" in2="BackgroundImageFix" result="effect1_dropShadow_507_8610" />
      <feBlend mode="normal" in="SourceGraphic" in2="effect1_dropShadow_507_8610" result="shape" />
    </filter>
    <filter id="filter1_d_507_8610" x="386.065" y="24.1021" width="21.0571" height="22.0186" filterUnits="userSpaceOnUse" color-interpolation-filters="sRGB">
      <feFlood flood-opacity="0" result="BackgroundImageFix" />
      <feColorMatrix in="SourceAlpha" type="matrix" values="0 0 0 0 0 0 0 0 0 0 0 0 0 0 0 0 0 0 127 0" result="hardAlpha" />
      <feOffset dy="1" />
      <feGaussianBlur stdDeviation="1.5" />
      <feColorMatrix type="matrix" values="0 0 0 0 0 0 0 0 0 0 0 0 0 0 0 0 0 0 0.298656 0" />
      <feBlend mode="normal" in2="BackgroundImageFix" result="effect1_dropShadow_507_8610" />
      <feBlend mode="normal" in="SourceGraphic" in2="effect1_dropShadow_507_8610" result="shape" />
    </filter>
    <clipPath id="clip0_507_8610">
      <rect width="123" height="35" fill="#FFFFFF" />
    </clipPath>
    <clipPath id="clip1_507_8610">
      <rect width="108" height="24" fill="#FFFFFF" transform="translate(355 6)" />
    </clipPath>
  </defs>
</svg>