<svg width="410" height="370" viewBox="0 0 410 370" fill="none" xmlns="http://www.w3.org/2000/svg">
<g clip-path="url(#clip0_4_8570)">
<rect width="198" height="318" transform="translate(212 24)" fill="var(--vscode-editor-background, #1e1e1e)"/>
<rect width="336" height="35" transform="translate(212 24)" fill="var(--vscode-editorGroupHeader-tabsBackground, #252526)"/>
<rect width="103" height="35" transform="translate(212 24)" fill="var(--vscode-tab-activeBackground, #1e1e1e)"/>
<rect x="224" y="38" width="79" height="7" rx="3.5" fill="var(--vscode-foreground)" fill-opacity="0.25"/>
<rect x="255" y="77" width="55" height="7" rx="3.5" fill="var(--vscode-foreground)" fill-opacity="0.25"/>
<rect x="255" y="96" width="55" height="7" rx="3.5" fill="var(--vscode-foreground)" fill-opacity="0.25"/>
<rect x="255" y="153" width="72" height="7" rx="3.5" fill="var(--vscode-foreground)" fill-opacity="0.25"/>
<rect x="333" y="153" width="26" height="7" rx="3.5" fill="var(--vscode-foreground)" fill-opacity="0.25"/>
<rect x="255" y="273" width="72" height="7" rx="3.5" fill="var(--vscode-foreground)" fill-opacity="0.25"/>
<rect x="333" y="273" width="26" height="7" rx="3.5" fill="var(--vscode-foreground)" fill-opacity="0.25"/>
<rect x="272" y="172" width="30" height="7" rx="3.5" fill="var(--vscode-foreground)" fill-opacity="0.25"/>
<rect x="282" y="191" width="30" height="7" rx="3.5" fill="var(--vscode-foreground)" fill-opacity="0.25"/>
<rect x="318" y="191" width="41" height="7" rx="3.5" fill="var(--vscode-foreground)" fill-opacity="0.25"/>
<rect x="272" y="210" width="30" height="7" rx="3.5" fill="var(--vscode-foreground)" fill-opacity="0.25"/>
<rect x="263" y="229" width="31" height="7" rx="3.5" fill="var(--vscode-foreground)" fill-opacity="0.25"/>
<rect x="316" y="77" width="52" height="7" rx="3.5" fill="var(--vscode-foreground)" fill-opacity="0.25"/>
<rect x="316" y="96" width="74" height="7" rx="3.5" fill="var(--vscode-foreground)" fill-opacity="0.25"/>
<rect x="309" y="172" width="59" height="7" rx="3.5" fill="var(--vscode-foreground)" fill-opacity="0.25"/>
</g>
<g filter="url(#filter0_d_4_8570)">
<rect x="13" y="11" width="212.268" height="344" fill="var(--vscode-editorGroupHeader-tabsBackground, #252526)"/>
<path d="M34.8806 39.7485H31.8019V37.7509H34.716V36.9234H31.8019V35.0459H34.8806V34.1872H30.8053V40.6072H34.8806V39.7485ZM35.9128 40.6072H37.0161L38.6133 38.1914H38.689L40.2639 40.6072H41.4296L39.2896 37.4083L41.4696 34.1872H40.3485L38.7602 36.6386H38.6845L37.1229 34.1872H35.935L38.0572 37.3772L35.9128 40.6072ZM42.6753 34.1872V40.6072H43.6719V38.4138H45.1579C46.4169 38.4138 47.3067 37.5507 47.3067 36.3139C47.3067 35.0503 46.4436 34.1872 45.189 34.1872H42.6753ZM43.6719 35.0281H44.9265C45.803 35.0281 46.2879 35.4819 46.2879 36.3139C46.2879 37.1191 45.7852 37.5774 44.9265 37.5774H43.6719V35.0281ZM52.5967 39.7396H49.5891V34.1872H48.5925V40.6072H52.5967V39.7396ZM56.3561 34.0315C54.5142 34.0315 53.3574 35.3262 53.3574 37.395C53.3574 39.4593 54.4875 40.7629 56.3561 40.7629C58.2113 40.7629 59.3503 39.4549 59.3503 37.395C59.3503 35.3306 58.2024 34.0315 56.3561 34.0315ZM56.3561 34.9124C57.5707 34.9124 58.3315 35.8734 58.3315 37.395C58.3315 38.9032 57.5751 39.882 56.3561 39.882C55.1193 39.882 54.3763 38.9032 54.3763 37.395C54.3763 35.8734 55.1415 34.9124 56.3561 34.9124ZM61.6994 38.138H63.1053L64.4133 40.6072H65.5656L64.1241 37.9822C64.9071 37.7198 65.3698 37.0168 65.3698 36.1492C65.3698 34.9525 64.5379 34.1872 63.2432 34.1872H60.7028V40.6072H61.6994V38.138ZM61.6994 35.0236H63.1053C63.875 35.0236 64.3466 35.4552 64.3466 36.1715C64.3466 36.9056 63.9017 37.3193 63.132 37.3193H61.6994V35.0236ZM70.8644 39.7485H67.7857V37.7509H70.6998V36.9234H67.7857V35.0459H70.8644V34.1872H66.7891V40.6072H70.8644V39.7485ZM73.3025 38.138H74.7084L76.0164 40.6072H77.1687L75.7272 37.9822C76.5102 37.7198 76.9729 37.0168 76.9729 36.1492C76.9729 34.9525 76.141 34.1872 74.8463 34.1872H72.3059V40.6072H73.3025V38.138ZM73.3025 35.0236H74.7084C75.478 35.0236 75.9496 35.4552 75.9496 36.1715C75.9496 36.9056 75.5047 37.3193 74.7351 37.3193H73.3025V35.0236ZM79.0239 37.3327C79.4021 37.3327 79.6779 37.0524 79.6779 36.692C79.6779 36.3317 79.4021 36.0514 79.0239 36.0514C78.6502 36.0514 78.3699 36.3317 78.3699 36.692C78.3699 37.0524 78.6502 37.3327 79.0239 37.3327ZM79.0239 40.6739C79.4021 40.6739 79.6779 40.3936 79.6779 40.0333C79.6779 39.6729 79.4021 39.3926 79.0239 39.3926C78.6502 39.3926 78.3699 39.6729 78.3699 40.0333C78.3699 40.3936 78.6502 40.6739 79.0239 40.6739ZM90.2533 40.6072V34.1872H89.0876L87.0411 39.2102H86.9655L84.9233 34.1872H83.7577V40.6072H84.6831V35.9045H84.7454L86.6273 40.4915H87.3837L89.2656 35.9045H89.3279V40.6072H90.2533ZM94.6311 40.6072V37.9778L96.8957 34.1872H95.7879L94.1729 36.9857H94.0973L92.4823 34.1872H91.3745L93.6346 37.9778V40.6072H94.6311ZM100.179 38.4627V37.5774H97.2605V38.4627H100.179ZM105.674 40.6072H106.733L104.415 34.1872H103.342L101.024 40.6072H102.048L102.639 38.8721H105.086L105.674 40.6072ZM103.827 35.3217H103.903L104.833 38.0712H102.893L103.827 35.3217ZM107.854 34.1872V40.6072H108.85V38.4138H110.336C111.595 38.4138 112.485 37.5507 112.485 36.3139C112.485 35.0503 111.622 34.1872 110.367 34.1872H107.854ZM108.85 35.0281H110.105C110.981 35.0281 111.466 35.4819 111.466 36.3139C111.466 37.1191 110.964 37.5774 110.105 37.5774H108.85V35.0281ZM113.771 34.1872V40.6072H114.767V38.4138H116.253C117.513 38.4138 118.402 37.5507 118.402 36.3139C118.402 35.0503 117.539 34.1872 116.285 34.1872H113.771ZM114.767 35.0281H116.022C116.899 35.0281 117.384 35.4819 117.384 36.3139C117.384 37.1191 116.881 37.5774 116.022 37.5774H114.767V35.0281Z" fill="var(--vscode-foreground)"/>
<path d="M35.984 65.0998L40.336 60.7478L40.96 61.3718L36.288 66.0278H35.664L31.008 61.3718L31.616 60.7478L35.984 65.0998Z" fill="var(--vscode-foreground)"/>
<rect x="52" y="59.5358" width="42" height="7" rx="3.5" fill="var(--vscode-foreground)" fill-opacity="0.25"/>
<rect width="210.268" height="24" transform="translate(14 75.0358)" fill="var(--vscode-list-activeSelectionBackground)"/>
<path d="M43.18 86.7158C43.18 85.9291 43.3067 85.2224 43.56 84.5958C43.8133 83.9691 44.14 83.4558 44.54 83.0558C44.9533 82.6424 45.46 82.3024 46.06 82.0358C46.5267 81.8224 47.1333 81.7158 47.88 81.7158C48.5067 81.7158 49.0667 81.8424 49.56 82.0958C50.0667 82.3491 50.4867 82.6424 50.82 82.9758L49.44 84.5358L49.28 84.4158C49.0533 84.2424 48.88 84.1358 48.76 84.0958L48.54 84.0358C48.2733 83.9558 48.0533 83.9158 47.88 83.9158C47.5867 83.9158 47.3133 83.9758 47.06 84.0958C46.78 84.2424 46.5533 84.4358 46.38 84.6758C46.2067 84.9024 46.06 85.1958 45.94 85.5558C45.82 85.9158 45.76 86.3024 45.76 86.7158C45.76 87.6758 45.9667 88.3624 46.38 88.7758C46.5933 89.0424 46.8333 89.2358 47.1 89.3558C47.3667 89.4758 47.6667 89.5358 48 89.5358C48.3333 89.5358 48.6267 89.4758 48.88 89.3558C49.16 89.2091 49.3867 89.0158 49.56 88.7758L50.94 90.3558C50.5533 90.7958 50.0933 91.1491 49.56 91.4158C49.0667 91.6558 48.5067 91.7758 47.88 91.7758C47.2933 91.7758 46.6867 91.6758 46.06 91.4758C45.5 91.2891 45 90.9758 44.56 90.5358C44.3733 90.3358 44.1933 90.0758 44.02 89.7558C43.9267 89.5691 43.7933 89.2691 43.62 88.8558C43.3267 88.2691 43.18 87.5558 43.18 86.7158ZM49.38 85.0958H48.5V86.1558H47.5V87.0358H48.5V88.1558H49.38V87.0358H50.38V86.1558H49.38V85.0958ZM53.12 86.0958V84.8558H52.06V86.0958H50.88V87.1558H52.06V88.4758H53.12V87.1558H54.32V86.0958H53.12Z" fill="#519ABA"/>
<path d="M65.0537 91.0358H66.4185V86.9987C66.4185 85.9196 67.0405 85.2023 68.1577 85.2023C69.1226 85.2023 69.6367 85.7672 69.6367 86.9034V91.0358H71.0015V86.5797C71.0015 84.9484 70.0938 84.0153 68.6211 84.0153C67.5801 84.0153 66.8501 84.4723 66.5137 85.2404H66.4058V81.4381H65.0537V91.0358ZM77.457 89.1886C77.2031 89.7472 76.6382 90.0519 75.813 90.0519C74.7212 90.0519 74.0166 89.2648 73.9722 88.0143V87.9508H78.8535V87.4811C78.8535 85.3229 77.6919 84.0089 75.7686 84.0089C73.8198 84.0089 72.582 85.4117 72.582 87.6017C72.582 89.8043 73.7944 91.1691 75.7749 91.1691C77.3555 91.1691 78.4727 90.4073 78.771 89.1886H77.457ZM75.7622 85.1198C76.7715 85.1198 77.4316 85.8497 77.4634 86.9669H73.9722C74.0483 85.8561 74.7529 85.1198 75.7622 85.1198ZM80.5547 91.0358H81.9194V81.4381H80.5547V91.0358ZM84.0332 91.0358H85.3979V81.4381H84.0332V91.0358ZM90.3682 91.1691C92.3867 91.1691 93.6245 89.817 93.6245 87.589C93.6245 85.361 92.3804 84.0089 90.3682 84.0089C88.3496 84.0089 87.1055 85.3673 87.1055 87.589C87.1055 89.817 88.3433 91.1691 90.3682 91.1691ZM90.3682 90.0074C89.1812 90.0074 88.5146 89.1251 88.5146 87.589C88.5146 86.0529 89.1812 85.1642 90.3682 85.1642C91.5488 85.1642 92.2217 86.0529 92.2217 87.589C92.2217 89.1188 91.5488 90.0074 90.3682 90.0074ZM104.003 84.1422H102.638L101.407 89.4615H101.299L99.877 84.1422H98.5693L97.1475 89.4615H97.0459L95.8081 84.1422H94.4243L96.3286 91.0358H97.7314L99.1533 85.8942H99.2612L100.689 91.0358H102.105L104.003 84.1422ZM108.065 91.1691C110.084 91.1691 111.322 89.817 111.322 87.589C111.322 85.361 110.078 84.0089 108.065 84.0089C106.047 84.0089 104.803 85.3673 104.803 87.589C104.803 89.817 106.041 91.1691 108.065 91.1691ZM108.065 90.0074C106.878 90.0074 106.212 89.1251 106.212 87.589C106.212 86.0529 106.878 85.1642 108.065 85.1642C109.246 85.1642 109.919 86.0529 109.919 87.589C109.919 89.1188 109.246 90.0074 108.065 90.0074ZM112.966 91.0358H114.331V86.9161C114.331 85.9449 115.061 85.2784 116.095 85.2784C116.336 85.2784 116.743 85.3229 116.857 85.3546V84.0724C116.711 84.0406 116.451 84.0216 116.248 84.0216C115.346 84.0216 114.578 84.5104 114.381 85.1896H114.28V84.1422H112.966V91.0358ZM118.234 91.0358H119.599V81.4381H118.234V91.0358ZM124.176 91.15C125.128 91.15 125.934 90.6993 126.347 89.944H126.455V91.0358H127.762V81.4381H126.397V85.234H126.296C125.921 84.4786 125.122 84.0216 124.176 84.0216C122.43 84.0216 121.307 85.4117 121.307 87.5826C121.307 89.7662 122.417 91.15 124.176 91.15ZM124.563 85.1896C125.706 85.1896 126.423 86.1163 126.423 87.589C126.423 89.0743 125.712 89.9821 124.563 89.9821C123.408 89.9821 122.716 89.087 122.716 87.589C122.716 86.0973 123.414 85.1896 124.563 85.1896ZM130.873 91.131C131.412 91.131 131.806 90.7311 131.806 90.2169C131.806 89.7028 131.412 89.3029 130.873 89.3029C130.339 89.3029 129.939 89.7028 129.939 90.2169C129.939 90.7311 130.339 91.131 130.873 91.131ZM139.512 86.3575C139.334 85.0182 138.287 84.0089 136.554 84.0089C134.542 84.0089 133.316 85.3737 133.316 87.5636C133.316 89.798 134.548 91.1691 136.56 91.1691C138.268 91.1691 139.334 90.2106 139.512 88.8522H138.185C138.007 89.6012 137.417 90.0074 136.554 90.0074C135.417 90.0074 134.713 89.087 134.713 87.5636C134.713 86.0719 135.411 85.1705 136.554 85.1705C137.468 85.1705 138.026 85.6847 138.185 86.3575H139.512ZM144.66 84.0216C143.72 84.0216 142.908 84.4977 142.489 85.2848H142.387V84.1422H141.073V93.3336H142.438V89.9948H142.546C142.908 90.7247 143.688 91.15 144.672 91.15C146.418 91.15 147.529 89.7662 147.529 87.589C147.529 85.399 146.418 84.0216 144.66 84.0216ZM144.272 89.9821C143.13 89.9821 142.413 89.0616 142.413 87.589C142.413 86.11 143.13 85.1896 144.279 85.1896C145.434 85.1896 146.126 86.0909 146.126 87.589C146.126 89.087 145.434 89.9821 144.272 89.9821ZM152.759 84.0216C151.82 84.0216 151.007 84.4977 150.588 85.2848H150.487V84.1422H149.173V93.3336H150.538V89.9948H150.646C151.007 90.7247 151.788 91.15 152.772 91.15C154.518 91.15 155.628 89.7662 155.628 87.589C155.628 85.399 154.518 84.0216 152.759 84.0216ZM152.372 89.9821C151.229 89.9821 150.512 89.0616 150.512 87.589C150.512 86.11 151.229 85.1896 152.378 85.1896C153.534 85.1896 154.226 86.0909 154.226 87.589C154.226 89.087 153.534 89.9821 152.372 89.9821Z" fill="var(--vscode-list-activeSelectionForeground)"/>
<path d="M47.984 113.1L52.336 108.748L52.96 109.372L48.288 114.028H47.664L43.008 109.372L43.616 108.748L47.984 113.1Z" fill="var(--vscode-foreground)"/>
<rect x="64" y="107.536" width="42" height="7" rx="3.5" fill="var(--vscode-foreground)" fill-opacity="0.25"/>
<path d="M42.68 134.476C43.1067 134.476 43.4067 134.376 43.58 134.176C43.7 134.029 43.76 133.816 43.76 133.536C43.76 133.416 43.7467 133.242 43.72 133.016C43.6933 132.776 43.68 132.596 43.68 132.476C43.68 132.342 43.6733 132.149 43.66 131.896C43.6333 131.669 43.62 131.509 43.62 131.416C43.62 130.776 43.8067 130.302 44.18 129.996C44.5533 129.689 45.08 129.536 45.76 129.536H46.26V130.716H46C45.7067 130.716 45.4933 130.802 45.36 130.976C45.24 131.136 45.18 131.382 45.18 131.716C45.18 131.796 45.1933 131.916 45.22 132.076C45.2467 132.276 45.26 132.429 45.26 132.536C45.26 132.616 45.2667 132.742 45.28 132.916C45.3067 133.156 45.32 133.342 45.32 133.476C45.32 133.982 45.2133 134.362 45 134.616C44.8133 134.842 44.52 135.002 44.12 135.096C44.52 135.202 44.8133 135.362 45 135.576C45.2133 135.842 45.32 136.222 45.32 136.716C45.32 136.862 45.3067 137.056 45.28 137.296C45.2533 137.469 45.24 137.596 45.24 137.676C45.2533 137.756 45.2467 137.896 45.22 138.096C45.1933 138.242 45.18 138.349 45.18 138.416C45.18 138.749 45.24 139.002 45.36 139.176C45.4933 139.336 45.7067 139.416 46 139.416H46.26V140.596H45.76C44.3733 140.596 43.68 139.969 43.68 138.716C43.68 138.262 43.7 137.916 43.74 137.676C43.7933 137.422 43.82 137.062 43.82 136.596C43.82 135.969 43.4667 135.656 42.76 135.656L42.68 134.476ZM53.32 135.536C52.6133 135.536 52.26 135.849 52.26 136.476C52.26 136.596 52.2667 136.776 52.28 137.016C52.3067 137.242 52.32 137.416 52.32 137.536C52.36 137.789 52.38 138.142 52.38 138.596C52.38 139.849 51.6733 140.476 50.26 140.476H49.76V139.416H50C50.2933 139.416 50.5 139.336 50.62 139.176C50.7533 139.002 50.82 138.749 50.82 138.416C50.82 138.082 50.8 137.829 50.76 137.656C50.76 137.549 50.7467 137.396 50.72 137.196C50.6933 136.982 50.68 136.822 50.68 136.716C50.68 136.222 50.7867 135.842 51 135.576C51.1867 135.362 51.48 135.202 51.88 135.096C51.48 135.002 51.1867 134.842 51 134.616C50.7867 134.362 50.68 133.982 50.68 133.476C50.68 133.342 50.6933 133.156 50.72 132.916C50.7467 132.742 50.76 132.616 50.76 132.536C50.8 132.322 50.82 132.056 50.82 131.736C50.82 131.416 50.7533 131.176 50.62 131.016C50.4867 130.856 50.28 130.756 50 130.716H49.76V129.536H50.26C50.9267 129.536 51.4467 129.689 51.82 129.996C52.1933 130.302 52.38 130.776 52.38 131.416C52.38 131.536 52.3667 131.716 52.34 131.956C52.3267 132.182 52.32 132.356 52.32 132.476C52.28 132.729 52.2533 133.082 52.24 133.536C52.2533 133.816 52.3133 134.029 52.42 134.176C52.5933 134.376 52.8933 134.476 53.32 134.476V135.536Z" fill="#CBCB41"/>
<path d="M70.8428 134.358C70.665 133.018 69.6177 132.009 67.8848 132.009C65.8726 132.009 64.6475 133.374 64.6475 135.564C64.6475 137.798 65.8789 139.169 67.8911 139.169C69.5986 139.169 70.665 138.211 70.8428 136.852H69.5161C69.3384 137.601 68.748 138.007 67.8848 138.007C66.7485 138.007 66.0439 137.087 66.0439 135.564C66.0439 134.072 66.7422 133.171 67.8848 133.171C68.7988 133.171 69.3574 133.685 69.5161 134.358H70.8428ZM77.2539 140.731V139.715H71.2808V140.731H77.2539ZM83.8047 134.358C83.627 133.018 82.5796 132.009 80.8467 132.009C78.8345 132.009 77.6094 133.374 77.6094 135.564C77.6094 137.798 78.8408 139.169 80.853 139.169C82.5605 139.169 83.627 138.211 83.8047 136.852H82.478C82.3003 137.601 81.71 138.007 80.8467 138.007C79.7104 138.007 79.0059 137.087 79.0059 135.564C79.0059 134.072 79.7041 133.171 80.8467 133.171C81.7607 133.171 82.3193 133.685 82.478 134.358H83.8047ZM88.9526 132.022C88.0132 132.022 87.2007 132.498 86.7817 133.285H86.6802V132.142H85.3662V141.334H86.731V137.995H86.8389C87.2007 138.725 87.9814 139.15 88.9653 139.15C90.7109 139.15 91.8218 137.766 91.8218 135.589C91.8218 133.399 90.7109 132.022 88.9526 132.022ZM88.5654 137.982C87.4229 137.982 86.7056 137.062 86.7056 135.589C86.7056 134.11 87.4229 133.19 88.5718 133.19C89.7271 133.19 90.4189 134.091 90.4189 135.589C90.4189 137.087 89.7271 137.982 88.5654 137.982ZM97.0522 132.022C96.1128 132.022 95.3003 132.498 94.8813 133.285H94.7798V132.142H93.4658V141.334H94.8306V137.995H94.9385C95.3003 138.725 96.0811 139.15 97.0649 139.15C98.8105 139.15 99.9214 137.766 99.9214 135.589C99.9214 133.399 98.8105 132.022 97.0522 132.022ZM96.665 137.982C95.5225 137.982 94.8052 137.062 94.8052 135.589C94.8052 134.11 95.5225 133.19 96.6714 133.19C97.8267 133.19 98.5186 134.091 98.5186 135.589C98.5186 137.087 97.8267 137.982 96.665 137.982ZM106.263 140.731V139.715H100.29V140.731H106.263ZM111.398 132.022C110.458 132.022 109.646 132.498 109.227 133.285H109.125V132.142H107.812V141.334H109.176V137.995H109.284C109.646 138.725 110.427 139.15 111.411 139.15C113.156 139.15 114.267 137.766 114.267 135.589C114.267 133.399 113.156 132.022 111.398 132.022ZM111.011 137.982C109.868 137.982 109.151 137.062 109.151 135.589C109.151 134.11 109.868 133.19 111.017 133.19C112.172 133.19 112.864 134.091 112.864 135.589C112.864 137.087 112.172 137.982 111.011 137.982ZM115.911 139.036H117.276V134.916C117.276 133.945 118.006 133.278 119.041 133.278C119.282 133.278 119.688 133.323 119.802 133.355V132.072C119.656 132.041 119.396 132.022 119.193 132.022C118.292 132.022 117.523 132.51 117.327 133.19H117.225V132.142H115.911V139.036ZM123.858 139.169C125.877 139.169 127.115 137.817 127.115 135.589C127.115 133.361 125.871 132.009 123.858 132.009C121.84 132.009 120.596 133.367 120.596 135.589C120.596 137.817 121.833 139.169 123.858 139.169ZM123.858 138.007C122.671 138.007 122.005 137.125 122.005 135.589C122.005 134.053 122.671 133.164 123.858 133.164C125.039 133.164 125.712 134.053 125.712 135.589C125.712 137.119 125.039 138.007 123.858 138.007ZM132.345 132.022C131.406 132.022 130.593 132.498 130.174 133.285H130.073V132.142H128.759V141.334H130.124V137.995H130.231C130.593 138.725 131.374 139.15 132.358 139.15C134.104 139.15 135.214 137.766 135.214 135.589C135.214 133.399 134.104 132.022 132.345 132.022ZM131.958 137.982C130.815 137.982 130.098 137.062 130.098 135.589C130.098 134.11 130.815 133.19 131.964 133.19C133.12 133.19 133.812 134.091 133.812 135.589C133.812 137.087 133.12 137.982 131.958 137.982ZM141.391 137.189C141.137 137.747 140.572 138.052 139.747 138.052C138.655 138.052 137.95 137.265 137.906 136.014V135.951H142.787V135.481C142.787 133.323 141.625 132.009 139.702 132.009C137.753 132.009 136.516 133.412 136.516 135.602C136.516 137.804 137.728 139.169 139.708 139.169C141.289 139.169 142.406 138.407 142.705 137.189H141.391ZM139.696 133.12C140.705 133.12 141.365 133.85 141.397 134.967H137.906C137.982 133.856 138.687 133.12 139.696 133.12ZM144.425 139.036H145.79V134.916C145.79 133.945 146.52 133.278 147.554 133.278C147.795 133.278 148.202 133.323 148.316 133.355V132.072C148.17 132.041 147.91 132.022 147.707 132.022C146.805 132.022 146.037 132.51 145.84 133.19H145.739V132.142H144.425V139.036ZM150.468 130.403V132.161H149.37V133.253H150.468V137.22C150.468 138.547 151.071 139.08 152.588 139.08C152.854 139.08 153.108 139.048 153.331 139.01V137.925C153.14 137.944 153.02 137.957 152.81 137.957C152.131 137.957 151.833 137.633 151.833 136.89V133.253H153.331V132.161H151.833V130.403H150.468ZM155.641 130.911C156.117 130.911 156.504 130.524 156.504 130.054C156.504 129.578 156.117 129.191 155.641 129.191C155.165 129.191 154.778 129.578 154.778 130.054C154.778 130.524 155.165 130.911 155.641 130.911ZM154.962 139.036H156.32V132.142H154.962V139.036ZM162.858 137.189C162.604 137.747 162.04 138.052 161.214 138.052C160.123 138.052 159.418 137.265 159.374 136.014V135.951H164.255V135.481C164.255 133.323 163.093 132.009 161.17 132.009C159.221 132.009 157.983 133.412 157.983 135.602C157.983 137.804 159.196 139.169 161.176 139.169C162.757 139.169 163.874 138.407 164.172 137.189H162.858ZM161.164 133.12C162.173 133.12 162.833 133.85 162.865 134.967H159.374C159.45 133.856 160.154 133.12 161.164 133.12ZM165.734 134.072C165.734 135.094 166.343 135.678 167.657 135.983L168.863 136.268C169.555 136.433 169.879 136.713 169.879 137.144C169.879 137.709 169.276 138.103 168.425 138.103C167.6 138.103 167.092 137.766 166.921 137.227H165.556C165.677 138.426 166.75 139.169 168.394 139.169C170.044 139.169 171.256 138.299 171.256 137.017C171.256 136.014 170.641 135.449 169.327 135.145L168.178 134.878C167.429 134.7 167.08 134.434 167.08 134.008C167.08 133.45 167.657 133.075 168.419 133.075C169.193 133.075 169.688 133.412 169.815 133.926H171.123C170.99 132.733 169.974 132.009 168.419 132.009C166.857 132.009 165.734 132.872 165.734 134.072ZM173.96 139.131C174.5 139.131 174.894 138.731 174.894 138.217C174.894 137.703 174.5 137.303 173.96 137.303C173.427 137.303 173.027 137.703 173.027 138.217C173.027 138.731 173.427 139.131 173.96 139.131ZM177.718 130.911C178.188 130.911 178.582 130.524 178.582 130.054C178.582 129.578 178.188 129.191 177.718 129.191C177.242 129.191 176.855 129.578 176.855 130.054C176.855 130.524 177.242 130.911 177.718 130.911ZM178.385 132.142H177.026V139.328C177.026 140.02 176.772 140.299 176.042 140.299C176.023 140.299 175.871 140.299 175.852 140.299V141.391C175.884 141.391 176.106 141.397 176.157 141.397C177.655 141.397 178.385 140.75 178.385 139.334V132.142ZM180.232 134.072C180.232 135.094 180.841 135.678 182.155 135.983L183.361 136.268C184.053 136.433 184.377 136.713 184.377 137.144C184.377 137.709 183.774 138.103 182.923 138.103C182.098 138.103 181.59 137.766 181.419 137.227H180.054C180.175 138.426 181.248 139.169 182.892 139.169C184.542 139.169 185.754 138.299 185.754 137.017C185.754 136.014 185.139 135.449 183.825 135.145L182.676 134.878C181.927 134.7 181.578 134.434 181.578 134.008C181.578 133.45 182.155 133.075 182.917 133.075C183.691 133.075 184.187 133.412 184.313 133.926H185.621C185.488 132.733 184.472 132.009 182.917 132.009C181.355 132.009 180.232 132.872 180.232 134.072ZM190.318 139.169C192.337 139.169 193.575 137.817 193.575 135.589C193.575 133.361 192.331 132.009 190.318 132.009C188.3 132.009 187.056 133.367 187.056 135.589C187.056 137.817 188.293 139.169 190.318 139.169ZM190.318 138.007C189.131 138.007 188.465 137.125 188.465 135.589C188.465 134.053 189.131 133.164 190.318 133.164C191.499 133.164 192.172 134.053 192.172 135.589C192.172 137.119 191.499 138.007 190.318 138.007ZM195.219 139.036H196.583V134.992C196.583 133.881 197.225 133.196 198.234 133.196C199.243 133.196 199.726 133.755 199.726 134.897V139.036H201.09V134.573C201.09 132.929 200.24 132.009 198.697 132.009C197.656 132.009 196.971 132.472 196.634 133.234H196.533V132.142H195.219V139.036Z" fill="var(--vscode-foreground)"/>
<path d="M42.68 158.476C43.1067 158.476 43.4067 158.376 43.58 158.176C43.7 158.029 43.76 157.816 43.76 157.536C43.76 157.416 43.7467 157.242 43.72 157.016C43.6933 156.776 43.68 156.596 43.68 156.476C43.68 156.342 43.6733 156.149 43.66 155.896C43.6333 155.669 43.62 155.509 43.62 155.416C43.62 154.776 43.8067 154.302 44.18 153.996C44.5533 153.689 45.08 153.536 45.76 153.536H46.26V154.716H46C45.7067 154.716 45.4933 154.802 45.36 154.976C45.24 155.136 45.18 155.382 45.18 155.716C45.18 155.796 45.1933 155.916 45.22 156.076C45.2467 156.276 45.26 156.429 45.26 156.536C45.26 156.616 45.2667 156.742 45.28 156.916C45.3067 157.156 45.32 157.342 45.32 157.476C45.32 157.982 45.2133 158.362 45 158.616C44.8133 158.842 44.52 159.002 44.12 159.096C44.52 159.202 44.8133 159.362 45 159.576C45.2133 159.842 45.32 160.222 45.32 160.716C45.32 160.862 45.3067 161.056 45.28 161.296C45.2533 161.469 45.24 161.596 45.24 161.676C45.2533 161.756 45.2467 161.896 45.22 162.096C45.1933 162.242 45.18 162.349 45.18 162.416C45.18 162.749 45.24 163.002 45.36 163.176C45.4933 163.336 45.7067 163.416 46 163.416H46.26V164.596H45.76C44.3733 164.596 43.68 163.969 43.68 162.716C43.68 162.262 43.7 161.916 43.74 161.676C43.7933 161.422 43.82 161.062 43.82 160.596C43.82 159.969 43.4667 159.656 42.76 159.656L42.68 158.476ZM53.32 159.536C52.6133 159.536 52.26 159.849 52.26 160.476C52.26 160.596 52.2667 160.776 52.28 161.016C52.3067 161.242 52.32 161.416 52.32 161.536C52.36 161.789 52.38 162.142 52.38 162.596C52.38 163.849 51.6733 164.476 50.26 164.476H49.76V163.416H50C50.2933 163.416 50.5 163.336 50.62 163.176C50.7533 163.002 50.82 162.749 50.82 162.416C50.82 162.082 50.8 161.829 50.76 161.656C50.76 161.549 50.7467 161.396 50.72 161.196C50.6933 160.982 50.68 160.822 50.68 160.716C50.68 160.222 50.7867 159.842 51 159.576C51.1867 159.362 51.48 159.202 51.88 159.096C51.48 159.002 51.1867 158.842 51 158.616C50.7867 158.362 50.68 157.982 50.68 157.476C50.68 157.342 50.6933 157.156 50.72 156.916C50.7467 156.742 50.76 156.616 50.76 156.536C50.8 156.322 50.82 156.056 50.82 155.736C50.82 155.416 50.7533 155.176 50.62 155.016C50.4867 154.856 50.28 154.756 50 154.716H49.76V153.536H50.26C50.9267 153.536 51.4467 153.689 51.82 153.996C52.1933 154.302 52.38 154.776 52.38 155.416C52.38 155.536 52.3667 155.716 52.34 155.956C52.3267 156.182 52.32 156.356 52.32 156.476C52.28 156.729 52.2533 157.082 52.24 157.536C52.2533 157.816 52.3133 158.029 52.42 158.176C52.5933 158.376 52.8933 158.476 53.32 158.476V159.536Z" fill="#CBCB41"/>
<path d="M65.0537 163.036H66.4185V153.438H65.0537V163.036ZM70.3794 163.15C71.2871 163.15 72.0425 162.756 72.4551 162.058H72.563V163.036H73.877V158.319C73.877 156.872 72.8994 156.009 71.1665 156.009C69.5986 156.009 68.4814 156.764 68.3418 157.926H69.6621C69.8145 157.424 70.3413 157.139 71.103 157.139C72.0361 157.139 72.5186 157.564 72.5186 158.319V158.922L70.646 159.037C69.002 159.138 68.0752 159.856 68.0752 161.093C68.0752 162.35 69.0464 163.15 70.3794 163.15ZM70.7285 162.052C69.9858 162.052 69.4463 161.677 69.4463 161.036C69.4463 160.408 69.8779 160.071 70.8301 160.008L72.5186 159.894V160.49C72.5186 161.379 71.7568 162.052 70.7285 162.052ZM81.6465 156.142H80.2817V160.186C80.2817 161.297 79.6787 161.969 78.5742 161.969C77.5713 161.969 77.1206 161.423 77.1206 160.281V156.142H75.7559V160.617C75.7559 162.236 76.6064 163.169 78.1362 163.169C79.1836 163.169 79.8882 162.725 80.2246 161.944H80.3325V163.036H81.6465V156.142ZM83.627 163.036H84.9917V158.992C84.9917 157.881 85.6328 157.196 86.6421 157.196C87.6514 157.196 88.1338 157.755 88.1338 158.897V163.036H89.4985V158.573C89.4985 156.929 88.6479 156.009 87.1055 156.009C86.0645 156.009 85.3789 156.472 85.0425 157.234H84.9409V156.142H83.627V163.036ZM97.2744 158.358C97.0967 157.018 96.0493 156.009 94.3164 156.009C92.3042 156.009 91.0791 157.374 91.0791 159.564C91.0791 161.798 92.3105 163.169 94.3228 163.169C96.0303 163.169 97.0967 162.211 97.2744 160.852H95.9478C95.77 161.601 95.1797 162.007 94.3164 162.007C93.1802 162.007 92.4756 161.087 92.4756 159.564C92.4756 158.072 93.1738 157.171 94.3164 157.171C95.2305 157.171 95.7891 157.685 95.9478 158.358H97.2744ZM98.8994 163.036H100.264V158.999C100.264 157.92 100.886 157.202 102.003 157.202C102.968 157.202 103.482 157.767 103.482 158.903V163.036H104.847V158.58C104.847 156.948 103.939 156.015 102.467 156.015C101.426 156.015 100.696 156.472 100.359 157.24H100.251V153.438H98.8994V163.036ZM107.831 163.131C108.37 163.131 108.764 162.731 108.764 162.217C108.764 161.703 108.37 161.303 107.831 161.303C107.297 161.303 106.897 161.703 106.897 162.217C106.897 162.731 107.297 163.131 107.831 163.131ZM111.588 154.911C112.058 154.911 112.452 154.524 112.452 154.054C112.452 153.578 112.058 153.191 111.588 153.191C111.112 153.191 110.725 153.578 110.725 154.054C110.725 154.524 111.112 154.911 111.588 154.911ZM112.255 156.142H110.896V163.328C110.896 164.02 110.643 164.299 109.913 164.299C109.894 164.299 109.741 164.299 109.722 164.299V165.391C109.754 165.391 109.976 165.397 110.027 165.397C111.525 165.397 112.255 164.75 112.255 163.334V156.142ZM114.102 158.072C114.102 159.094 114.711 159.678 116.025 159.983L117.231 160.268C117.923 160.433 118.247 160.713 118.247 161.144C118.247 161.709 117.644 162.103 116.793 162.103C115.968 162.103 115.46 161.766 115.289 161.227H113.924C114.045 162.426 115.118 163.169 116.762 163.169C118.412 163.169 119.625 162.299 119.625 161.017C119.625 160.014 119.009 159.449 117.695 159.145L116.546 158.878C115.797 158.7 115.448 158.434 115.448 158.008C115.448 157.45 116.025 157.075 116.787 157.075C117.562 157.075 118.057 157.412 118.184 157.926H119.491C119.358 156.733 118.342 156.009 116.787 156.009C115.226 156.009 114.102 156.872 114.102 158.072ZM124.188 163.169C126.207 163.169 127.445 161.817 127.445 159.589C127.445 157.361 126.201 156.009 124.188 156.009C122.17 156.009 120.926 157.367 120.926 159.589C120.926 161.817 122.164 163.169 124.188 163.169ZM124.188 162.007C123.001 162.007 122.335 161.125 122.335 159.589C122.335 158.053 123.001 157.164 124.188 157.164C125.369 157.164 126.042 158.053 126.042 159.589C126.042 161.119 125.369 162.007 124.188 162.007ZM129.089 163.036H130.454V158.992C130.454 157.881 131.095 157.196 132.104 157.196C133.113 157.196 133.596 157.755 133.596 158.897V163.036H134.96V158.573C134.96 156.929 134.11 156.009 132.567 156.009C131.526 156.009 130.841 156.472 130.504 157.234H130.403V156.142H129.089V163.036Z" fill="var(--vscode-foreground)"/>
<path d="M42.68 182.476C43.1067 182.476 43.4067 182.376 43.58 182.176C43.7 182.029 43.76 181.816 43.76 181.536C43.76 181.416 43.7467 181.242 43.72 181.016C43.6933 180.776 43.68 180.596 43.68 180.476C43.68 180.342 43.6733 180.149 43.66 179.896C43.6333 179.669 43.62 179.509 43.62 179.416C43.62 178.776 43.8067 178.302 44.18 177.996C44.5533 177.689 45.08 177.536 45.76 177.536H46.26V178.716H46C45.7067 178.716 45.4933 178.802 45.36 178.976C45.24 179.136 45.18 179.382 45.18 179.716C45.18 179.796 45.1933 179.916 45.22 180.076C45.2467 180.276 45.26 180.429 45.26 180.536C45.26 180.616 45.2667 180.742 45.28 180.916C45.3067 181.156 45.32 181.342 45.32 181.476C45.32 181.982 45.2133 182.362 45 182.616C44.8133 182.842 44.52 183.002 44.12 183.096C44.52 183.202 44.8133 183.362 45 183.576C45.2133 183.842 45.32 184.222 45.32 184.716C45.32 184.862 45.3067 185.056 45.28 185.296C45.2533 185.469 45.24 185.596 45.24 185.676C45.2533 185.756 45.2467 185.896 45.22 186.096C45.1933 186.242 45.18 186.349 45.18 186.416C45.18 186.749 45.24 187.002 45.36 187.176C45.4933 187.336 45.7067 187.416 46 187.416H46.26V188.596H45.76C44.3733 188.596 43.68 187.969 43.68 186.716C43.68 186.262 43.7 185.916 43.74 185.676C43.7933 185.422 43.82 185.062 43.82 184.596C43.82 183.969 43.4667 183.656 42.76 183.656L42.68 182.476ZM53.32 183.536C52.6133 183.536 52.26 183.849 52.26 184.476C52.26 184.596 52.2667 184.776 52.28 185.016C52.3067 185.242 52.32 185.416 52.32 185.536C52.36 185.789 52.38 186.142 52.38 186.596C52.38 187.849 51.6733 188.476 50.26 188.476H49.76V187.416H50C50.2933 187.416 50.5 187.336 50.62 187.176C50.7533 187.002 50.82 186.749 50.82 186.416C50.82 186.082 50.8 185.829 50.76 185.656C50.76 185.549 50.7467 185.396 50.72 185.196C50.6933 184.982 50.68 184.822 50.68 184.716C50.68 184.222 50.7867 183.842 51 183.576C51.1867 183.362 51.48 183.202 51.88 183.096C51.48 183.002 51.1867 182.842 51 182.616C50.7867 182.362 50.68 181.982 50.68 181.476C50.68 181.342 50.6933 181.156 50.72 180.916C50.7467 180.742 50.76 180.616 50.76 180.536C50.8 180.322 50.82 180.056 50.82 179.736C50.82 179.416 50.7533 179.176 50.62 179.016C50.4867 178.856 50.28 178.756 50 178.716H49.76V177.536H50.26C50.9267 177.536 51.4467 177.689 51.82 177.996C52.1933 178.302 52.38 178.776 52.38 179.416C52.38 179.536 52.3667 179.716 52.34 179.956C52.3267 180.182 52.32 180.356 52.32 180.476C52.28 180.729 52.2533 181.082 52.24 181.536C52.2533 181.816 52.3133 182.029 52.42 182.176C52.5933 182.376 52.8933 182.476 53.32 182.476V183.536Z" fill="#CBCB41"/>
<path d="M65.4727 178.403V180.161H64.3745V181.253H65.4727V185.22C65.4727 186.547 66.0757 187.08 67.5928 187.08C67.8594 187.08 68.1133 187.048 68.3354 187.01V185.925C68.145 185.944 68.0244 185.957 67.8149 185.957C67.1357 185.957 66.8374 185.633 66.8374 184.89V181.253H68.3354V180.161H66.8374V178.403H65.4727ZM71.8521 187.15C72.7598 187.15 73.5151 186.756 73.9277 186.058H74.0356V187.036H75.3496V182.319C75.3496 180.872 74.3721 180.009 72.6392 180.009C71.0713 180.009 69.9541 180.764 69.8145 181.926H71.1348C71.2871 181.424 71.814 181.139 72.5757 181.139C73.5088 181.139 73.9912 181.564 73.9912 182.319V182.922L72.1187 183.037C70.4746 183.138 69.5479 183.856 69.5479 185.093C69.5479 186.35 70.519 187.15 71.8521 187.15ZM72.2012 186.052C71.4585 186.052 70.9189 185.677 70.9189 185.036C70.9189 184.408 71.3506 184.071 72.3027 184.008L73.9912 183.894V184.49C73.9912 185.379 73.2295 186.052 72.2012 186.052ZM77.1333 182.072C77.1333 183.094 77.7427 183.678 79.0566 183.983L80.2627 184.268C80.9546 184.433 81.2783 184.713 81.2783 185.144C81.2783 185.709 80.6753 186.103 79.8247 186.103C78.9995 186.103 78.4917 185.766 78.3203 185.227H76.9556C77.0762 186.426 78.1489 187.169 79.793 187.169C81.4434 187.169 82.6558 186.299 82.6558 185.017C82.6558 184.014 82.04 183.449 80.7261 183.145L79.5771 182.878C78.8281 182.7 78.479 182.434 78.479 182.008C78.479 181.45 79.0566 181.075 79.8184 181.075C80.5928 181.075 81.0879 181.412 81.2148 181.926H82.5225C82.3892 180.733 81.3735 180.009 79.8184 180.009C78.2568 180.009 77.1333 180.872 77.1333 182.072ZM85.8359 183.049H85.728V177.438H84.3633V187.036H85.728V184.528L86.3311 183.951L88.7051 187.036H90.3809L87.3467 183.094L90.1904 180.142H88.5781L85.8359 183.049ZM91.2124 182.072C91.2124 183.094 91.8218 183.678 93.1357 183.983L94.3418 184.268C95.0337 184.433 95.3574 184.713 95.3574 185.144C95.3574 185.709 94.7544 186.103 93.9038 186.103C93.0786 186.103 92.5708 185.766 92.3994 185.227H91.0347C91.1553 186.426 92.228 187.169 93.8721 187.169C95.5225 187.169 96.7349 186.299 96.7349 185.017C96.7349 184.014 96.1191 183.449 94.8052 183.145L93.6562 182.878C92.9072 182.7 92.5581 182.434 92.5581 182.008C92.5581 181.45 93.1357 181.075 93.8975 181.075C94.6719 181.075 95.167 181.412 95.2939 181.926H96.6016C96.4683 180.733 95.4526 180.009 93.8975 180.009C92.3359 180.009 91.2124 180.872 91.2124 182.072ZM99.439 187.131C99.9785 187.131 100.372 186.731 100.372 186.217C100.372 185.703 99.9785 185.303 99.439 185.303C98.9058 185.303 98.5059 185.703 98.5059 186.217C98.5059 186.731 98.9058 187.131 99.439 187.131ZM103.197 178.911C103.667 178.911 104.06 178.524 104.06 178.054C104.06 177.578 103.667 177.191 103.197 177.191C102.721 177.191 102.333 177.578 102.333 178.054C102.333 178.524 102.721 178.911 103.197 178.911ZM103.863 180.142H102.505V187.328C102.505 188.02 102.251 188.299 101.521 188.299C101.502 188.299 101.35 188.299 101.331 188.299V189.391C101.362 189.391 101.584 189.397 101.635 189.397C103.133 189.397 103.863 188.75 103.863 187.334V180.142ZM105.71 182.072C105.71 183.094 106.32 183.678 107.634 183.983L108.84 184.268C109.532 184.433 109.855 184.713 109.855 185.144C109.855 185.709 109.252 186.103 108.402 186.103C107.577 186.103 107.069 185.766 106.897 185.227H105.533C105.653 186.426 106.726 187.169 108.37 187.169C110.021 187.169 111.233 186.299 111.233 185.017C111.233 184.014 110.617 183.449 109.303 183.145L108.154 182.878C107.405 182.7 107.056 182.434 107.056 182.008C107.056 181.45 107.634 181.075 108.396 181.075C109.17 181.075 109.665 181.412 109.792 181.926H111.1C110.966 180.733 109.951 180.009 108.396 180.009C106.834 180.009 105.71 180.872 105.71 182.072ZM115.797 187.169C117.815 187.169 119.053 185.817 119.053 183.589C119.053 181.361 117.809 180.009 115.797 180.009C113.778 180.009 112.534 181.367 112.534 183.589C112.534 185.817 113.772 187.169 115.797 187.169ZM115.797 186.007C114.61 186.007 113.943 185.125 113.943 183.589C113.943 182.053 114.61 181.164 115.797 181.164C116.978 181.164 117.65 182.053 117.65 183.589C117.65 185.119 116.978 186.007 115.797 186.007ZM120.697 187.036H122.062V182.992C122.062 181.881 122.703 181.196 123.712 181.196C124.722 181.196 125.204 181.755 125.204 182.897V187.036H126.569V182.573C126.569 180.929 125.718 180.009 124.176 180.009C123.135 180.009 122.449 180.472 122.113 181.234H122.011V180.142H120.697V187.036Z" fill="var(--vscode-foreground)"/>
<path d="M38.08 207.052L33.712 202.7L34.336 202.076L39.008 206.748V207.372L34.336 212.028L33.712 211.42L38.08 207.068V207.052Z" fill="var(--vscode-foreground)"/>
<rect x="52" y="203.536" width="70" height="7" rx="3.5" fill="var(--vscode-foreground)" fill-opacity="0.25"/>
<path d="M38.08 231.052L33.712 226.7L34.336 226.076L39.008 230.748V231.372L34.336 236.028L33.712 235.42L38.08 231.068V231.052Z" fill="var(--vscode-foreground)"/>
<rect x="52" y="227.536" width="93" height="7" rx="3.5" fill="var(--vscode-foreground)" fill-opacity="0.25"/>
<rect x="13" y="11" width="212.268" height="344" stroke="var(--vscode-focusBorder)" stroke-width="2" stroke-dasharray="6 4"/>
</g>
<g filter="url(#filter1_d_4_8570)">
<path d="M172.134 246.5C172.134 244.291 173.925 242.5 176.134 242.5H324.134C326.343 242.5 328.134 244.291 328.134 246.5V291.5C328.134 293.709 326.343 295.5 324.134 295.5H176.134C173.925 295.5 172.134 293.709 172.134 291.5V246.5Z" fill="var(--vscode-debugToolBar-background)"/>
<path d="M209.894 261.48H199.734L198.454 260.2L197.894 259.96H190.374L189.654 260.76V277.24L190.374 277.96H209.894L210.614 277.24V262.28L209.894 261.48ZM209.094 274.2V276.52H191.094V267.48H197.894L198.374 267.24L199.654 265.96H209.174L209.094 274.2ZM209.094 264.52H199.334L198.854 264.76L197.574 266.04H191.174V261.48H197.574L198.854 262.76L199.414 263H209.174L209.094 264.52Z" fill="var(--vscode-foreground)"/>
<path d="M223.962 277.5H226.482V269.684C226.482 268.02 227.642 266.719 229.177 266.719C230.677 266.719 231.638 267.621 231.638 269.074V277.5H234.111V269.449C234.111 267.914 235.177 266.719 236.806 266.719C238.458 266.719 239.279 267.574 239.279 269.332V277.5H241.798V268.723C241.798 266.074 240.298 264.527 237.72 264.527C235.951 264.527 234.486 265.43 233.841 266.801H233.642C233.08 265.43 231.873 264.527 230.126 264.527C228.427 264.527 227.138 265.371 226.576 266.801H226.388V264.773H223.962V277.5ZM246.181 282.117C248.783 282.117 249.99 281.145 251.08 278.086L255.837 264.773H253.166L249.978 274.969H249.779L246.58 264.773H243.837L248.455 277.535L248.267 278.191C247.833 279.539 247.154 280.043 245.958 280.043C245.724 280.043 245.337 280.031 245.138 279.996V282.059C245.373 282.094 245.97 282.117 246.181 282.117ZM265.845 271.852V269.52H258.158V271.852H265.845ZM273.076 277.711C274.751 277.711 276.146 276.984 276.908 275.695H277.107V277.5H279.533V268.793C279.533 266.121 277.728 264.527 274.529 264.527C271.634 264.527 269.572 265.922 269.314 268.066H271.751C272.033 267.141 273.005 266.613 274.412 266.613C276.134 266.613 277.025 267.398 277.025 268.793V269.906L273.568 270.117C270.533 270.305 268.822 271.629 268.822 273.914C268.822 276.234 270.615 277.711 273.076 277.711ZM273.72 275.684C272.349 275.684 271.353 274.992 271.353 273.809C271.353 272.648 272.15 272.027 273.908 271.91L277.025 271.699V272.801C277.025 274.441 275.619 275.684 273.72 275.684ZM289.74 264.551C288.005 264.551 286.505 265.43 285.732 266.883H285.544V264.773H283.119V281.742H285.638V275.578H285.837C286.505 276.926 287.947 277.711 289.763 277.711C292.986 277.711 295.037 275.156 295.037 271.137C295.037 267.094 292.986 264.551 289.74 264.551ZM289.025 275.555C286.916 275.555 285.591 273.855 285.591 271.137C285.591 268.406 286.916 266.707 289.037 266.707C291.169 266.707 292.447 268.371 292.447 271.137C292.447 273.902 291.169 275.555 289.025 275.555ZM304.693 264.551C302.958 264.551 301.458 265.43 300.685 266.883H300.498V264.773H298.072V281.742H300.591V275.578H300.791C301.458 276.926 302.9 277.711 304.716 277.711C307.939 277.711 309.99 275.156 309.99 271.137C309.99 267.094 307.939 264.551 304.693 264.551ZM303.978 275.555C301.869 275.555 300.544 273.855 300.544 271.137C300.544 268.406 301.869 266.707 303.99 266.707C306.123 266.707 307.4 268.371 307.4 271.137C307.4 273.902 306.123 275.555 303.978 275.555Z" fill="var(--vscode-foreground)"/>
</g>
<g filter="url(#filter2_d_4_8570)">
<path fill-rule="evenodd" clip-rule="evenodd" d="M210.634 310C210.634 314.97 214.664 319 219.634 319V319C224.604 319 228.634 314.97 228.634 310V310C228.634 305.029 224.604 301 219.634 301V301C214.664 301 210.634 305.029 210.634 310" fill="var(--vscode-button-background)"/>
<path fill-rule="evenodd" clip-rule="evenodd" d="M220.634 309V306C220.634 305.448 220.186 305 219.634 305C219.082 305 218.634 305.448 218.634 306V309H215.634C215.082 309 214.634 309.448 214.634 310C214.634 310.552 215.082 311 215.634 311H218.634V314C218.634 314.552 219.082 315 219.634 315C220.186 315 220.634 314.552 220.634 314V311H223.634C224.186 311 224.634 310.552 224.634 310C224.634 309.448 224.186 309 223.634 309H220.634Z" fill="var(--vscode-button-foreground)"/>
<path fill-rule="evenodd" clip-rule="evenodd" d="M209.634 303.5V287.5L221.234 299.108H214.188L214.037 299.232L209.634 303.5Z" fill="white"/>
<path fill-rule="evenodd" clip-rule="evenodd" d="M210.634 289.8V301L213.603 298.131L213.763 297.992L218.799 298L210.634 289.8Z" fill="black"/>
</g>
<defs>
<filter id="filter0_d_4_8570" x="0" y="0" width="238.268" height="370" filterUnits="userSpaceOnUse" color-interpolation-filters="sRGB">
<feFlood flood-opacity="0" result="BackgroundImageFix"/>
<feColorMatrix in="SourceAlpha" type="matrix" values="0 0 0 0 0 0 0 0 0 0 0 0 0 0 0 0 0 0 127 0" result="hardAlpha"/>
<feOffset dy="2"/>
<feGaussianBlur stdDeviation="6"/>
<feColorMatrix type="matrix" values="0 0 0 0 0 0 0 0 0 0 0 0 0 0 0 0 0 0 0.6 0"/>
<feBlend mode="normal" in2="BackgroundImageFix" result="effect1_dropShadow_4_8570"/>
<feBlend mode="normal" in="SourceGraphic" in2="effect1_dropShadow_4_8570" result="shape"/>
</filter>
<filter id="filter1_d_4_8570" x="160.134" y="232.5" width="180" height="77" filterUnits="userSpaceOnUse" color-interpolation-filters="sRGB">
<feFlood flood-opacity="0" result="BackgroundImageFix"/>
<feColorMatrix in="SourceAlpha" type="matrix" values="0 0 0 0 0 0 0 0 0 0 0 0 0 0 0 0 0 0 127 0" result="hardAlpha"/>
<feOffset dy="2"/>
<feGaussianBlur stdDeviation="6"/>
<feColorMatrix type="matrix" values="0 0 0 0 0 0 0 0 0 0 0 0 0 0 0 0 0 0 0.6 0"/>
<feBlend mode="normal" in2="BackgroundImageFix" result="effect1_dropShadow_4_8570"/>
<feBlend mode="normal" in="SourceGraphic" in2="effect1_dropShadow_4_8570" result="shape"/>
</filter>
<filter id="filter2_d_4_8570" x="207.834" y="286.7" width="22.6" height="35.1" filterUnits="userSpaceOnUse" color-interpolation-filters="sRGB">
<feFlood flood-opacity="0" result="BackgroundImageFix"/>
<feColorMatrix in="SourceAlpha" type="matrix" values="0 0 0 0 0 0 0 0 0 0 0 0 0 0 0 0 0 0 127 0" result="hardAlpha"/>
<feOffset dy="1"/>
<feGaussianBlur stdDeviation="0.9"/>
<feColorMatrix type="matrix" values="0 0 0 0 0 0 0 0 0 0 0 0 0 0 0 0 0 0 0.65 0"/>
<feBlend mode="normal" in2="BackgroundImageFix" result="effect1_dropShadow_4_8570"/>
<feBlend mode="normal" in="SourceGraphic" in2="effect1_dropShadow_4_8570" result="shape"/>
</filter>
<clipPath id="clip0_4_8570">
<rect width="198" height="318" fill="white" transform="translate(212 24)"/>
</clipPath>
</defs>
</svg>
