<svg width="518" height="350" viewBox="0 0 518 350" fill="none" xmlns="http://www.w3.org/2000/svg">
  <g>
    <g>
      <rect x="0.5" y="36.5" width="191" height="267" rx="3.5" fill="var(--vscode-editor-background, #252526)" />
      <g>
        <g>
          <path d="M17.8019 62.138H19.2078L20.5158 64.6072H21.6681L20.2266 61.9822C21.0096 61.7198 21.4723 61.0168 21.4723 60.1492C21.4723 58.9525 20.6403 58.1872 19.3457 58.1872H16.8053V64.6072H17.8019V62.138ZM17.8019 59.0236H19.2078C19.9774 59.0236 20.449 59.4552 20.449 60.1715C20.449 60.9056 20.0041 61.3193 19.2344 61.3193H17.8019V59.0236ZM23.8792 58.1872H22.8827V62.396C22.8827 63.7841 23.8748 64.7629 25.4809 64.7629C27.0959 64.7629 28.0836 63.7841 28.0836 62.396V58.1872H27.087V62.3159C27.087 63.2324 26.5042 63.8775 25.4809 63.8775C24.4621 63.8775 23.8792 63.2324 23.8792 62.3159V58.1872ZM30.6596 64.6072V59.9446H30.7308L34.0275 64.6072H34.9262V58.1872H33.9563V62.8587H33.8851L30.5884 58.1872H29.6897V64.6072H30.6596ZM43.1881 64.6072H44.2469L41.929 58.1872H40.8568L38.5388 64.6072H39.5621L40.1538 62.8721H42.6008L43.1881 64.6072ZM41.3417 59.3217H41.4173L42.3472 62.0712H40.4074L41.3417 59.3217ZM46.338 64.6072V59.9446H46.4092L49.7059 64.6072H50.6046V58.1872H49.6347V62.8587H49.5635L46.2668 58.1872H45.3681V64.6072H46.338ZM52.2196 58.1872V64.6072H54.5375C56.4506 64.6072 57.5584 63.4237 57.5584 61.3816C57.5584 59.3618 56.4417 58.1872 54.5375 58.1872H52.2196ZM53.2162 59.0459H54.4263C55.7566 59.0459 56.5441 59.9134 56.5441 61.395C56.5441 62.8898 55.7699 63.7485 54.4263 63.7485H53.2162V59.0459ZM61.4024 58.1872V64.6072H63.7204C65.6334 64.6072 66.7413 63.4237 66.7413 61.3816C66.7413 59.3618 65.6245 58.1872 63.7204 58.1872H61.4024ZM62.399 59.0459H63.6091C64.9394 59.0459 65.7269 59.9134 65.7269 61.395C65.7269 62.8898 64.9527 63.7485 63.6091 63.7485H62.399V59.0459ZM72.1691 63.7485H69.0903V61.7509H72.0045V60.9234H69.0903V59.0459H72.1691V58.1872H68.0938V64.6072H72.1691V63.7485ZM76.2488 64.6072C77.6191 64.6072 78.4422 63.922 78.4422 62.792C78.4422 61.9511 77.8638 61.3371 76.9963 61.2437V61.1681C77.628 61.0613 78.1219 60.4607 78.1219 59.7889C78.1219 58.8012 77.3967 58.1872 76.191 58.1872H73.6106V64.6072H76.2488ZM74.6071 59.0014H75.9597C76.6982 59.0014 77.1298 59.3529 77.1298 59.9624C77.1298 60.5897 76.6715 60.9189 75.7906 60.9189H74.6071V59.0014ZM74.6071 63.793V61.6797H75.9908C76.9295 61.6797 77.4234 62.0356 77.4234 62.7297C77.4234 63.4237 76.9473 63.793 76.0486 63.793H74.6071ZM80.7112 58.1872H79.7146V62.396C79.7146 63.7841 80.7068 64.7629 82.3129 64.7629C83.9279 64.7629 84.9156 63.7841 84.9156 62.396V58.1872H83.919V62.3159C83.919 63.2324 83.3362 63.8775 82.3129 63.8775C81.2941 63.8775 80.7112 63.2324 80.7112 62.3159V58.1872ZM91.9984 62.0801V61.2837H89.3646V62.089H91.0196V62.2314C91.0107 63.2146 90.29 63.8775 89.24 63.8775C88.0343 63.8775 87.278 62.9299 87.278 61.3905C87.278 59.8734 88.0299 58.9169 89.2178 58.9169C90.0942 58.9169 90.7038 59.3484 90.9529 60.1448H91.9539C91.7359 58.8501 90.6771 58.0315 89.2178 58.0315C87.4204 58.0315 86.2592 59.3529 86.2592 61.395C86.2592 63.4638 87.407 64.7629 89.2267 64.7629C90.9084 64.7629 91.9984 63.7085 91.9984 62.0801Z" fill="var(--vscode-sideBarTitle-foreground, #CCCCCC)" />
        </g>
      </g>
      <g>
        <g>
          <path d="M22 89.08L26.32 84.7067L26.96 85.3467L22.2667 89.9867H21.68L16.9867 85.3467L17.6267 84.7067L22 89.08Z" fill="var(--vscode-icon-foreground, #808080)" />
          <path d="M42.0649 90L44.1787 83.6587H42.7505L41.3354 88.5498H41.2563L39.8149 83.6587H38.3164L40.4609 90H42.0649ZM48.7666 90H50.2036L48.002 83.6587H46.4419L44.2402 90H45.5718L46.0596 88.4619H48.2876L48.7666 90ZM47.1406 84.9463H47.2197L48.0063 87.4688H46.3452L47.1406 84.9463ZM52.6118 87.6797H53.6973L54.8794 90H56.3823L55.0464 87.4819C55.7759 87.1963 56.1978 86.4932 56.1978 85.6802C56.1978 84.4277 55.3408 83.6587 53.9478 83.6587H51.2847V90H52.6118V87.6797ZM52.6118 84.6958H53.7632C54.4224 84.6958 54.8354 85.0825 54.8354 85.6978C54.8354 86.3262 54.4443 86.6909 53.7764 86.6909H52.6118V84.6958ZM58.8608 90V83.6587H57.5337V90H58.8608ZM64.4727 90H65.9097L63.708 83.6587H62.1479L59.9463 90H61.2778L61.7656 88.4619H63.9937L64.4727 90ZM62.8467 84.9463H62.9258L63.7124 87.4688H62.0513L62.8467 84.9463ZM69.8384 90C71.1919 90 72.0312 89.3013 72.0312 88.1851C72.0312 87.3677 71.4204 86.7393 70.5811 86.6733V86.5942C71.2314 86.4976 71.728 85.9131 71.728 85.2407C71.728 84.2607 70.9941 83.6587 69.7637 83.6587H66.9907V90H69.8384ZM68.3179 84.6431H69.4253C70.0581 84.6431 70.4229 84.9507 70.4229 85.4692C70.4229 85.9966 70.0317 86.2954 69.3154 86.2954H68.3179V84.6431ZM68.3179 89.0112V87.1699H69.4692C70.2515 87.1699 70.6777 87.4863 70.6777 88.0796C70.6777 88.686 70.2646 89.0112 69.5 89.0112H68.3179ZM77.3794 88.8838H74.5581V83.6587H73.231V90H77.3794V88.8838ZM82.7847 88.9058H79.9106V87.3018H82.6221V86.2822H79.9106V84.7529H82.7847V83.6587H78.5835V90H82.7847V88.9058ZM83.8965 88.2466C83.9448 89.4199 84.9248 90.1626 86.4365 90.1626C88.0273 90.1626 89.0073 89.3804 89.0073 88.1147C89.0073 87.1348 88.458 86.5854 87.1836 86.313L86.4189 86.1504C85.6763 85.9878 85.373 85.7549 85.373 85.355C85.373 84.8584 85.8125 84.5376 86.4761 84.5376C87.1177 84.5376 87.5835 84.876 87.645 85.3945H88.8931C88.8535 84.2739 87.8647 83.4961 86.4673 83.4961C85.0039 83.4961 84.0415 84.2783 84.0415 85.4604C84.0415 86.4229 84.6084 87.0161 85.7642 87.2622L86.5903 87.4424C87.3682 87.6138 87.6846 87.8555 87.6846 88.2729C87.6846 88.7651 87.1968 89.1123 86.5068 89.1123C85.7598 89.1123 85.2412 88.7739 85.1797 88.2466H83.8965Z" fill="var(--vscode-sideBarTitle-foreground, #FFFFFF)" />
        </g>
      </g>
      <g>
        <path d="M24.08 111L19.7067 106.68L20.3467 106.04L24.9867 110.733V111.32L20.3467 116.013L19.7067 115.373L24.08 111Z" fill="var(--vscode-icon-foreground, #808080)" />
        <rect x="38" y="107.5" width="27" height="7" rx="3.5" fill="#B180D7" />
        <rect x="71" y="107.5" width="70" height="7" rx="3.5" fill="var(--vscode-descriptionForeground, #FFFFFF)" fill-opacity="0.16" />
      </g>
      <g>
        <path d="M24.08 135L19.7067 130.68L20.3467 130.04L24.9867 134.733V135.32L20.3467 140.013L19.7067 139.373L24.08 135Z" fill="var(--vscode-icon-foreground, #808080)" />
        <rect x="38" y="131.5" width="27" height="7" rx="3.5" fill="#B180D7" />
        <rect x="71" y="131.5" width="61" height="7" rx="3.5" fill="var(--vscode-descriptionForeground, #FFFFFF)" fill-opacity="0.16" />
      </g>
      <g>
        <path d="M24.08 159L19.7067 154.68L20.3467 154.04L24.9867 158.733V159.32L20.3467 164.013L19.7067 163.373L24.08 159Z" fill="var(--vscode-icon-foreground, #808080)" />
        <rect x="38" y="155.5" width="40" height="7" rx="3.5" fill="#B180D7" />
        <rect x="84" y="155.5" width="34" height="7" rx="3.5" fill="var(--vscode-icon-foreground, #FFFFFF)" fill-opacity="0.16" />
      </g>
      <g>
        <g>
          <path d="M24.08 183L19.7067 178.68L20.3467 178.04L24.9867 182.733V183.32L20.3467 188.013L19.7067 187.373L24.08 183Z" fill="var(--vscode-icon-foreground, #808080)" />
          <path d="M42.5044 181.729H42.5747L43.7744 186H45.0181L46.7012 179.659H45.3301L44.3501 184.189H44.2798L43.1021 179.659H41.9814L40.8257 184.189H40.7554L39.7666 179.659H38.3867L40.0654 186H41.3179L42.5044 181.729ZM51.4033 186H52.8403L50.6387 179.659H49.0786L46.877 186H48.2085L48.6963 184.462H50.9243L51.4033 186ZM49.7773 180.946H49.8564L50.6431 183.469H48.9819L49.7773 180.946ZM56.1011 186V180.753H58.0039V179.659H52.8711V180.753H54.7739V186H56.1011ZM61.6514 186.163C63.1807 186.163 64.2969 185.235 64.4067 183.882H63.1147C62.9873 184.581 62.416 185.029 61.6558 185.029C60.6538 185.029 60.0342 184.185 60.0342 182.827C60.0342 181.469 60.6538 180.625 61.6514 180.625C62.4072 180.625 62.9829 181.109 63.1104 181.843H64.4023C64.3057 180.48 63.1543 179.496 61.6514 179.496C59.8101 179.496 58.6763 180.766 58.6763 182.827C58.6763 184.888 59.8145 186.163 61.6514 186.163ZM71.1392 186V179.659H69.812V182.234H66.9556V179.659H65.6284V186H66.9556V183.328H69.812V186H71.1392Z" fill="var(--vscode-sideBarTitle-foreground, #FFFFFF)" />
        </g>
      </g>
      <g>
        <g>
          <path d="M22 209.08L26.32 204.707L26.96 205.347L22.2667 209.987H21.68L16.9867 205.347L17.6267 204.707L22 209.08Z" fill="var(--vscode-icon-foreground, #808080)" />
          <path d="M41.4629 210.163C42.9922 210.163 44.1084 209.235 44.2183 207.882H42.9263C42.7988 208.581 42.2275 209.029 41.4673 209.029C40.4653 209.029 39.8457 208.185 39.8457 206.827C39.8457 205.469 40.4653 204.625 41.4629 204.625C42.2188 204.625 42.7944 205.109 42.9219 205.843H44.2139C44.1172 204.48 42.9658 203.496 41.4629 203.496C39.6216 203.496 38.4878 204.766 38.4878 206.827C38.4878 208.888 39.626 210.163 41.4629 210.163ZM49.3115 210H50.7485L48.5469 203.659H46.9868L44.7852 210H46.1167L46.6045 208.462H48.8325L49.3115 210ZM47.6855 204.946H47.7646L48.5513 207.469H46.8901L47.6855 204.946ZM55.978 208.884H53.1567V203.659H51.8296V210H55.978V208.884ZM61.3306 208.884H58.5093V203.659H57.1821V210H61.3306V208.884ZM64.5693 208.247C64.6177 209.42 65.5977 210.163 67.1094 210.163C68.7002 210.163 69.6802 209.38 69.6802 208.115C69.6802 207.135 69.1309 206.585 67.8564 206.313L67.0918 206.15C66.3491 205.988 66.0459 205.755 66.0459 205.355C66.0459 204.858 66.4854 204.538 67.1489 204.538C67.7905 204.538 68.2563 204.876 68.3179 205.395H69.5659C69.5264 204.274 68.5376 203.496 67.1401 203.496C65.6768 203.496 64.7144 204.278 64.7144 205.46C64.7144 206.423 65.2812 207.016 66.437 207.262L67.2632 207.442C68.041 207.614 68.3574 207.855 68.3574 208.273C68.3574 208.765 67.8696 209.112 67.1797 209.112C66.4326 209.112 65.9141 208.774 65.8525 208.247H64.5693ZM73.8022 210V204.753H75.7051V203.659H70.5723V204.753H72.4751V210H73.8022ZM80.2666 210H81.7036L79.502 203.659H77.9419L75.7402 210H77.0718L77.5596 208.462H79.7876L80.2666 210ZM78.6406 204.946H78.7197L79.5063 207.469H77.8452L78.6406 204.946ZM85.1885 210.163C86.7178 210.163 87.834 209.235 87.9438 207.882H86.6519C86.5244 208.581 85.9531 209.029 85.1929 209.029C84.1909 209.029 83.5713 208.185 83.5713 206.827C83.5713 205.469 84.1909 204.625 85.1885 204.625C85.9443 204.625 86.52 205.109 86.6475 205.843H87.9395C87.8428 204.48 86.6914 203.496 85.1885 203.496C83.3472 203.496 82.2134 204.766 82.2134 206.827C82.2134 208.888 83.3516 210.163 85.1885 210.163ZM90.4927 210V208.062L91.1211 207.306L92.9624 210H94.5532L92.0791 206.436L94.3906 203.659H92.9141L90.5718 206.506H90.4927V203.659H89.1655V210H90.4927Z" fill="var(--vscode-sideBarTitle-foreground, #FFFFFF)" />
        </g>
      </g>
      <g>
        <path d="M24.08 231L19.7067 226.68L20.3467 226.04L24.9867 230.733V231.32L20.3467 236.013L19.7067 235.373L24.08 231Z" fill="var(--vscode-icon-foreground, #808080)" />
        <rect x="38" y="227.5" width="70" height="7" rx="3.5" fill="var(--vscode-descriptionForeground, #FFFFFF)" fill-opacity="0.16" />
      </g>
      <g>
        <path d="M24.08 255L19.7067 250.68L20.3467 250.04L24.9867 254.733V255.32L20.3467 260.013L19.7067 259.373L24.08 255Z" fill="var(--vscode-icon-foreground, #808080)" />
        <rect x="38" y="251.5" width="48" height="7" rx="3.5" fill="var(--vscode-descriptionForeground, #FFFFFF)" fill-opacity="0.16" />
      </g>
      <g>
        <path d="M24.08 279L19.7067 274.68L20.3467 274.04L24.9867 278.733V279.32L20.3467 284.013L19.7067 283.373L24.08 279Z" fill="var(--vscode-icon-foreground, #808080)" />
        <rect x="38" y="275.5" width="46" height="7" rx="3.5" fill="var(--vscode-descriptionForeground, #FFFFFF)" fill-opacity="0.16" />
      </g>
      <rect x="0.5" y="36.5" width="191" height="267" rx="3.5" stroke="var(--vscode-editorHoverWidget-border, #3C3C3C)" />
    </g>
    <g filter="url(#filter0_d_507_8540)">
      <rect x="123" y="14" width="379" height="318" rx="4" fill="var(--vscode-editor-background, #252526)" />
      <g>
        <rect width="379" height="35" transform="translate(123 14)" fill="var(--vscode-editorGroupHeader-tabsBackground, #292929)" />
        <g clip-path="url(#clip0_507_8540)">
          <g>
            <rect width="103" height="35" transform="translate(123 14)" fill="var(--vscode-tab-activeBackground, #1E1E1E)" />
            <rect x="135" y="28" width="79" height="7" rx="3.5" fill="var(--vscode-tab-activeForeground, #FFFFFF)" fill-opacity="0.12" />
          </g>
        </g>
        <path d="M478.26 25.22L477.36 25.7V39.2L478.26 39.68L488.4 32.96V32L478.26 25.22ZM478.5 38.18V26.78L487.08 32.48L478.5 38.18Z" fill="#73C991" />
      </g>
      <rect x="143" y="73" width="65" height="8" rx="4" fill="#B180D7" />
      <rect x="143" y="93" width="65" height="8" rx="4" fill="#B180D7" />
      <rect x="143" y="113" width="65" height="8" rx="4" fill="#75BEFF" />
      <g>
        <rect width="379" height="24" transform="translate(123 151)" fill="#555522" />
        <path d="M143.507 162.147L139.24 157.4L138.333 156.973H133.267L131.987 158.253V167.747L133.267 168.973H138.333L139.24 168.547L143.507 163.8V162.147ZM138.333 167.747H133.267V158.253H138.333L142.547 163L138.333 167.747Z" fill="#FFFF00" />
        <g>
          <path d="M163.586 160.438H164.705L166.609 165.945L168.52 160.438H169.639L167.307 167H165.918L163.586 160.438ZM176.793 163.18V163.707H172.123V163.742C172.092 164.637 172.262 165.279 172.633 165.67C173.008 166.061 173.535 166.256 174.215 166.256C174.559 166.256 174.918 166.201 175.293 166.092C175.668 165.982 176.068 165.816 176.494 165.594V166.666C176.084 166.834 175.688 166.959 175.305 167.041C174.926 167.127 174.559 167.17 174.203 167.17C173.184 167.17 172.387 166.865 171.812 166.256C171.238 165.643 170.951 164.799 170.951 163.725C170.951 162.678 171.232 161.842 171.795 161.217C172.357 160.592 173.107 160.279 174.045 160.279C174.881 160.279 175.539 160.562 176.02 161.129C176.504 161.695 176.762 162.379 176.793 163.18ZM175.715 162.863C175.668 162.41 175.502 162.02 175.217 161.691C174.936 161.359 174.529 161.193 173.998 161.193C173.479 161.193 173.051 161.365 172.715 161.709C172.379 162.053 172.195 162.439 172.164 162.869L175.715 162.863ZM183.678 166.666C183.389 166.834 183.09 166.959 182.781 167.041C182.477 167.127 182.164 167.17 181.844 167.17C180.828 167.17 180.033 166.865 179.459 166.256C178.889 165.646 178.604 164.803 178.604 163.725C178.604 162.646 178.889 161.803 179.459 161.193C180.033 160.584 180.828 160.279 181.844 160.279C182.16 160.279 182.469 160.32 182.77 160.402C183.07 160.484 183.373 160.611 183.678 160.783V161.914C183.393 161.66 183.105 161.477 182.816 161.363C182.531 161.25 182.207 161.193 181.844 161.193C181.168 161.193 180.648 161.412 180.285 161.85C179.922 162.287 179.74 162.912 179.74 163.725C179.74 164.533 179.922 165.158 180.285 165.6C180.652 166.037 181.172 166.256 181.844 166.256C182.219 166.256 182.555 166.199 182.852 166.086C183.148 165.969 183.424 165.789 183.678 165.547V166.666ZM188.289 158.574V160.438H190.738V161.275H188.289V164.838C188.289 165.322 188.381 165.66 188.564 165.852C188.748 166.043 189.068 166.139 189.525 166.139H190.738V167H189.42C188.611 167 188.041 166.838 187.709 166.514C187.377 166.189 187.211 165.631 187.211 164.838V161.275H185.459V160.438H187.211V158.574H188.289ZM195.531 161.193C194.984 161.193 194.57 161.406 194.289 161.832C194.008 162.258 193.867 162.889 193.867 163.725C193.867 164.557 194.008 165.188 194.289 165.617C194.57 166.043 194.984 166.256 195.531 166.256C196.082 166.256 196.498 166.043 196.779 165.617C197.061 165.188 197.201 164.557 197.201 163.725C197.201 162.889 197.061 162.258 196.779 161.832C196.498 161.406 196.082 161.193 195.531 161.193ZM195.531 160.279C196.441 160.279 197.137 160.574 197.617 161.164C198.102 161.754 198.344 162.607 198.344 163.725C198.344 164.846 198.104 165.701 197.623 166.291C197.143 166.877 196.445 167.17 195.531 167.17C194.621 167.17 193.926 166.877 193.445 166.291C192.965 165.701 192.725 164.846 192.725 163.725C192.725 162.607 192.965 161.754 193.445 161.164C193.926 160.574 194.621 160.279 195.531 160.279ZM205.92 161.791C205.689 161.611 205.455 161.48 205.217 161.398C204.979 161.316 204.717 161.275 204.432 161.275C203.76 161.275 203.246 161.486 202.891 161.908C202.535 162.33 202.357 162.939 202.357 163.736V167H201.273V160.438H202.357V161.721C202.537 161.256 202.812 160.9 203.184 160.654C203.559 160.404 204.002 160.279 204.514 160.279C204.779 160.279 205.027 160.312 205.258 160.379C205.488 160.445 205.709 160.549 205.92 160.689V161.791ZM219.314 160.666V161.721C219.006 161.541 218.695 161.406 218.383 161.316C218.07 161.227 217.752 161.182 217.428 161.182C216.939 161.182 216.574 161.262 216.332 161.422C216.094 161.578 215.975 161.818 215.975 162.143C215.975 162.436 216.064 162.654 216.244 162.799C216.424 162.943 216.871 163.084 217.586 163.221L218.02 163.303C218.555 163.404 218.959 163.607 219.232 163.912C219.51 164.217 219.648 164.613 219.648 165.102C219.648 165.75 219.418 166.258 218.957 166.625C218.496 166.988 217.855 167.17 217.035 167.17C216.711 167.17 216.371 167.135 216.016 167.064C215.66 166.998 215.275 166.896 214.861 166.76V165.646C215.264 165.854 215.648 166.01 216.016 166.115C216.383 166.217 216.73 166.268 217.059 166.268C217.535 166.268 217.904 166.172 218.166 165.98C218.428 165.785 218.559 165.514 218.559 165.166C218.559 164.666 218.08 164.32 217.123 164.129L217.076 164.117L216.672 164.035C216.051 163.914 215.598 163.711 215.312 163.426C215.027 163.137 214.885 162.744 214.885 162.248C214.885 161.619 215.098 161.135 215.523 160.795C215.949 160.451 216.557 160.279 217.346 160.279C217.697 160.279 218.035 160.312 218.359 160.379C218.684 160.441 219.002 160.537 219.314 160.666ZM224.441 158.574V160.438H226.891V161.275H224.441V164.838C224.441 165.322 224.533 165.66 224.717 165.852C224.9 166.043 225.221 166.139 225.678 166.139H226.891V167H225.572C224.764 167 224.193 166.838 223.861 166.514C223.529 166.189 223.363 165.631 223.363 164.838V161.275H221.611V160.438H223.363V158.574H224.441ZM234.842 161.791C234.611 161.611 234.377 161.48 234.139 161.398C233.9 161.316 233.639 161.275 233.354 161.275C232.682 161.275 232.168 161.486 231.812 161.908C231.457 162.33 231.279 162.939 231.279 163.736V167H230.195V160.438H231.279V161.721C231.459 161.256 231.734 160.9 232.105 160.654C232.48 160.404 232.924 160.279 233.436 160.279C233.701 160.279 233.949 160.312 234.18 160.379C234.41 160.445 234.631 160.549 234.842 160.689V161.791ZM237.156 160.461H239.916V166.162H242.055V167H236.699V166.162H238.838V161.299H237.156V160.461ZM238.838 157.912H239.916V159.271H238.838V157.912ZM248.693 162.934V167H247.609V162.934C247.609 162.344 247.506 161.91 247.299 161.633C247.092 161.355 246.768 161.217 246.326 161.217C245.822 161.217 245.434 161.396 245.16 161.756C244.891 162.111 244.756 162.623 244.756 163.291V167H243.678V160.438H244.756V161.422C244.947 161.047 245.207 160.764 245.535 160.572C245.863 160.377 246.252 160.279 246.701 160.279C247.369 160.279 247.867 160.5 248.195 160.941C248.527 161.379 248.693 162.043 248.693 162.934ZM254.793 163.666C254.793 162.857 254.66 162.244 254.395 161.826C254.133 161.404 253.75 161.193 253.246 161.193C252.719 161.193 252.316 161.404 252.039 161.826C251.762 162.244 251.623 162.857 251.623 163.666C251.623 164.475 251.762 165.092 252.039 165.518C252.32 165.939 252.727 166.15 253.258 166.15C253.754 166.15 254.133 165.938 254.395 165.512C254.66 165.086 254.793 164.471 254.793 163.666ZM255.871 166.578C255.871 167.562 255.639 168.309 255.174 168.816C254.709 169.324 254.025 169.578 253.123 169.578C252.826 169.578 252.516 169.551 252.191 169.496C251.867 169.441 251.543 169.361 251.219 169.256V168.189C251.602 168.369 251.949 168.502 252.262 168.588C252.574 168.674 252.861 168.717 253.123 168.717C253.705 168.717 254.129 168.559 254.395 168.242C254.66 167.926 254.793 167.424 254.793 166.736V166.689V165.957C254.621 166.324 254.387 166.598 254.09 166.777C253.793 166.957 253.432 167.047 253.006 167.047C252.24 167.047 251.629 166.74 251.172 166.127C250.715 165.514 250.486 164.693 250.486 163.666C250.486 162.635 250.715 161.812 251.172 161.199C251.629 160.586 252.24 160.279 253.006 160.279C253.428 160.279 253.785 160.363 254.078 160.531C254.371 160.699 254.609 160.959 254.793 161.311V160.461H255.871V166.578Z" fill="#40C8AE" />
          <path d="M213.092 161.369L208.111 163.244L213.092 165.102V166.174L206.898 163.725V162.752L213.092 160.303V161.369ZM257.512 161.369V160.303L263.705 162.752V163.725L257.512 166.174V165.102L262.492 163.244L257.512 161.369ZM306.426 167.299V168.143H306.051C305.078 168.143 304.426 167.998 304.094 167.709C303.766 167.42 303.602 166.844 303.602 165.98V164.809C303.602 164.383 303.48 164.016 303.238 163.707C303 163.398 302.629 163.244 302.125 163.244H301.41V162.406H302.125C302.676 162.406 303.059 162.275 303.273 162.014C303.492 161.752 303.602 161.367 303.602 160.859V159.336C303.602 158.473 303.766 157.898 304.094 157.613C304.426 157.324 305.078 157.18 306.051 157.18H306.426V158.018H306.016C305.469 158.018 305.111 158.104 304.943 158.275C304.779 158.443 304.697 158.805 304.697 159.359V160.93C304.697 161.617 304.562 162.08 304.293 162.318C304.023 162.553 303.498 162.723 302.717 162.828C303.475 162.918 303.994 163.092 304.275 163.35C304.557 163.604 304.697 164.064 304.697 164.732V165.957C304.697 166.516 304.779 166.879 304.943 167.047C305.111 167.215 305.469 167.299 306.016 167.299H306.426ZM359.916 167.299C360.463 167.299 360.818 167.215 360.982 167.047C361.15 166.879 361.234 166.516 361.234 165.957V164.732C361.234 164.064 361.375 163.604 361.656 163.35C361.938 163.092 362.457 162.918 363.215 162.828C362.434 162.723 361.908 162.553 361.639 162.318C361.369 162.08 361.234 161.617 361.234 160.93V159.359C361.234 158.805 361.15 158.443 360.982 158.275C360.818 158.104 360.463 158.018 359.916 158.018H359.506V157.18H359.881C360.854 157.18 361.504 157.324 361.832 157.613C362.164 157.898 362.33 158.473 362.33 159.336V160.859C362.33 161.367 362.438 161.752 362.652 162.014C362.871 162.275 363.256 162.406 363.807 162.406H364.521V163.244H363.807C363.303 163.244 362.93 163.398 362.688 163.707C362.449 164.016 362.33 164.383 362.33 164.809V165.98C362.33 166.844 362.164 167.42 361.832 167.709C361.504 167.998 360.854 168.143 359.881 168.143H359.506V167.299H359.916ZM368.043 164.885H369.871V166.438L368.717 168.676H367.463L368.043 166.438V164.885ZM367.967 160.443H369.795V162.559H367.967V160.443Z" fill="#FFFFFF" />
          <path d="M275.418 161.105C275.551 160.824 275.719 160.617 275.922 160.484C276.129 160.348 276.377 160.279 276.666 160.279C277.193 160.279 277.564 160.484 277.779 160.895C277.998 161.301 278.107 162.068 278.107 163.197V167H277.123V163.244C277.123 162.318 277.07 161.744 276.965 161.521C276.863 161.295 276.676 161.182 276.402 161.182C276.09 161.182 275.875 161.303 275.758 161.545C275.645 161.783 275.588 162.35 275.588 163.244V167H274.604V163.244C274.604 162.307 274.547 161.729 274.434 161.51C274.324 161.291 274.125 161.182 273.836 161.182C273.551 161.182 273.352 161.303 273.238 161.545C273.129 161.783 273.074 162.35 273.074 163.244V167H272.096V160.438H273.074V161C273.203 160.766 273.363 160.588 273.555 160.467C273.75 160.342 273.971 160.279 274.217 160.279C274.514 160.279 274.76 160.348 274.955 160.484C275.154 160.621 275.309 160.828 275.418 161.105ZM284.389 160.666V161.721C284.08 161.541 283.77 161.406 283.457 161.316C283.145 161.227 282.826 161.182 282.502 161.182C282.014 161.182 281.648 161.262 281.406 161.422C281.168 161.578 281.049 161.818 281.049 162.143C281.049 162.436 281.139 162.654 281.318 162.799C281.498 162.943 281.945 163.084 282.66 163.221L283.094 163.303C283.629 163.404 284.033 163.607 284.307 163.912C284.584 164.217 284.723 164.613 284.723 165.102C284.723 165.75 284.492 166.258 284.031 166.625C283.57 166.988 282.93 167.17 282.109 167.17C281.785 167.17 281.445 167.135 281.09 167.064C280.734 166.998 280.35 166.896 279.936 166.76V165.646C280.338 165.854 280.723 166.01 281.09 166.115C281.457 166.217 281.805 166.268 282.133 166.268C282.609 166.268 282.979 166.172 283.24 165.98C283.502 165.785 283.633 165.514 283.633 165.166C283.633 164.666 283.154 164.32 282.197 164.129L282.15 164.117L281.746 164.035C281.125 163.914 280.672 163.711 280.387 163.426C280.102 163.137 279.959 162.744 279.959 162.248C279.959 161.619 280.172 161.135 280.598 160.795C281.023 160.451 281.631 160.279 282.42 160.279C282.771 160.279 283.109 160.312 283.434 160.379C283.758 160.441 284.076 160.537 284.389 160.666ZM290.945 163.666C290.945 162.857 290.812 162.244 290.547 161.826C290.285 161.404 289.902 161.193 289.398 161.193C288.871 161.193 288.469 161.404 288.191 161.826C287.914 162.244 287.775 162.857 287.775 163.666C287.775 164.475 287.914 165.092 288.191 165.518C288.473 165.939 288.879 166.15 289.41 166.15C289.906 166.15 290.285 165.938 290.547 165.512C290.812 165.086 290.945 164.471 290.945 163.666ZM292.023 166.578C292.023 167.562 291.791 168.309 291.326 168.816C290.861 169.324 290.178 169.578 289.275 169.578C288.979 169.578 288.668 169.551 288.344 169.496C288.02 169.441 287.695 169.361 287.371 169.256V168.189C287.754 168.369 288.102 168.502 288.414 168.588C288.727 168.674 289.014 168.717 289.275 168.717C289.857 168.717 290.281 168.559 290.547 168.242C290.812 167.926 290.945 167.424 290.945 166.736V166.689V165.957C290.773 166.324 290.539 166.598 290.242 166.777C289.945 166.957 289.584 167.047 289.158 167.047C288.393 167.047 287.781 166.74 287.324 166.127C286.867 165.514 286.639 164.693 286.639 163.666C286.639 162.635 286.867 161.812 287.324 161.199C287.781 160.586 288.393 160.279 289.158 160.279C289.58 160.279 289.938 160.363 290.23 160.531C290.523 160.699 290.762 160.959 290.945 161.311V160.461H292.023V166.578Z" fill="#75BEFF" />
          <path d="M313.023 161.334H311.547V160.121L312.695 157.883H313.598L313.023 160.121V161.334ZM310.334 161.334H308.846V160.121L310.012 157.883H310.908L310.334 160.121V161.334ZM315.643 158.252H316.832V161.604H320.072V158.252H321.262V167H320.072V162.6H316.832V167H315.643V158.252ZM328.633 163.18V163.707H323.963V163.742C323.932 164.637 324.102 165.279 324.473 165.67C324.848 166.061 325.375 166.256 326.055 166.256C326.398 166.256 326.758 166.201 327.133 166.092C327.508 165.982 327.908 165.816 328.334 165.594V166.666C327.924 166.834 327.527 166.959 327.145 167.041C326.766 167.127 326.398 167.17 326.043 167.17C325.023 167.17 324.227 166.865 323.652 166.256C323.078 165.643 322.791 164.799 322.791 163.725C322.791 162.678 323.072 161.842 323.635 161.217C324.197 160.592 324.947 160.279 325.885 160.279C326.721 160.279 327.379 160.562 327.859 161.129C328.344 161.695 328.602 162.379 328.633 163.18ZM327.555 162.863C327.508 162.41 327.342 162.02 327.057 161.691C326.775 161.359 326.369 161.193 325.838 161.193C325.318 161.193 324.891 161.365 324.555 161.709C324.219 162.053 324.035 162.439 324.004 162.869L327.555 162.863ZM333.514 164.627C333.514 165.111 333.602 165.477 333.777 165.723C333.957 165.969 334.221 166.092 334.568 166.092H335.828V167H334.463C333.818 167 333.318 166.795 332.963 166.385C332.611 165.971 332.436 165.385 332.436 164.627V158.691H330.707V157.848H333.514V164.627ZM340.744 164.627C340.744 165.111 340.832 165.477 341.008 165.723C341.188 165.969 341.451 166.092 341.799 166.092H343.059V167H341.693C341.049 167 340.549 166.795 340.193 166.385C339.842 165.971 339.666 165.385 339.666 164.627V158.691H337.938V157.848H340.744V164.627ZM347.371 161.193C346.824 161.193 346.41 161.406 346.129 161.832C345.848 162.258 345.707 162.889 345.707 163.725C345.707 164.557 345.848 165.188 346.129 165.617C346.41 166.043 346.824 166.256 347.371 166.256C347.922 166.256 348.338 166.043 348.619 165.617C348.9 165.188 349.041 164.557 349.041 163.725C349.041 162.889 348.9 162.258 348.619 161.832C348.338 161.406 347.922 161.193 347.371 161.193ZM347.371 160.279C348.281 160.279 348.977 160.574 349.457 161.164C349.941 161.754 350.184 162.607 350.184 163.725C350.184 164.846 349.943 165.701 349.463 166.291C348.982 166.877 348.285 167.17 347.371 167.17C346.461 167.17 345.766 166.877 345.285 166.291C344.805 165.701 344.564 164.846 344.564 163.725C344.564 162.607 344.805 161.754 345.285 161.164C345.766 160.574 346.461 160.279 347.371 160.279ZM355.492 157.883H356.969V159.09L355.814 161.334H354.918L355.492 159.09V157.883ZM352.803 157.883H354.279V159.09L353.131 161.334H352.229L352.803 159.09V157.883Z" fill="#EE9D28" />
        </g>
        <circle cx="137" cy="163" r="2" fill="#FF0000" />
      </g>
      <rect x="143" y="205" width="65" height="8" rx="4" fill="#B180D7" />
      <rect x="143" y="225" width="47" height="8" rx="4" fill="#75BEFF" />
      <rect x="143" y="277" width="31" height="8" rx="4" fill="#75BEFF" />
      <rect x="214" y="73" width="60" height="8" rx="4" fill="#EE9D28" />
      <rect x="214" y="93" width="42" height="8" rx="4" fill="#EE9D28" />
      <rect x="214" y="113" width="60" height="8" rx="4" fill="#D7BA7D" />
      <rect x="214" y="205" width="78" height="8" rx="4" fill="#3794FF" />
      <rect x="196" y="225" width="73" height="8" rx="4" fill="#D7BA7D" />
      <rect x="180" y="277" width="54" height="8" rx="4" fill="#D7BA7D" />
      <rect x="123.5" y="14.5" width="378" height="317" rx="3.5" stroke="var(--vscode-editorHoverWidget-border, #3C3C3C)" />
    </g>
    <g filter="url(#filter1_d_507_8540)">
      <rect x="375" y="216" width="98" height="88" rx="8" fill="var(--vscode-editor-background, #252526)" />
      <path d="M407.516 274V262.496H419.332V258.395H407.516V250.055H420.445V245.816H402.477V274H407.516ZM435.738 274.703C441.891 274.703 446.012 270.66 446.012 264.762C446.012 259.098 442.105 255.484 437.281 255.484C434.41 255.484 432.34 256.461 431.09 258.199H430.758L431.539 249.957H444.508V245.816H427.613L426.07 262.203H430.641C431.598 260.348 433.453 259.234 435.855 259.234C438.961 259.234 441.148 261.48 441.148 264.84C441.148 268.297 438.961 270.602 435.719 270.602C432.848 270.602 430.68 268.863 430.367 266.227H425.66C425.875 271.168 429.918 274.703 435.738 274.703Z" fill="var(--vscode-foreground, #CCCCCC)" />
    </g>
  </g>
  <defs>
    <filter id="filter0_d_507_8540" x="107" y="0" width="411" height="350" filterUnits="userSpaceOnUse" color-interpolation-filters="sRGB">
      <feFlood flood-opacity="0" result="BackgroundImageFix" />
      <feColorMatrix in="SourceAlpha" type="matrix" values="0 0 0 0 0 0 0 0 0 0 0 0 0 0 0 0 0 0 127 0" result="hardAlpha" />
      <feOffset dy="2" />
      <feGaussianBlur stdDeviation="8" />
      <feColorMatrix type="matrix" values="0 0 0 0 0 0 0 0 0 0 0 0 0 0 0 0 0 0 0.36 0" />
      <feBlend mode="normal" in2="BackgroundImageFix" result="effect1_dropShadow_507_8540" />
      <feBlend mode="normal" in="SourceGraphic" in2="effect1_dropShadow_507_8540" result="shape" />
    </filter>
    <filter id="filter1_d_507_8540" x="359" y="202" width="130" height="120" filterUnits="userSpaceOnUse" color-interpolation-filters="sRGB">
      <feFlood flood-opacity="0" result="BackgroundImageFix" />
      <feColorMatrix in="SourceAlpha" type="matrix" values="0 0 0 0 0 0 0 0 0 0 0 0 0 0 0 0 0 0 127 0" result="hardAlpha" />
      <feOffset dy="2" />
      <feGaussianBlur stdDeviation="8" />
      <feColorMatrix type="matrix" values="0 0 0 0 0 0 0 0 0 0 0 0 0 0 0 0 0 0 0.36 0" />
      <feBlend mode="normal" in2="BackgroundImageFix" result="effect1_dropShadow_507_8540" />
      <feBlend mode="normal" in="SourceGraphic" in2="effect1_dropShadow_507_8540" result="shape" />
    </filter>
    <clipPath id="clip0_507_8540">
      <rect width="103" height="35" fill="#FFFFFF" transform="translate(123 14)" />
    </clipPath>
  </defs>
</svg>