<svg width="522" height="342" viewBox="0 0 522 342" fill="none" xmlns="http://www.w3.org/2000/svg">
<g filter="url(#filter0_d_8_7812)">
<rect width="192" height="268" transform="translate(8 32)" fill="var(--vscode-quickInput-background, #252526)"/>
<path d="M25.8019 58.138H27.2078L28.5158 60.6072H29.6681L28.2266 57.9822C29.0096 57.7198 29.4723 57.0168 29.4723 56.1492C29.4723 54.9525 28.6403 54.1872 27.3457 54.1872H24.8053V60.6072H25.8019V58.138ZM25.8019 55.0236H27.2078C27.9774 55.0236 28.449 55.4552 28.449 56.1715C28.449 56.9056 28.0041 57.3193 27.2344 57.3193H25.8019V55.0236ZM31.8792 54.1872H30.8827V58.396C30.8827 59.7841 31.8748 60.7629 33.4809 60.7629C35.0959 60.7629 36.0836 59.7841 36.0836 58.396V54.1872H35.087V58.3159C35.087 59.2324 34.5042 59.8775 33.4809 59.8775C32.4621 59.8775 31.8792 59.2324 31.8792 58.3159V54.1872ZM38.6596 60.6072V55.9446H38.7308L42.0275 60.6072H42.9262V54.1872H41.9563V58.8587H41.8851L38.5884 54.1872H37.6897V60.6072H38.6596ZM51.1881 60.6072H52.2469L49.929 54.1872H48.8568L46.5388 60.6072H47.5621L48.1538 58.8721H50.6008L51.1881 60.6072ZM49.3417 55.3217H49.4173L50.3472 58.0712H48.4074L49.3417 55.3217ZM54.338 60.6072V55.9446H54.4092L57.7059 60.6072H58.6046V54.1872H57.6347V58.8587H57.5635L54.2668 54.1872H53.3681V60.6072H54.338ZM60.2196 54.1872V60.6072H62.5375C64.4506 60.6072 65.5584 59.4237 65.5584 57.3816C65.5584 55.3618 64.4417 54.1872 62.5375 54.1872H60.2196ZM61.2162 55.0459H62.4263C63.7566 55.0459 64.5441 55.9134 64.5441 57.395C64.5441 58.8898 63.7699 59.7485 62.4263 59.7485H61.2162V55.0459ZM69.4024 54.1872V60.6072H71.7204C73.6334 60.6072 74.7413 59.4237 74.7413 57.3816C74.7413 55.3618 73.6245 54.1872 71.7204 54.1872H69.4024ZM70.399 55.0459H71.6091C72.9394 55.0459 73.7269 55.9134 73.7269 57.395C73.7269 58.8898 72.9527 59.7485 71.6091 59.7485H70.399V55.0459ZM80.1691 59.7485H77.0903V57.7509H80.0045V56.9234H77.0903V55.0459H80.1691V54.1872H76.0938V60.6072H80.1691V59.7485ZM84.2488 60.6072C85.6191 60.6072 86.4422 59.922 86.4422 58.792C86.4422 57.9511 85.8638 57.3371 84.9963 57.2437V57.1681C85.628 57.0613 86.1219 56.4607 86.1219 55.7889C86.1219 54.8012 85.3967 54.1872 84.191 54.1872H81.6106V60.6072H84.2488ZM82.6071 55.0014H83.9597C84.6982 55.0014 85.1298 55.3529 85.1298 55.9624C85.1298 56.5897 84.6715 56.9189 83.7906 56.9189H82.6071V55.0014ZM82.6071 59.793V57.6797H83.9908C84.9295 57.6797 85.4234 58.0356 85.4234 58.7297C85.4234 59.4237 84.9473 59.793 84.0486 59.793H82.6071ZM88.7112 54.1872H87.7146V58.396C87.7146 59.7841 88.7068 60.7629 90.3129 60.7629C91.9279 60.7629 92.9156 59.7841 92.9156 58.396V54.1872H91.919V58.3159C91.919 59.2324 91.3362 59.8775 90.3129 59.8775C89.2941 59.8775 88.7112 59.2324 88.7112 58.3159V54.1872ZM99.9984 58.0801V57.2837H97.3646V58.089H99.0196V58.2314C99.0107 59.2146 98.29 59.8775 97.24 59.8775C96.0343 59.8775 95.278 58.9299 95.278 57.3905C95.278 55.8734 96.0299 54.9169 97.2178 54.9169C98.0942 54.9169 98.7038 55.3484 98.9529 56.1448H99.9539C99.7359 54.8501 98.6771 54.0315 97.2178 54.0315C95.4204 54.0315 94.2592 55.3529 94.2592 57.395C94.2592 59.4638 95.407 60.7629 97.2267 60.7629C98.9084 60.7629 99.9984 59.7085 99.9984 58.0801Z" fill="var(--vscode-foreground)"/>
<path d="M29.984 85.064L34.336 80.712L34.96 81.336L30.288 85.992H29.664L25.008 81.336L25.616 80.712L29.984 85.064Z" fill="#808080"/>
<path d="M50.0649 86L52.1787 79.6587H50.7505L49.3354 84.5498H49.2563L47.8149 79.6587H46.3164L48.4609 86H50.0649ZM56.7666 86H58.2036L56.002 79.6587H54.4419L52.2402 86H53.5718L54.0596 84.4619H56.2876L56.7666 86ZM55.1406 80.9463H55.2197L56.0063 83.4688H54.3452L55.1406 80.9463ZM60.6118 83.6797H61.6973L62.8794 86H64.3823L63.0464 83.4819C63.7759 83.1963 64.1978 82.4932 64.1978 81.6802C64.1978 80.4277 63.3408 79.6587 61.9478 79.6587H59.2847V86H60.6118V83.6797ZM60.6118 80.6958H61.7632C62.4224 80.6958 62.8354 81.0825 62.8354 81.6978C62.8354 82.3262 62.4443 82.6909 61.7764 82.6909H60.6118V80.6958ZM66.8608 86V79.6587H65.5337V86H66.8608ZM72.4727 86H73.9097L71.708 79.6587H70.1479L67.9463 86H69.2778L69.7656 84.4619H71.9937L72.4727 86ZM70.8467 80.9463H70.9258L71.7124 83.4688H70.0513L70.8467 80.9463ZM77.8384 86C79.1919 86 80.0312 85.3013 80.0312 84.1851C80.0312 83.3677 79.4204 82.7393 78.5811 82.6733V82.5942C79.2314 82.4976 79.728 81.9131 79.728 81.2407C79.728 80.2607 78.9941 79.6587 77.7637 79.6587H74.9907V86H77.8384ZM76.3179 80.6431H77.4253C78.0581 80.6431 78.4229 80.9507 78.4229 81.4692C78.4229 81.9966 78.0317 82.2954 77.3154 82.2954H76.3179V80.6431ZM76.3179 85.0112V83.1699H77.4692C78.2515 83.1699 78.6777 83.4863 78.6777 84.0796C78.6777 84.686 78.2646 85.0112 77.5 85.0112H76.3179ZM85.3794 84.8838H82.5581V79.6587H81.231V86H85.3794V84.8838ZM90.7847 84.9058H87.9106V83.3018H90.6221V82.2822H87.9106V80.7529H90.7847V79.6587H86.5835V86H90.7847V84.9058ZM91.8965 84.2466C91.9448 85.4199 92.9248 86.1626 94.4365 86.1626C96.0273 86.1626 97.0073 85.3804 97.0073 84.1147C97.0073 83.1348 96.458 82.5854 95.1836 82.313L94.4189 82.1504C93.6763 81.9878 93.373 81.7549 93.373 81.355C93.373 80.8584 93.8125 80.5376 94.4761 80.5376C95.1177 80.5376 95.5835 80.876 95.645 81.3945H96.8931C96.8535 80.2739 95.8647 79.4961 94.4673 79.4961C93.0039 79.4961 92.0415 80.2783 92.0415 81.4604C92.0415 82.4229 92.6084 83.0161 93.7642 83.2622L94.5903 83.4424C95.3682 83.6138 95.6846 83.8555 95.6846 84.2729C95.6846 84.7651 95.1968 85.1123 94.5068 85.1123C93.7598 85.1123 93.2412 84.7739 93.1797 84.2466H91.8965Z" fill="var(--vscode-foreground)"/>
<path d="M32.08 107.016L27.712 102.664L28.336 102.04L33.008 106.712V107.336L28.336 111.992L27.712 111.384L32.08 107.032V107.016Z" fill="#808080"/>
<rect x="46" y="103.5" width="27" height="7" rx="3.5" fill="#B180D7"/>
<rect x="79" y="103.5" width="70" height="7" rx="3.5" fill="var(--vscode-foreground)" fill-opacity="0.25"/>
<path d="M32.08 131.016L27.712 126.664L28.336 126.04L33.008 130.712V131.336L28.336 135.992L27.712 135.384L32.08 131.032V131.016Z" fill="#808080"/>
<rect x="46" y="127.5" width="27" height="7" rx="3.5" fill="#B180D7"/>
<rect x="79" y="127.5" width="61" height="7" rx="3.5" fill="var(--vscode-foreground)" fill-opacity="0.25"/>
<path d="M32.08 155.016L27.712 150.664L28.336 150.04L33.008 154.712V155.336L28.336 159.992L27.712 159.384L32.08 155.032V155.016Z" fill="#808080"/>
<rect x="46" y="151.5" width="40" height="7" rx="3.5" fill="#B180D7"/>
<rect x="92" y="151.5" width="34" height="7" rx="3.5" fill="var(--vscode-foreground)" fill-opacity="0.25"/>
<path d="M32.08 179.016L27.712 174.664L28.336 174.04L33.008 178.712V179.336L28.336 183.992L27.712 183.384L32.08 179.032V179.016Z" fill="#808080"/>
<path d="M50.5044 177.729H50.5747L51.7744 182H53.0181L54.7012 175.659H53.3301L52.3501 180.189H52.2798L51.1021 175.659H49.9814L48.8257 180.189H48.7554L47.7666 175.659H46.3867L48.0654 182H49.3179L50.5044 177.729ZM59.4033 182H60.8403L58.6387 175.659H57.0786L54.877 182H56.2085L56.6963 180.462H58.9243L59.4033 182ZM57.7773 176.946H57.8564L58.6431 179.469H56.9819L57.7773 176.946ZM64.1011 182V176.753H66.0039V175.659H60.8711V176.753H62.7739V182H64.1011ZM69.6514 182.163C71.1807 182.163 72.2969 181.235 72.4067 179.882H71.1147C70.9873 180.581 70.416 181.029 69.6558 181.029C68.6538 181.029 68.0342 180.185 68.0342 178.827C68.0342 177.469 68.6538 176.625 69.6514 176.625C70.4072 176.625 70.9829 177.109 71.1104 177.843H72.4023C72.3057 176.48 71.1543 175.496 69.6514 175.496C67.8101 175.496 66.6763 176.766 66.6763 178.827C66.6763 180.888 67.8145 182.163 69.6514 182.163ZM79.1392 182V175.659H77.812V178.234H74.9556V175.659H73.6284V182H74.9556V179.328H77.812V182H79.1392Z" fill="var(--vscode-foreground)"/>
<path d="M29.984 205.064L34.336 200.712L34.96 201.336L30.288 205.992H29.664L25.008 201.336L25.616 200.712L29.984 205.064Z" fill="#808080"/>
<path d="M49.4629 206.163C50.9922 206.163 52.1084 205.235 52.2183 203.882H50.9263C50.7988 204.581 50.2275 205.029 49.4673 205.029C48.4653 205.029 47.8457 204.185 47.8457 202.827C47.8457 201.469 48.4653 200.625 49.4629 200.625C50.2188 200.625 50.7944 201.109 50.9219 201.843H52.2139C52.1172 200.48 50.9658 199.496 49.4629 199.496C47.6216 199.496 46.4878 200.766 46.4878 202.827C46.4878 204.888 47.626 206.163 49.4629 206.163ZM57.3115 206H58.7485L56.5469 199.659H54.9868L52.7852 206H54.1167L54.6045 204.462H56.8325L57.3115 206ZM55.6855 200.946H55.7646L56.5513 203.469H54.8901L55.6855 200.946ZM63.978 204.884H61.1567V199.659H59.8296V206H63.978V204.884ZM69.3306 204.884H66.5093V199.659H65.1821V206H69.3306V204.884ZM72.5693 204.247C72.6177 205.42 73.5977 206.163 75.1094 206.163C76.7002 206.163 77.6802 205.38 77.6802 204.115C77.6802 203.135 77.1309 202.585 75.8564 202.313L75.0918 202.15C74.3491 201.988 74.0459 201.755 74.0459 201.355C74.0459 200.858 74.4854 200.538 75.1489 200.538C75.7905 200.538 76.2563 200.876 76.3179 201.395H77.5659C77.5264 200.274 76.5376 199.496 75.1401 199.496C73.6768 199.496 72.7144 200.278 72.7144 201.46C72.7144 202.423 73.2812 203.016 74.437 203.262L75.2632 203.442C76.041 203.614 76.3574 203.855 76.3574 204.273C76.3574 204.765 75.8696 205.112 75.1797 205.112C74.4326 205.112 73.9141 204.774 73.8525 204.247H72.5693ZM81.8022 206V200.753H83.7051V199.659H78.5723V200.753H80.4751V206H81.8022ZM88.2666 206H89.7036L87.502 199.659H85.9419L83.7402 206H85.0718L85.5596 204.462H87.7876L88.2666 206ZM86.6406 200.946H86.7197L87.5063 203.469H85.8452L86.6406 200.946ZM93.1885 206.163C94.7178 206.163 95.834 205.235 95.9438 203.882H94.6519C94.5244 204.581 93.9531 205.029 93.1929 205.029C92.1909 205.029 91.5713 204.185 91.5713 202.827C91.5713 201.469 92.1909 200.625 93.1885 200.625C93.9443 200.625 94.52 201.109 94.6475 201.843H95.9395C95.8428 200.48 94.6914 199.496 93.1885 199.496C91.3472 199.496 90.2134 200.766 90.2134 202.827C90.2134 204.888 91.3516 206.163 93.1885 206.163ZM98.4927 206V204.062L99.1211 203.306L100.962 206H102.553L100.079 202.436L102.391 199.659H100.914L98.5718 202.506H98.4927V199.659H97.1655V206H98.4927Z" fill="var(--vscode-foreground)"/>
<path d="M32.08 227.016L27.712 222.664L28.336 222.04L33.008 226.712V227.336L28.336 231.992L27.712 231.384L32.08 227.032V227.016Z" fill="#808080"/>
<rect x="46" y="223.5" width="70" height="7" rx="3.5" fill="var(--vscode-foreground)" fill-opacity="0.25"/>
<path d="M32.08 251.016L27.712 246.664L28.336 246.04L33.008 250.712V251.336L28.336 255.992L27.712 255.384L32.08 251.032V251.016Z" fill="#808080"/>
<rect x="46" y="247.5" width="48" height="7" rx="3.5" fill="var(--vscode-foreground)" fill-opacity="0.25"/>
<path d="M32.08 275.016L27.712 270.664L28.336 270.04L33.008 274.712V275.336L28.336 279.992L27.712 279.384L32.08 275.032V275.016Z" fill="#808080"/>
<rect x="46" y="271.5" width="46" height="7" rx="3.5" fill="var(--vscode-foreground)" fill-opacity="0.25"/>
</g>
<g filter="url(#filter1_d_8_7812)">
<rect width="379" height="318" transform="translate(131 10)" fill="var(--vscode-quickInput-background, #252526)"/>
<rect width="379" height="35" transform="translate(131 10)" fill="var(--vscode-editorGroupHeader-tabsBackground, #292929)"/>
<rect width="103" height="35" transform="translate(131 10)" fill="var(--vscode-tab-activeBackground, #1e1e1e)"/>
<rect x="143" y="24" width="79" height="7" rx="3.5" fill="var(--vscode-foreground)" fill-opacity="0.25"/>
<rect x="151" y="69" width="65" height="8" rx="4" fill="#B180D7"/>
<rect x="151" y="89" width="65" height="8" rx="4" fill="#B180D7"/>
<rect x="151" y="109" width="65" height="8" rx="4" fill="#75BEFF"/>
<rect width="379" height="24" transform="translate(131 147)" fill="var(--vscode-editor-stackFrameHighlightBackground)"/>
<path d="M151.496 158.152L147.24 153.416L146.312 153H141.256L140.008 154.248V163.736L141.256 164.984H146.312L147.24 164.552L151.496 159.816V158.152ZM146.312 163.736H141.256V154.248H146.312L150.568 158.984L146.312 163.736Z" fill="var(--vscode-terminal-ansiYellow, #FFFF00)"/>
<path d="M171.586 156.438H172.705L174.609 161.945L176.52 156.438H177.639L175.307 163H173.918L171.586 156.438ZM184.793 159.18V159.707H180.123V159.742C180.092 160.637 180.262 161.279 180.633 161.67C181.008 162.061 181.535 162.256 182.215 162.256C182.559 162.256 182.918 162.201 183.293 162.092C183.668 161.982 184.068 161.816 184.494 161.594V162.666C184.084 162.834 183.688 162.959 183.305 163.041C182.926 163.127 182.559 163.17 182.203 163.17C181.184 163.17 180.387 162.865 179.812 162.256C179.238 161.643 178.951 160.799 178.951 159.725C178.951 158.678 179.232 157.842 179.795 157.217C180.357 156.592 181.107 156.279 182.045 156.279C182.881 156.279 183.539 156.562 184.02 157.129C184.504 157.695 184.762 158.379 184.793 159.18ZM183.715 158.863C183.668 158.41 183.502 158.02 183.217 157.691C182.936 157.359 182.529 157.193 181.998 157.193C181.479 157.193 181.051 157.365 180.715 157.709C180.379 158.053 180.195 158.439 180.164 158.869L183.715 158.863ZM191.678 162.666C191.389 162.834 191.09 162.959 190.781 163.041C190.477 163.127 190.164 163.17 189.844 163.17C188.828 163.17 188.033 162.865 187.459 162.256C186.889 161.646 186.604 160.803 186.604 159.725C186.604 158.646 186.889 157.803 187.459 157.193C188.033 156.584 188.828 156.279 189.844 156.279C190.16 156.279 190.469 156.32 190.77 156.402C191.07 156.484 191.373 156.611 191.678 156.783V157.914C191.393 157.66 191.105 157.477 190.816 157.363C190.531 157.25 190.207 157.193 189.844 157.193C189.168 157.193 188.648 157.412 188.285 157.85C187.922 158.287 187.74 158.912 187.74 159.725C187.74 160.533 187.922 161.158 188.285 161.6C188.652 162.037 189.172 162.256 189.844 162.256C190.219 162.256 190.555 162.199 190.852 162.086C191.148 161.969 191.424 161.789 191.678 161.547V162.666ZM196.289 154.574V156.438H198.738V157.275H196.289V160.838C196.289 161.322 196.381 161.66 196.564 161.852C196.748 162.043 197.068 162.139 197.525 162.139H198.738V163H197.42C196.611 163 196.041 162.838 195.709 162.514C195.377 162.189 195.211 161.631 195.211 160.838V157.275H193.459V156.438H195.211V154.574H196.289ZM203.531 157.193C202.984 157.193 202.57 157.406 202.289 157.832C202.008 158.258 201.867 158.889 201.867 159.725C201.867 160.557 202.008 161.188 202.289 161.617C202.57 162.043 202.984 162.256 203.531 162.256C204.082 162.256 204.498 162.043 204.779 161.617C205.061 161.188 205.201 160.557 205.201 159.725C205.201 158.889 205.061 158.258 204.779 157.832C204.498 157.406 204.082 157.193 203.531 157.193ZM203.531 156.279C204.441 156.279 205.137 156.574 205.617 157.164C206.102 157.754 206.344 158.607 206.344 159.725C206.344 160.846 206.104 161.701 205.623 162.291C205.143 162.877 204.445 163.17 203.531 163.17C202.621 163.17 201.926 162.877 201.445 162.291C200.965 161.701 200.725 160.846 200.725 159.725C200.725 158.607 200.965 157.754 201.445 157.164C201.926 156.574 202.621 156.279 203.531 156.279ZM213.92 157.791C213.689 157.611 213.455 157.48 213.217 157.398C212.979 157.316 212.717 157.275 212.432 157.275C211.76 157.275 211.246 157.486 210.891 157.908C210.535 158.33 210.357 158.939 210.357 159.736V163H209.273V156.438H210.357V157.721C210.537 157.256 210.812 156.9 211.184 156.654C211.559 156.404 212.002 156.279 212.514 156.279C212.779 156.279 213.027 156.312 213.258 156.379C213.488 156.445 213.709 156.549 213.92 156.689V157.791ZM227.314 156.666V157.721C227.006 157.541 226.695 157.406 226.383 157.316C226.07 157.227 225.752 157.182 225.428 157.182C224.939 157.182 224.574 157.262 224.332 157.422C224.094 157.578 223.975 157.818 223.975 158.143C223.975 158.436 224.064 158.654 224.244 158.799C224.424 158.943 224.871 159.084 225.586 159.221L226.02 159.303C226.555 159.404 226.959 159.607 227.232 159.912C227.51 160.217 227.648 160.613 227.648 161.102C227.648 161.75 227.418 162.258 226.957 162.625C226.496 162.988 225.855 163.17 225.035 163.17C224.711 163.17 224.371 163.135 224.016 163.064C223.66 162.998 223.275 162.896 222.861 162.76V161.646C223.264 161.854 223.648 162.01 224.016 162.115C224.383 162.217 224.73 162.268 225.059 162.268C225.535 162.268 225.904 162.172 226.166 161.98C226.428 161.785 226.559 161.514 226.559 161.166C226.559 160.666 226.08 160.32 225.123 160.129L225.076 160.117L224.672 160.035C224.051 159.914 223.598 159.711 223.312 159.426C223.027 159.137 222.885 158.744 222.885 158.248C222.885 157.619 223.098 157.135 223.523 156.795C223.949 156.451 224.557 156.279 225.346 156.279C225.697 156.279 226.035 156.312 226.359 156.379C226.684 156.441 227.002 156.537 227.314 156.666ZM232.441 154.574V156.438H234.891V157.275H232.441V160.838C232.441 161.322 232.533 161.66 232.717 161.852C232.9 162.043 233.221 162.139 233.678 162.139H234.891V163H233.572C232.764 163 232.193 162.838 231.861 162.514C231.529 162.189 231.363 161.631 231.363 160.838V157.275H229.611V156.438H231.363V154.574H232.441ZM242.842 157.791C242.611 157.611 242.377 157.48 242.139 157.398C241.9 157.316 241.639 157.275 241.354 157.275C240.682 157.275 240.168 157.486 239.812 157.908C239.457 158.33 239.279 158.939 239.279 159.736V163H238.195V156.438H239.279V157.721C239.459 157.256 239.734 156.9 240.105 156.654C240.48 156.404 240.924 156.279 241.436 156.279C241.701 156.279 241.949 156.312 242.18 156.379C242.41 156.445 242.631 156.549 242.842 156.689V157.791ZM245.156 156.461H247.916V162.162H250.055V163H244.699V162.162H246.838V157.299H245.156V156.461ZM246.838 153.912H247.916V155.271H246.838V153.912ZM256.693 158.934V163H255.609V158.934C255.609 158.344 255.506 157.91 255.299 157.633C255.092 157.355 254.768 157.217 254.326 157.217C253.822 157.217 253.434 157.396 253.16 157.756C252.891 158.111 252.756 158.623 252.756 159.291V163H251.678V156.438H252.756V157.422C252.947 157.047 253.207 156.764 253.535 156.572C253.863 156.377 254.252 156.279 254.701 156.279C255.369 156.279 255.867 156.5 256.195 156.941C256.527 157.379 256.693 158.043 256.693 158.934ZM262.793 159.666C262.793 158.857 262.66 158.244 262.395 157.826C262.133 157.404 261.75 157.193 261.246 157.193C260.719 157.193 260.316 157.404 260.039 157.826C259.762 158.244 259.623 158.857 259.623 159.666C259.623 160.475 259.762 161.092 260.039 161.518C260.32 161.939 260.727 162.15 261.258 162.15C261.754 162.15 262.133 161.938 262.395 161.512C262.66 161.086 262.793 160.471 262.793 159.666ZM263.871 162.578C263.871 163.562 263.639 164.309 263.174 164.816C262.709 165.324 262.025 165.578 261.123 165.578C260.826 165.578 260.516 165.551 260.191 165.496C259.867 165.441 259.543 165.361 259.219 165.256V164.189C259.602 164.369 259.949 164.502 260.262 164.588C260.574 164.674 260.861 164.717 261.123 164.717C261.705 164.717 262.129 164.559 262.395 164.242C262.66 163.926 262.793 163.424 262.793 162.736V162.689V161.957C262.621 162.324 262.387 162.598 262.09 162.777C261.793 162.957 261.432 163.047 261.006 163.047C260.24 163.047 259.629 162.74 259.172 162.127C258.715 161.514 258.486 160.693 258.486 159.666C258.486 158.635 258.715 157.812 259.172 157.199C259.629 156.586 260.24 156.279 261.006 156.279C261.428 156.279 261.785 156.363 262.078 156.531C262.371 156.699 262.609 156.959 262.793 157.311V156.461H263.871V162.578Z" fill="#40C8AE"/>
<path d="M221.092 157.369L216.111 159.244L221.092 161.102V162.174L214.898 159.725V158.752L221.092 156.303V157.369ZM265.512 157.369V156.303L271.705 158.752V159.725L265.512 162.174V161.102L270.492 159.244L265.512 157.369ZM314.426 163.299V164.143H314.051C313.078 164.143 312.426 163.998 312.094 163.709C311.766 163.42 311.602 162.844 311.602 161.98V160.809C311.602 160.383 311.48 160.016 311.238 159.707C311 159.398 310.629 159.244 310.125 159.244H309.41V158.406H310.125C310.676 158.406 311.059 158.275 311.273 158.014C311.492 157.752 311.602 157.367 311.602 156.859V155.336C311.602 154.473 311.766 153.898 312.094 153.613C312.426 153.324 313.078 153.18 314.051 153.18H314.426V154.018H314.016C313.469 154.018 313.111 154.104 312.943 154.275C312.779 154.443 312.697 154.805 312.697 155.359V156.93C312.697 157.617 312.562 158.08 312.293 158.318C312.023 158.553 311.498 158.723 310.717 158.828C311.475 158.918 311.994 159.092 312.275 159.35C312.557 159.604 312.697 160.064 312.697 160.732V161.957C312.697 162.516 312.779 162.879 312.943 163.047C313.111 163.215 313.469 163.299 314.016 163.299H314.426ZM367.916 163.299C368.463 163.299 368.818 163.215 368.982 163.047C369.15 162.879 369.234 162.516 369.234 161.957V160.732C369.234 160.064 369.375 159.604 369.656 159.35C369.938 159.092 370.457 158.918 371.215 158.828C370.434 158.723 369.908 158.553 369.639 158.318C369.369 158.08 369.234 157.617 369.234 156.93V155.359C369.234 154.805 369.15 154.443 368.982 154.275C368.818 154.104 368.463 154.018 367.916 154.018H367.506V153.18H367.881C368.854 153.18 369.504 153.324 369.832 153.613C370.164 153.898 370.33 154.473 370.33 155.336V156.859C370.33 157.367 370.438 157.752 370.652 158.014C370.871 158.275 371.256 158.406 371.807 158.406H372.521V159.244H371.807C371.303 159.244 370.93 159.398 370.688 159.707C370.449 160.016 370.33 160.383 370.33 160.809V161.98C370.33 162.844 370.164 163.42 369.832 163.709C369.504 163.998 368.854 164.143 367.881 164.143H367.506V163.299H367.916ZM376.043 160.885H377.871V162.438L376.717 164.676H375.463L376.043 162.438V160.885ZM375.967 156.443H377.795V158.559H375.967V156.443Z" fill="var(--vscode-foreground)"/>
<path d="M283.418 157.105C283.551 156.824 283.719 156.617 283.922 156.484C284.129 156.348 284.377 156.279 284.666 156.279C285.193 156.279 285.564 156.484 285.779 156.895C285.998 157.301 286.107 158.068 286.107 159.197V163H285.123V159.244C285.123 158.318 285.07 157.744 284.965 157.521C284.863 157.295 284.676 157.182 284.402 157.182C284.09 157.182 283.875 157.303 283.758 157.545C283.645 157.783 283.588 158.35 283.588 159.244V163H282.604V159.244C282.604 158.307 282.547 157.729 282.434 157.51C282.324 157.291 282.125 157.182 281.836 157.182C281.551 157.182 281.352 157.303 281.238 157.545C281.129 157.783 281.074 158.35 281.074 159.244V163H280.096V156.438H281.074V157C281.203 156.766 281.363 156.588 281.555 156.467C281.75 156.342 281.971 156.279 282.217 156.279C282.514 156.279 282.76 156.348 282.955 156.484C283.154 156.621 283.309 156.828 283.418 157.105ZM292.389 156.666V157.721C292.08 157.541 291.77 157.406 291.457 157.316C291.145 157.227 290.826 157.182 290.502 157.182C290.014 157.182 289.648 157.262 289.406 157.422C289.168 157.578 289.049 157.818 289.049 158.143C289.049 158.436 289.139 158.654 289.318 158.799C289.498 158.943 289.945 159.084 290.66 159.221L291.094 159.303C291.629 159.404 292.033 159.607 292.307 159.912C292.584 160.217 292.723 160.613 292.723 161.102C292.723 161.75 292.492 162.258 292.031 162.625C291.57 162.988 290.93 163.17 290.109 163.17C289.785 163.17 289.445 163.135 289.09 163.064C288.734 162.998 288.35 162.896 287.936 162.76V161.646C288.338 161.854 288.723 162.01 289.09 162.115C289.457 162.217 289.805 162.268 290.133 162.268C290.609 162.268 290.979 162.172 291.24 161.98C291.502 161.785 291.633 161.514 291.633 161.166C291.633 160.666 291.154 160.32 290.197 160.129L290.15 160.117L289.746 160.035C289.125 159.914 288.672 159.711 288.387 159.426C288.102 159.137 287.959 158.744 287.959 158.248C287.959 157.619 288.172 157.135 288.598 156.795C289.023 156.451 289.631 156.279 290.42 156.279C290.771 156.279 291.109 156.312 291.434 156.379C291.758 156.441 292.076 156.537 292.389 156.666ZM298.945 159.666C298.945 158.857 298.812 158.244 298.547 157.826C298.285 157.404 297.902 157.193 297.398 157.193C296.871 157.193 296.469 157.404 296.191 157.826C295.914 158.244 295.775 158.857 295.775 159.666C295.775 160.475 295.914 161.092 296.191 161.518C296.473 161.939 296.879 162.15 297.41 162.15C297.906 162.15 298.285 161.938 298.547 161.512C298.812 161.086 298.945 160.471 298.945 159.666ZM300.023 162.578C300.023 163.562 299.791 164.309 299.326 164.816C298.861 165.324 298.178 165.578 297.275 165.578C296.979 165.578 296.668 165.551 296.344 165.496C296.02 165.441 295.695 165.361 295.371 165.256V164.189C295.754 164.369 296.102 164.502 296.414 164.588C296.727 164.674 297.014 164.717 297.275 164.717C297.857 164.717 298.281 164.559 298.547 164.242C298.812 163.926 298.945 163.424 298.945 162.736V162.689V161.957C298.773 162.324 298.539 162.598 298.242 162.777C297.945 162.957 297.584 163.047 297.158 163.047C296.393 163.047 295.781 162.74 295.324 162.127C294.867 161.514 294.639 160.693 294.639 159.666C294.639 158.635 294.867 157.812 295.324 157.199C295.781 156.586 296.393 156.279 297.158 156.279C297.58 156.279 297.938 156.363 298.23 156.531C298.523 156.699 298.762 156.959 298.945 157.311V156.461H300.023V162.578Z" fill="#75BEFF"/>
<path d="M321.023 157.334H319.547V156.121L320.695 153.883H321.598L321.023 156.121V157.334ZM318.334 157.334H316.846V156.121L318.012 153.883H318.908L318.334 156.121V157.334ZM323.643 154.252H324.832V157.604H328.072V154.252H329.262V163H328.072V158.6H324.832V163H323.643V154.252ZM336.633 159.18V159.707H331.963V159.742C331.932 160.637 332.102 161.279 332.473 161.67C332.848 162.061 333.375 162.256 334.055 162.256C334.398 162.256 334.758 162.201 335.133 162.092C335.508 161.982 335.908 161.816 336.334 161.594V162.666C335.924 162.834 335.527 162.959 335.145 163.041C334.766 163.127 334.398 163.17 334.043 163.17C333.023 163.17 332.227 162.865 331.652 162.256C331.078 161.643 330.791 160.799 330.791 159.725C330.791 158.678 331.072 157.842 331.635 157.217C332.197 156.592 332.947 156.279 333.885 156.279C334.721 156.279 335.379 156.562 335.859 157.129C336.344 157.695 336.602 158.379 336.633 159.18ZM335.555 158.863C335.508 158.41 335.342 158.02 335.057 157.691C334.775 157.359 334.369 157.193 333.838 157.193C333.318 157.193 332.891 157.365 332.555 157.709C332.219 158.053 332.035 158.439 332.004 158.869L335.555 158.863ZM341.514 160.627C341.514 161.111 341.602 161.477 341.777 161.723C341.957 161.969 342.221 162.092 342.568 162.092H343.828V163H342.463C341.818 163 341.318 162.795 340.963 162.385C340.611 161.971 340.436 161.385 340.436 160.627V154.691H338.707V153.848H341.514V160.627ZM348.744 160.627C348.744 161.111 348.832 161.477 349.008 161.723C349.188 161.969 349.451 162.092 349.799 162.092H351.059V163H349.693C349.049 163 348.549 162.795 348.193 162.385C347.842 161.971 347.666 161.385 347.666 160.627V154.691H345.938V153.848H348.744V160.627ZM355.371 157.193C354.824 157.193 354.41 157.406 354.129 157.832C353.848 158.258 353.707 158.889 353.707 159.725C353.707 160.557 353.848 161.188 354.129 161.617C354.41 162.043 354.824 162.256 355.371 162.256C355.922 162.256 356.338 162.043 356.619 161.617C356.9 161.188 357.041 160.557 357.041 159.725C357.041 158.889 356.9 158.258 356.619 157.832C356.338 157.406 355.922 157.193 355.371 157.193ZM355.371 156.279C356.281 156.279 356.977 156.574 357.457 157.164C357.941 157.754 358.184 158.607 358.184 159.725C358.184 160.846 357.943 161.701 357.463 162.291C356.982 162.877 356.285 163.17 355.371 163.17C354.461 163.17 353.766 162.877 353.285 162.291C352.805 161.701 352.564 160.846 352.564 159.725C352.564 158.607 352.805 157.754 353.285 157.164C353.766 156.574 354.461 156.279 355.371 156.279ZM363.492 153.883H364.969V155.09L363.814 157.334H362.918L363.492 155.09V153.883ZM360.803 153.883H362.279V155.09L361.131 157.334H360.229L360.803 155.09V153.883Z" fill="#EE9D28"/>
<circle cx="145" cy="159" r="2" fill="#FF0000"/>
<rect x="151" y="201" width="65" height="8" rx="4" fill="#B180D7"/>
<rect x="151" y="221" width="47" height="8" rx="4" fill="#75BEFF"/>
<rect x="151" y="273" width="31" height="8" rx="4" fill="#75BEFF"/>
<rect x="222" y="69" width="60" height="8" rx="4" fill="#EE9D28"/>
<rect x="222" y="89" width="42" height="8" rx="4" fill="#EE9D28"/>
<rect x="222" y="109" width="60" height="8" rx="4" fill="#D7BA7D"/>
<rect x="222" y="201" width="78" height="8" rx="4" fill="#3794FF"/>
<rect x="204" y="221" width="73" height="8" rx="4" fill="#D7BA7D"/>
<rect x="188" y="273" width="54" height="8" rx="4" fill="#D7BA7D"/>
</g>
<g filter="url(#filter2_d_8_7812)">
<rect x="383" y="212" width="98" height="88" rx="8" fill="var(--vscode-quickInput-background, #252526)"/>
<path d="M415.516 270V258.496H427.332V254.395H415.516V246.055H428.445V241.816H410.477V270H415.516ZM443.738 270.703C449.891 270.703 454.012 266.66 454.012 260.762C454.012 255.098 450.105 251.484 445.281 251.484C442.41 251.484 440.34 252.461 439.09 254.199H438.758L439.539 245.957H452.508V241.816H435.613L434.07 258.203H438.641C439.598 256.348 441.453 255.234 443.855 255.234C446.961 255.234 449.148 257.48 449.148 260.84C449.148 264.297 446.961 266.602 443.719 266.602C440.848 266.602 438.68 264.863 438.367 262.227H433.66C433.875 267.168 437.918 270.703 443.738 270.703Z" fill="var(--vscode-input-foreground)"/>
</g>
<defs>
<filter id="filter0_d_8_7812" x="0" y="26" width="208" height="284" filterUnits="userSpaceOnUse" color-interpolation-filters="sRGB">
<feFlood flood-opacity="0" result="BackgroundImageFix"/>
<feColorMatrix in="SourceAlpha" type="matrix" values="0 0 0 0 0 0 0 0 0 0 0 0 0 0 0 0 0 0 127 0" result="hardAlpha"/>
<feOffset dy="2"/>
<feGaussianBlur stdDeviation="4"/>
<feColorMatrix type="matrix" values="0 0 0 0 0 0 0 0 0 0 0 0 0 0 0 0 0 0 0.4 0"/>
<feBlend mode="normal" in2="BackgroundImageFix" result="effect1_dropShadow_8_7812"/>
<feBlend mode="normal" in="SourceGraphic" in2="effect1_dropShadow_8_7812" result="shape"/>
</filter>
<filter id="filter1_d_8_7812" x="119" y="0" width="403" height="342" filterUnits="userSpaceOnUse" color-interpolation-filters="sRGB">
<feFlood flood-opacity="0" result="BackgroundImageFix"/>
<feColorMatrix in="SourceAlpha" type="matrix" values="0 0 0 0 0 0 0 0 0 0 0 0 0 0 0 0 0 0 127 0" result="hardAlpha"/>
<feOffset dy="2"/>
<feGaussianBlur stdDeviation="6"/>
<feColorMatrix type="matrix" values="0 0 0 0 0 0 0 0 0 0 0 0 0 0 0 0 0 0 0.6 0"/>
<feBlend mode="normal" in2="BackgroundImageFix" result="effect1_dropShadow_8_7812"/>
<feBlend mode="normal" in="SourceGraphic" in2="effect1_dropShadow_8_7812" result="shape"/>
</filter>
<filter id="filter2_d_8_7812" x="371" y="202" width="122" height="112" filterUnits="userSpaceOnUse" color-interpolation-filters="sRGB">
<feFlood flood-opacity="0" result="BackgroundImageFix"/>
<feColorMatrix in="SourceAlpha" type="matrix" values="0 0 0 0 0 0 0 0 0 0 0 0 0 0 0 0 0 0 127 0" result="hardAlpha"/>
<feOffset dy="2"/>
<feGaussianBlur stdDeviation="6"/>
<feColorMatrix type="matrix" values="0 0 0 0 0 0 0 0 0 0 0 0 0 0 0 0 0 0 0.6 0"/>
<feBlend mode="normal" in2="BackgroundImageFix" result="effect1_dropShadow_8_7812"/>
<feBlend mode="normal" in="SourceGraphic" in2="effect1_dropShadow_8_7812" result="shape"/>
</filter>
</defs>
</svg>
