<svg width="474" height="232" viewBox="0 0 474 232" fill="none" xmlns="http://www.w3.org/2000/svg">
  <g>
    <g>
      <rect width="474" height="35" fill="var(--vscode-editorGroupHeader-tabsBackground, #292929)" />
      <g clip-path="url(#clip0_507_8476)">
        <g>
          <rect width="123" height="35" fill="var(--vscode-tab-activeBackground, #252526)" />
          <g>
            <path d="M15.18 17.18C15.18 16.3933 15.3067 15.6867 15.56 15.06C15.8133 14.4333 16.14 13.92 16.54 13.52C16.9533 13.1067 17.46 12.7667 18.06 12.5C18.5267 12.2867 19.1333 12.18 19.88 12.18C20.5067 12.18 21.0667 12.3067 21.56 12.56C22.0667 12.8133 22.4867 13.1067 22.82 13.44L21.44 15L21.28 14.88C21.0533 14.7067 20.88 14.6 20.76 14.56L20.54 14.5C20.2733 14.42 20.0533 14.38 19.88 14.38C19.5867 14.38 19.3133 14.44 19.06 14.56C18.78 14.7067 18.5533 14.9 18.38 15.14C18.2067 15.3667 18.06 15.66 17.94 16.02C17.82 16.38 17.76 16.7667 17.76 17.18C17.76 18.14 17.9667 18.8267 18.38 19.24C18.5933 19.5067 18.8333 19.7 19.1 19.82C19.3667 19.94 19.6667 20 20 20C20.3333 20 20.6267 19.94 20.88 19.82C21.16 19.6733 21.3867 19.48 21.56 19.24L22.94 20.82C22.5533 21.26 22.0933 21.6133 21.56 21.88C21.0667 22.12 20.5067 22.24 19.88 22.24C19.2933 22.24 18.6867 22.14 18.06 21.94C17.5 21.7533 17 21.44 16.56 21C16.3733 20.8 16.1933 20.54 16.02 20.22C15.9267 20.0333 15.7933 19.7333 15.62 19.32C15.3267 18.7333 15.18 18.02 15.18 17.18ZM21.38 15.56H20.5V16.62H19.5V17.5H20.5V18.62H21.38V17.5H22.38V16.62H21.38V15.56ZM25.12 16.56V15.32H24.06V16.56H22.88V17.62H24.06V18.94H25.12V17.62H26.32V16.56H25.12Z" fill="#519ABA" />
          </g>
          <rect x="32" y="14" width="79" height="7" rx="3.5" fill="var(--vscode-tab-inactiveForeground, #FFFFFF)" fill-opacity="0.12" />
        </g>
      </g>
    </g>
    <g filter="url(#filter0_d_507_8476)">
      <rect x="25" y="31" width="425" height="182" rx="6" fill="var(--vscode-quickInput-background, #252526)" />
      <g>
        <g>
          <rect x="32.5" y="38.5" width="410" height="25" rx="2.5" fill="var(--vscode-input-background, #3C3C3C)" />
          <path d="M37.7173 53.5562C37.8188 55.1812 39.1836 56.2222 41.2148 56.2222C43.3857 56.2222 44.7441 55.1304 44.7441 53.3975C44.7441 52.0264 43.9697 51.271 42.0908 50.8203L41.0815 50.5728C39.8882 50.2808 39.4058 49.8999 39.4058 49.2334C39.4058 48.3765 40.1548 47.8242 41.2783 47.8242C42.3447 47.8242 43.0811 48.3574 43.2144 49.2271H44.5981C44.5156 47.6973 43.1572 46.6182 41.2974 46.6182C39.2979 46.6182 37.9648 47.6973 37.9648 49.3096C37.9648 50.6426 38.7202 51.4297 40.377 51.8296L41.5576 52.1152C42.77 52.4072 43.3032 52.8516 43.3032 53.5688C43.3032 54.4067 42.4653 55.0098 41.3228 55.0098C40.0977 55.0098 39.2471 54.4448 39.1265 53.5562H37.7173ZM50.9902 54.1528C50.7363 54.7114 50.1714 55.0161 49.3462 55.0161C48.2544 55.0161 47.5498 54.229 47.5054 52.9785V52.915H52.3867V52.4453C52.3867 50.2871 51.2251 48.9731 49.3018 48.9731C47.353 48.9731 46.1152 50.376 46.1152 52.5659C46.1152 54.7686 47.3276 56.1333 49.3081 56.1333C50.8887 56.1333 52.0059 55.3716 52.3042 54.1528H50.9902ZM49.2954 50.084C50.3047 50.084 50.9648 50.814 50.9966 51.9312H47.5054C47.5815 50.8203 48.2861 50.084 49.2954 50.084ZM54.0879 56H55.4526V46.4023H54.0879V56ZM62.0352 54.1528C61.7812 54.7114 61.2163 55.0161 60.3911 55.0161C59.2993 55.0161 58.5947 54.229 58.5503 52.9785V52.915H63.4316V52.4453C63.4316 50.2871 62.27 48.9731 60.3467 48.9731C58.3979 48.9731 57.1602 50.376 57.1602 52.5659C57.1602 54.7686 58.3726 56.1333 60.353 56.1333C61.9336 56.1333 63.0508 55.3716 63.3491 54.1528H62.0352ZM60.3403 50.084C61.3496 50.084 62.0098 50.814 62.0415 51.9312H58.5503C58.6265 50.8203 59.3311 50.084 60.3403 50.084ZM70.9219 51.3218C70.7441 49.9824 69.6968 48.9731 67.9639 48.9731C65.9517 48.9731 64.7266 50.3379 64.7266 52.5278C64.7266 54.7622 65.958 56.1333 67.9702 56.1333C69.6777 56.1333 70.7441 55.1748 70.9219 53.8164H69.5952C69.4175 54.5654 68.8271 54.9717 67.9639 54.9717C66.8276 54.9717 66.123 54.0513 66.123 52.5278C66.123 51.0361 66.8213 50.1348 67.9639 50.1348C68.8779 50.1348 69.4365 50.6489 69.5952 51.3218H70.9219ZM73.0674 47.3672V49.1255H71.9692V50.2173H73.0674V54.1846C73.0674 55.5112 73.6704 56.0444 75.1875 56.0444C75.4541 56.0444 75.708 56.0127 75.9302 55.9746V54.8892C75.7397 54.9082 75.6191 54.9209 75.4097 54.9209C74.7305 54.9209 74.4321 54.5972 74.4321 53.8545V50.2173H75.9302V49.1255H74.4321V47.3672H73.0674ZM83.0015 56.1143C83.9092 56.1143 84.6646 55.7207 85.0771 55.0225H85.1851V56H86.499V51.2837C86.499 49.8364 85.5215 48.9731 83.7886 48.9731C82.2207 48.9731 81.1035 49.7285 80.9639 50.8901H82.2842C82.4365 50.3887 82.9634 50.103 83.7251 50.103C84.6582 50.103 85.1406 50.5283 85.1406 51.2837V51.8867L83.2681 52.001C81.624 52.1025 80.6973 52.8198 80.6973 54.0576C80.6973 55.3145 81.6685 56.1143 83.0015 56.1143ZM83.3506 55.0161C82.6079 55.0161 82.0684 54.6416 82.0684 54.0005C82.0684 53.3721 82.5 53.0356 83.4521 52.9722L85.1406 52.8579V53.4546C85.1406 54.3433 84.3789 55.0161 83.3506 55.0161ZM97.8486 51.3218C97.6709 49.9824 96.6235 48.9731 94.8906 48.9731C92.8784 48.9731 91.6533 50.3379 91.6533 52.5278C91.6533 54.7622 92.8848 56.1333 94.897 56.1333C96.6045 56.1333 97.6709 55.1748 97.8486 53.8164H96.522C96.3442 54.5654 95.7539 54.9717 94.8906 54.9717C93.7544 54.9717 93.0498 54.0513 93.0498 52.5278C93.0498 51.0361 93.748 50.1348 94.8906 50.1348C95.8047 50.1348 96.3633 50.6489 96.522 51.3218H97.8486ZM102.33 56.1333C104.349 56.1333 105.586 54.7812 105.586 52.5532C105.586 50.3252 104.342 48.9731 102.33 48.9731C100.312 48.9731 99.0674 50.3315 99.0674 52.5532C99.0674 54.7812 100.305 56.1333 102.33 56.1333ZM102.33 54.9717C101.143 54.9717 100.477 54.0894 100.477 52.5532C100.477 51.0171 101.143 50.1284 102.33 50.1284C103.511 50.1284 104.184 51.0171 104.184 52.5532C104.184 54.083 103.511 54.9717 102.33 54.9717ZM107.23 56H108.595V51.7661C108.595 50.8647 109.224 50.1602 110.055 50.1602C110.868 50.1602 111.388 50.6489 111.388 51.436V56H112.728V51.6392C112.728 50.8076 113.305 50.1602 114.188 50.1602C115.083 50.1602 115.527 50.6235 115.527 51.5757V56H116.892V51.2456C116.892 49.811 116.079 48.9731 114.683 48.9731C113.724 48.9731 112.931 49.4619 112.582 50.2046H112.474C112.169 49.4619 111.515 48.9731 110.569 48.9731C109.649 48.9731 108.951 49.4302 108.646 50.2046H108.544V49.1064H107.23V56ZM122.395 48.9858C121.456 48.9858 120.643 49.4619 120.224 50.249H120.123V49.1064H118.809V58.2979H120.173V54.959H120.281C120.643 55.689 121.424 56.1143 122.408 56.1143C124.153 56.1143 125.264 54.7305 125.264 52.5532C125.264 50.3633 124.153 48.9858 122.395 48.9858ZM122.008 54.9463C120.865 54.9463 120.148 54.0259 120.148 52.5532C120.148 51.0742 120.865 50.1538 122.014 50.1538C123.169 50.1538 123.861 51.0552 123.861 52.5532C123.861 54.0513 123.169 54.9463 122.008 54.9463ZM127.613 47.875C128.089 47.875 128.476 47.4878 128.476 47.0181C128.476 46.542 128.089 46.1548 127.613 46.1548C127.137 46.1548 126.75 46.542 126.75 47.0181C126.75 47.4878 127.137 47.875 127.613 47.875ZM126.934 56H128.292V49.1064H126.934V56ZM130.361 56H131.726V46.4023H130.361V56ZM138.309 54.1528C138.055 54.7114 137.49 55.0161 136.665 55.0161C135.573 55.0161 134.868 54.229 134.824 52.9785V52.915H139.705V52.4453C139.705 50.2871 138.543 48.9731 136.62 48.9731C134.671 48.9731 133.434 50.376 133.434 52.5659C133.434 54.7686 134.646 56.1333 136.626 56.1333C138.207 56.1333 139.324 55.3716 139.623 54.1528H138.309ZM136.614 50.084C137.623 50.084 138.283 50.814 138.315 51.9312H134.824C134.9 50.8203 135.604 50.084 136.614 50.084ZM141.343 56H142.708V51.8804C142.708 50.9092 143.438 50.2427 144.472 50.2427C144.713 50.2427 145.12 50.2871 145.234 50.3188V49.0366C145.088 49.0049 144.828 48.9858 144.625 48.9858C143.723 48.9858 142.955 49.4746 142.758 50.1538H142.657V49.1064H141.343V56ZM150.585 47.3672V49.1255H149.487V50.2173H150.585V54.1846C150.585 55.5112 151.188 56.0444 152.705 56.0444C152.972 56.0444 153.226 56.0127 153.448 55.9746V54.8892C153.257 54.9082 153.137 54.9209 152.927 54.9209C152.248 54.9209 151.95 54.5972 151.95 53.8545V50.2173H153.448V49.1255H151.95V47.3672H150.585ZM157.897 56.1333C159.916 56.1333 161.154 54.7812 161.154 52.5532C161.154 50.3252 159.91 48.9731 157.897 48.9731C155.879 48.9731 154.635 50.3315 154.635 52.5532C154.635 54.7812 155.873 56.1333 157.897 56.1333ZM157.897 54.9717C156.71 54.9717 156.044 54.0894 156.044 52.5532C156.044 51.0171 156.71 50.1284 157.897 50.1284C159.078 50.1284 159.751 51.0171 159.751 52.5532C159.751 54.083 159.078 54.9717 157.897 54.9717ZM172.205 51.3218C172.027 49.9824 170.98 48.9731 169.247 48.9731C167.235 48.9731 166.01 50.3379 166.01 52.5278C166.01 54.7622 167.241 56.1333 169.253 56.1333C170.961 56.1333 172.027 55.1748 172.205 53.8164H170.878C170.701 54.5654 170.11 54.9717 169.247 54.9717C168.111 54.9717 167.406 54.0513 167.406 52.5278C167.406 51.0361 168.104 50.1348 169.247 50.1348C170.161 50.1348 170.72 50.6489 170.878 51.3218H172.205ZM176.687 56.1333C178.705 56.1333 179.943 54.7812 179.943 52.5532C179.943 50.3252 178.699 48.9731 176.687 48.9731C174.668 48.9731 173.424 50.3315 173.424 52.5532C173.424 54.7812 174.662 56.1333 176.687 56.1333ZM176.687 54.9717C175.5 54.9717 174.833 54.0894 174.833 52.5532C174.833 51.0171 175.5 50.1284 176.687 50.1284C177.867 50.1284 178.54 51.0171 178.54 52.5532C178.54 54.083 177.867 54.9717 176.687 54.9717ZM181.587 56H182.952V51.9565C182.952 50.8457 183.593 50.1602 184.602 50.1602C185.611 50.1602 186.094 50.7188 186.094 51.8613V56H187.458V51.5376C187.458 49.8936 186.608 48.9731 185.065 48.9731C184.024 48.9731 183.339 49.4365 183.002 50.1982H182.901V49.1064H181.587V56ZM189.871 56H191.235V50.2173H192.759V49.1255H191.216V48.4463C191.216 47.748 191.527 47.3989 192.289 47.3989C192.505 47.3989 192.689 47.4116 192.816 47.4307V46.4023C192.581 46.3643 192.314 46.3389 192.003 46.3389C190.569 46.3389 189.871 47.0117 189.871 48.3828V49.1255H188.734V50.2173H189.871V56ZM195.012 47.875C195.488 47.875 195.875 47.4878 195.875 47.0181C195.875 46.542 195.488 46.1548 195.012 46.1548C194.536 46.1548 194.149 46.542 194.149 47.0181C194.149 47.4878 194.536 47.875 195.012 47.875ZM194.333 56H195.691V49.1064H194.333V56ZM200.611 58.6343C202.566 58.6343 203.804 57.6377 203.804 56.0698V49.1064H202.496V50.2046H202.388C202.001 49.4556 201.169 48.9858 200.217 48.9858C198.453 48.9858 197.348 50.376 197.348 52.4644C197.348 54.5337 198.44 55.8984 200.205 55.8984C201.157 55.8984 201.918 55.4858 202.337 54.7368H202.439V56.0635C202.439 56.9966 201.766 57.5552 200.63 57.5552C199.709 57.5552 199.132 57.2251 199.018 56.7046H197.621C197.767 57.8662 198.884 58.6343 200.611 58.6343ZM200.592 54.7686C199.417 54.7686 198.757 53.8735 198.757 52.4644C198.757 51.0552 199.417 50.1538 200.592 50.1538C201.753 50.1538 202.464 51.0552 202.464 52.4644C202.464 53.8735 201.76 54.7686 200.592 54.7686ZM211.611 49.1064H210.247V53.1499C210.247 54.2607 209.644 54.9336 208.539 54.9336C207.536 54.9336 207.085 54.3877 207.085 53.2451V49.1064H205.721V53.5815C205.721 55.2002 206.571 56.1333 208.101 56.1333C209.148 56.1333 209.853 55.689 210.189 54.9082H210.297V56H211.611V49.1064ZM213.592 56H214.957V51.8804C214.957 50.9092 215.687 50.2427 216.721 50.2427C216.962 50.2427 217.369 50.2871 217.483 50.3188V49.0366C217.337 49.0049 217.077 48.9858 216.874 48.9858C215.972 48.9858 215.204 49.4746 215.007 50.1538H214.906V49.1064H213.592V56ZM223.151 54.1528C222.897 54.7114 222.333 55.0161 221.507 55.0161C220.416 55.0161 219.711 54.229 219.667 52.9785V52.915H224.548V52.4453C224.548 50.2871 223.386 48.9731 221.463 48.9731C219.514 48.9731 218.276 50.376 218.276 52.5659C218.276 54.7686 219.489 56.1333 221.469 56.1333C223.05 56.1333 224.167 55.3716 224.465 54.1528H223.151ZM221.457 50.084C222.466 50.084 223.126 50.814 223.158 51.9312H219.667C219.743 50.8203 220.447 50.084 221.457 50.084ZM230.229 56H231.594V50.2173H233.117V49.1255H231.575V48.4463C231.575 47.748 231.886 47.3989 232.647 47.3989C232.863 47.3989 233.047 47.4116 233.174 47.4307V46.4023C232.939 46.3643 232.673 46.3389 232.362 46.3389C230.927 46.3389 230.229 47.0117 230.229 48.3828V49.1255H229.093V50.2173H230.229V56ZM237.319 56.1333C239.338 56.1333 240.576 54.7812 240.576 52.5532C240.576 50.3252 239.332 48.9731 237.319 48.9731C235.301 48.9731 234.057 50.3315 234.057 52.5532C234.057 54.7812 235.294 56.1333 237.319 56.1333ZM237.319 54.9717C236.132 54.9717 235.466 54.0894 235.466 52.5532C235.466 51.0171 236.132 50.1284 237.319 50.1284C238.5 50.1284 239.173 51.0171 239.173 52.5532C239.173 54.083 238.5 54.9717 237.319 54.9717ZM242.22 56H243.584V51.8804C243.584 50.9092 244.314 50.2427 245.349 50.2427C245.59 50.2427 245.997 50.2871 246.111 50.3188V49.0366C245.965 49.0049 245.705 48.9858 245.501 48.9858C244.6 48.9858 243.832 49.4746 243.635 50.1538H243.534V49.1064H242.22V56ZM252.56 56V46.8403H251.138V56H252.56ZM254.699 56H256.064V51.9565C256.064 50.8457 256.705 50.1602 257.714 50.1602C258.724 50.1602 259.206 50.7188 259.206 51.8613V56H260.571V51.5376C260.571 49.8936 259.72 48.9731 258.178 48.9731C257.137 48.9731 256.451 49.4365 256.115 50.1982H256.013V49.1064H254.699V56ZM262.977 47.3672V49.1255H261.878V50.2173H262.977V54.1846C262.977 55.5112 263.58 56.0444 265.097 56.0444C265.363 56.0444 265.617 56.0127 265.839 55.9746V54.8892C265.649 54.9082 265.528 54.9209 265.319 54.9209C264.64 54.9209 264.341 54.5972 264.341 53.8545V50.2173H265.839V49.1255H264.341V47.3672H262.977ZM271.901 54.1528C271.647 54.7114 271.083 55.0161 270.257 55.0161C269.166 55.0161 268.461 54.229 268.417 52.9785V52.915H273.298V52.4453C273.298 50.2871 272.136 48.9731 270.213 48.9731C268.264 48.9731 267.026 50.376 267.026 52.5659C267.026 54.7686 268.239 56.1333 270.219 56.1333C271.8 56.1333 272.917 55.3716 273.215 54.1528H271.901ZM270.207 50.084C271.216 50.084 271.876 50.814 271.908 51.9312H268.417C268.493 50.8203 269.197 50.084 270.207 50.084ZM274.999 56H276.364V46.4023H274.999V56ZM278.478 56H279.842V46.4023H278.478V56ZM282.597 47.875C283.073 47.875 283.46 47.4878 283.46 47.0181C283.46 46.542 283.073 46.1548 282.597 46.1548C282.121 46.1548 281.734 46.542 281.734 47.0181C281.734 47.4878 282.121 47.875 282.597 47.875ZM281.918 56H283.276V49.1064H281.918V56ZM285.009 53.5562C285.111 55.1812 286.476 56.2222 288.507 56.2222C290.678 56.2222 292.036 55.1304 292.036 53.3975C292.036 52.0264 291.262 51.271 289.383 50.8203L288.374 50.5728C287.18 50.2808 286.698 49.8999 286.698 49.2334C286.698 48.3765 287.447 47.8242 288.57 47.8242C289.637 47.8242 290.373 48.3574 290.506 49.2271H291.89C291.808 47.6973 290.449 46.6182 288.589 46.6182C286.59 46.6182 285.257 47.6973 285.257 49.3096C285.257 50.6426 286.012 51.4297 287.669 51.8296L288.85 52.1152C290.062 52.4072 290.595 52.8516 290.595 53.5688C290.595 54.4067 289.757 55.0098 288.615 55.0098C287.39 55.0098 286.539 54.4448 286.418 53.5562H285.009ZM298.282 54.1528C298.028 54.7114 297.463 55.0161 296.638 55.0161C295.546 55.0161 294.842 54.229 294.797 52.9785V52.915H299.679V52.4453C299.679 50.2871 298.517 48.9731 296.594 48.9731C294.645 48.9731 293.407 50.376 293.407 52.5659C293.407 54.7686 294.62 56.1333 296.6 56.1333C298.181 56.1333 299.298 55.3716 299.596 54.1528H298.282ZM296.587 50.084C297.597 50.084 298.257 50.814 298.289 51.9312H294.797C294.874 50.8203 295.578 50.084 296.587 50.084ZM301.316 56H302.681V51.9565C302.681 50.8457 303.322 50.1602 304.332 50.1602C305.341 50.1602 305.823 50.7188 305.823 51.8613V56H307.188V51.5376C307.188 49.8936 306.337 48.9731 304.795 48.9731C303.754 48.9731 303.068 49.4365 302.732 50.1982H302.63V49.1064H301.316V56ZM308.953 51.0361C308.953 52.0581 309.562 52.6421 310.876 52.9468L312.082 53.2324C312.774 53.3975 313.098 53.6768 313.098 54.1084C313.098 54.6733 312.495 55.0669 311.644 55.0669C310.819 55.0669 310.311 54.7305 310.14 54.1909H308.775C308.896 55.3906 309.968 56.1333 311.612 56.1333C313.263 56.1333 314.475 55.2637 314.475 53.9814C314.475 52.9785 313.859 52.4136 312.545 52.1089L311.396 51.8423C310.647 51.6646 310.298 51.3979 310.298 50.9727C310.298 50.4141 310.876 50.0396 311.638 50.0396C312.412 50.0396 312.907 50.376 313.034 50.8901H314.342C314.208 49.6968 313.193 48.9731 311.638 48.9731C310.076 48.9731 308.953 49.8364 308.953 51.0361ZM320.651 54.1528C320.397 54.7114 319.833 55.0161 319.007 55.0161C317.916 55.0161 317.211 54.229 317.167 52.9785V52.915H322.048V52.4453C322.048 50.2871 320.886 48.9731 318.963 48.9731C317.014 48.9731 315.776 50.376 315.776 52.5659C315.776 54.7686 316.989 56.1333 318.969 56.1333C320.55 56.1333 321.667 55.3716 321.965 54.1528H320.651ZM318.957 50.084C319.966 50.084 320.626 50.814 320.658 51.9312H317.167C317.243 50.8203 317.947 50.084 318.957 50.084Z" fill="var(--vscode-input-foreground, #CCCCCC)" />
          <rect x="32.5" y="38.5" width="410" height="25" rx="2.5" stroke="var(--vscode-focusBorder, #007FD4)" />
        </g>
      </g>
      <g>
        <g>
          <g>
            <rect x="37" y="77" width="38" height="6" rx="3" fill="var(--vscode-descriptionForeground, #606060)" />
            <rect x="112" y="77" width="105" height="6" rx="3" fill="var(--vscode-descriptionForeground, #FFFFFF)" fill-opacity="0.16" />
            <rect x="79" y="77" width="29" height="6" rx="3" fill="var(--vscode-list-highlightForeground, #3794FF)" fill-opacity="0.6" />
          </g>
        </g>
        <g>
          <rect width="425" height="24" transform="translate(25 93)" fill="var(--vscode-list-activeSelectionBackground, #062F4A)" />
          <path d="M40.9038 112.634C42.8589 112.634 44.0967 111.638 44.0967 110.07V103.106H42.7891V104.205H42.6812C42.2939 103.456 41.4624 102.986 40.5103 102.986C38.7456 102.986 37.6411 104.376 37.6411 106.464C37.6411 108.534 38.7329 109.898 40.4976 109.898C41.4497 109.898 42.2114 109.486 42.6304 108.737H42.7319V110.063C42.7319 110.997 42.0591 111.555 40.9229 111.555C40.0024 111.555 39.4248 111.225 39.3105 110.705H37.9141C38.0601 111.866 39.1772 112.634 40.9038 112.634ZM40.8848 108.769C39.7104 108.769 39.0503 107.874 39.0503 106.464C39.0503 105.055 39.7104 104.154 40.8848 104.154C42.0464 104.154 42.7573 105.055 42.7573 106.464C42.7573 107.874 42.0527 108.769 40.8848 108.769ZM51.9297 105.322C51.752 103.982 50.7046 102.973 48.9717 102.973C46.9595 102.973 45.7344 104.338 45.7344 106.528C45.7344 108.762 46.9658 110.133 48.978 110.133C50.6855 110.133 51.752 109.175 51.9297 107.816H50.603C50.4253 108.565 49.835 108.972 48.9717 108.972C47.8354 108.972 47.1309 108.051 47.1309 106.528C47.1309 105.036 47.8291 104.135 48.9717 104.135C49.8857 104.135 50.4443 104.649 50.603 105.322H51.9297ZM59.3438 105.322C59.166 103.982 58.1187 102.973 56.3857 102.973C54.3735 102.973 53.1484 104.338 53.1484 106.528C53.1484 108.762 54.3799 110.133 56.3921 110.133C58.0996 110.133 59.166 109.175 59.3438 107.816H58.0171C57.8394 108.565 57.249 108.972 56.3857 108.972C55.2495 108.972 54.5449 108.051 54.5449 106.528C54.5449 105.036 55.2432 104.135 56.3857 104.135C57.2998 104.135 57.8584 104.649 58.0171 105.322H59.3438ZM61.9653 110.095C62.5049 110.095 62.8984 109.695 62.8984 109.181C62.8984 108.667 62.5049 108.267 61.9653 108.267C61.4321 108.267 61.0322 108.667 61.0322 109.181C61.0322 109.695 61.4321 110.095 61.9653 110.095ZM69.2842 108.153C69.0303 108.711 68.4653 109.016 67.6401 109.016C66.5483 109.016 65.8438 108.229 65.7993 106.979V106.915H70.6807V106.445C70.6807 104.287 69.519 102.973 67.5957 102.973C65.647 102.973 64.4092 104.376 64.4092 106.566C64.4092 108.769 65.6216 110.133 67.6021 110.133C69.1826 110.133 70.2998 109.372 70.5981 108.153H69.2842ZM67.5894 104.084C68.5986 104.084 69.2588 104.814 69.2905 105.931H65.7993C65.8755 104.82 66.5801 104.084 67.5894 104.084ZM74.6289 107.531L76.1396 110.013H77.7075L75.4033 106.528L77.6821 103.119H76.1587L74.686 105.582H74.5781L73.0928 103.119H71.4995L73.8101 106.579L71.5186 110.013H73.0166L74.5273 107.531H74.6289ZM83.3252 108.153C83.0713 108.711 82.5063 109.016 81.6812 109.016C80.5894 109.016 79.8848 108.229 79.8403 106.979V106.915H84.7217V106.445C84.7217 104.287 83.5601 102.973 81.6367 102.973C79.688 102.973 78.4502 104.376 78.4502 106.566C78.4502 108.769 79.6626 110.133 81.6431 110.133C83.2236 110.133 84.3408 109.372 84.6392 108.153H83.3252ZM81.6304 104.084C82.6396 104.084 83.2998 104.814 83.3315 105.931H79.8403C79.9165 104.82 80.6211 104.084 81.6304 104.084Z" fill="var(--vscode-list-activeSelectionForeground, #E3E3E3)" />
          <rect x="99" y="102" width="192" height="6" rx="3" fill="var(--vscode-descriptionForeground, #454545)" />
        </g>
        <g>
          <g>
            <rect x="37" y="127" width="62.5" height="6" rx="3" fill="var(--vscode-descriptionForeground, #FFFFFF)" fill-opacity="0.16" />
            <rect x="103.5" y="127" width="29" height="6" rx="3" fill="var(--vscode-list-focusHighlightForeground, #3794FF)" fill-opacity="0.6" />
            <rect x="136.5" y="127" width="62.5" height="6" rx="3" fill="var(--vscode-descriptionForeground, #FFFFFF)" fill-opacity="0.16" />
          </g>
        </g>
        <g>
          <g>
            <rect x="37" y="149" width="41" height="6" rx="3" fill="var(--vscode-descriptionForeground, #FFFFFF)" fill-opacity="0.16" />
            <rect x="82" y="149" width="69" height="6" rx="3" fill="var(--vscode-descriptionForeground, #FFFFFF)" fill-opacity="0.16" />
            <rect x="155" y="149" width="26" height="6" rx="3" fill="var(--vscode-list-focusHighlightForeground, #3794FF)" fill-opacity="0.6" />
          </g>
        </g>
        <g>
          <g>
            <rect x="37" y="171" width="26" height="6" rx="3" fill="var(--vscode-list-focusHighlightForeground, #3794FF)" fill-opacity="0.6" />
            <rect x="67" y="171" width="164" height="6" rx="3" fill="var(--vscode-descriptionForeground, #FFFFFF)" fill-opacity="0.16" />
          </g>
        </g>
        <g>
          <g>
            <rect x="37" y="193" width="46" height="6" rx="3" fill="var(--vscode-descriptionForeground, #FFFFFF)" fill-opacity="0.16" />
            <rect x="87" y="193" width="29" height="6" rx="3" fill="var(--vscode-list-focusHighlightForeground, #3794FF)" fill-opacity="0.6" />
            <rect x="120" y="193" width="46" height="6" rx="3" fill="var(--vscode-descriptionForeground, #FFFFFF)" fill-opacity="0.16" />
          </g>
        </g>
      </g>
      <rect x="24.5" y="30.5" width="426" height="183" rx="6.5" stroke="var(--vscode-editorWidget-border, #333333)" />
    </g>
  </g>
  <defs>
    <filter id="filter0_d_507_8476" x="8" y="16" width="459" height="216" filterUnits="userSpaceOnUse" color-interpolation-filters="sRGB">
      <feFlood flood-opacity="0" result="BackgroundImageFix" />
      <feColorMatrix in="SourceAlpha" type="matrix" values="0 0 0 0 0 0 0 0 0 0 0 0 0 0 0 0 0 0 127 0" result="hardAlpha" />
      <feOffset dy="2" />
      <feGaussianBlur stdDeviation="8" />
      <feColorMatrix type="matrix" values="0 0 0 0 0 0 0 0 0 0 0 0 0 0 0 0 0 0 0.36 0" />
      <feBlend mode="normal" in2="BackgroundImageFix" result="effect1_dropShadow_507_8476" />
      <feBlend mode="normal" in="SourceGraphic" in2="effect1_dropShadow_507_8476" result="shape" />
    </filter>
    <clipPath id="clip0_507_8476">
      <rect width="123" height="35" fill="#FFFFFF" />
    </clipPath>
  </defs>
</svg>